<svg width="156" height="106" fill="none" xmlns="http://www.w3.org/2000/svg"><path d="M29.42 54.011a.42.42 0 01-.547 0l-2.19-2.158a.406.406 0 010-.54.42.42 0 01.548 0l2.121 2.091c.205.202.205.405.069.607z" fill="#fff"/><path opacity=".51" d="M42.9 58.596v-1.214l-3.49-4.113h-1.163l4.653 5.327zM133.284 106h-23.332l.137-2.63.069-.809 22.784-.067.137.876.205 2.63z" fill="#fff"/><path d="M97.158 5.529v71.408c-.137 3.17-2.669 5.665-5.748 6.002h-72.8a6.748 6.748 0 01-2.326-.405 6.468 6.468 0 01-1.506-.81c-.205-.606-.273-1.213-.273-1.887V7.147c0-3.506 2.873-6.339 6.363-6.339h73.28c.273 0 .547 0 .82.068a6.74 6.74 0 011.574 2.023c.41.742.616 1.618.616 2.63z" fill="#4BA7FA"/><path d="M90.795 83.749H18.61c-.89 0-1.779-.135-2.6-.473-.616-.27-1.163-.539-1.642-.944l-.205-.134-.069-.203a7.5 7.5 0 01-.342-2.157V7.148C13.684 3.169 16.968 0 20.936 0h73.28c.342 0 .615 0 .958.067h.273l.206.135c.752.607 1.3 1.416 1.71 2.225.479.945.684 1.956.684 3.035v71.476c-.205 3.506-2.942 6.338-6.5 6.743h-.342a1.219 1.219 0 01-.41.068zM15.53 81.186c.342.202.684.405 1.095.607.616.27 1.3.405 1.984.405h72.732a5.543 5.543 0 004.995-5.26V5.529c0-.809-.206-1.618-.548-2.36-.273-.607-.684-1.146-1.163-1.618H20.937c-3.08 0-5.611 2.495-5.611 5.53v72.622c0 .54.068 1.011.205 1.483z" fill="#1D79DE"/><path d="M86.005 57.451c0 .877-.547 1.551-1.437 1.619-.616.067-.89.27-.958.876a4.027 4.027 0 01-.41 1.282c-.069.067-.069.134-.069.202 0 .067.069.135.137.135.342.27.821.539.958 1.079 0 .067.069.067.069.134.136.405.068.877-.206 1.214-.342.472-.684.944-1.094 1.416-.548.607-1.437.674-2.19.135-.205-.135-.41-.405-.684-.405-.206 0-.48.27-.684.338l-1.232.606c-.137.068-.205.135-.205.338 0 .27.068.472.068.741 0 .81-.547 1.484-1.3 1.619-.273.067-.547.067-.82.135-.206 0-.48.067-.685.067-.89.067-1.574-.405-1.78-1.281v-.068c.07-.674-.273-.944-.957-1.011a5.839 5.839 0 01-1.163-.337c-.274-.068-.41-.068-.547.135-.137.134-.206.337-.343.472-.547.607-1.436.741-2.12.27-.48-.338-.959-.675-1.37-1.08-.615-.539-.683-1.348-.204-2.022.136-.203.342-.405.479-.607a.203.203 0 000-.27c-.069-.135-.137-.27-.206-.337-.273-.472-.479-.877-.752-1.349-.069-.135-.137-.202-.342-.135-.274 0-.548.068-.822.068-.752 0-1.368-.54-1.505-1.281-.068-.54-.137-1.147-.205-1.686a1.497 1.497 0 011.232-1.619c.205-.067.478-.067.752-.134.137 0 .206-.068.274-.27.137-.607.342-1.214.547-1.888.069-.135.069-.27-.068-.337-.205-.135-.41-.338-.616-.472-.547-.54-.684-1.349-.205-1.956.342-.472.684-.944 1.026-1.348.547-.607 1.437-.742 2.121-.27.205.135.342.27.548.405.136.134.273.067.41 0 .547-.338 1.095-.607 1.642-.945.137-.067.274-.202.206-.337-.069-.202-.069-.472-.069-.674 0-.742.479-1.416 1.232-1.618a8.61 8.61 0 011.847-.203c.821 0 1.437.54 1.574 1.282v.067c-.069.674.273.944.958 1.011.41 0 .82.203 1.231.405.137.067.274.067.342-.067.206-.27.48-.54.753-.742.547-.405 1.163-.405 1.71-.068a8.884 8.884 0 011.574 1.214c.547.472.616 1.281.205 1.888-.136.203-.342.472-.478.675-.137.134-.069.202 0 .337.342.54.684 1.146.957 1.685.069.135.137.203.343.203.205-.068.478-.068.752-.068.753 0 1.437.472 1.574 1.214.137.405.205 1.011.205 1.618z" fill="#fff"/><path opacity=".51" d="M50.905 9.71l-.547 1.618-2.121 6.136-1.506-.54-1.163-.336 2.669-7.755 2.668.877zM48.578 24.544c-.136.54-.342 1.011-.547 1.618-1.505 3.776-4.379 8.16-4.379 8.16a22.98 22.98 0 01-4.584-.877l-.616-.203v-2.764s-1.437 1.079-2.395 1.82a19.409 19.409 0 01-5.268-3.506c-1.232-1.146-1.779-1.955-1.779-1.955 7.869 0 10.605-5.125 10.605-5.125.274-.068 8.963 2.832 8.963 2.832zM50.494 18.14l-.479 1.685-.615 2.428-7.39-2.09-1.71-.54 2.6-3.439 3.763.944 2.737.742 1.094.27zM87.031 56.709c-.137-.742-.82-1.214-1.642-1.214-.273 0-.547.067-.752.067-.206 0-.274-.067-.343-.202-.342-.607-.684-1.146-1.026-1.753-.068-.135-.068-.203 0-.337.205-.203.342-.473.547-.675.411-.607.343-1.483-.205-1.955a8.884 8.884 0 00-1.573-1.214c-.548-.405-1.232-.337-1.78.067-.273.203-.547.54-.752.81-.137.135-.205.135-.41.135-.411-.135-.822-.338-1.3-.405-.685-.068-1.027-.337-1.027-1.079v-.067c-.137-.81-.821-1.349-1.642-1.349-.616 0-1.3.135-1.916.202-.82.135-1.3.877-1.3 1.619 0 .27.069.472.069.674.068.202-.069.27-.206.404-.547.27-1.163.607-1.71.945-.137.067-.274.134-.41 0-.206-.135-.343-.27-.548-.405-.753-.472-1.642-.405-2.19.27-.41.472-.752.944-1.094 1.416-.48.674-.342 1.55.205 2.09.205.202.41.337.616.54.137.134.137.202.068.337-.205.606-.41 1.28-.547 1.955-.069.135-.137.27-.274.27-.274 0-.547.067-.752.135-.822.202-1.369.876-1.3 1.685.068.607.136 1.214.205 1.754.137.741.82 1.28 1.573 1.28.274 0 .548-.067.89-.067.137 0 .274 0 .342.203l.821 1.416.205.404c.069.068.069.203 0 .337-.136.203-.342.405-.479.607-.479.675-.342 1.551.274 2.09.479.405.958.742 1.437 1.08.684.472 1.574.337 2.19-.27.136-.135.273-.27.341-.472.137-.203.274-.27.548-.135.41.135.82.337 1.231.404.685.068 1.027.338.958 1.012v.067c.206.877.958 1.416 1.848 1.349.273 0 .479-.067.752-.067.274-.068.548-.068.89-.135.82-.135 1.437-.81 1.368-1.686 0-.27-.068-.54-.068-.742 0-.202 0-.27.205-.337l1.232-.607c.205-.135.479-.404.684-.404.205 0 .479.27.684.472.753.54 1.642.472 2.258-.203.41-.472.821-.944 1.163-1.483.274-.405.342-.81.205-1.281 0-.068 0-.068-.068-.135-.205-.54-.616-.81-1.026-1.08-.069-.066-.137-.134-.137-.201v-.203c.137-.472.41-.876.41-1.348.069-.675.343-.877 1.027-.877.958-.067 1.505-.809 1.505-1.686-.069-.809-.137-1.416-.274-2.023zm-1.573 2.09c-.343.067-.753.067-1.095.135-.48.067-.753.27-.821.741a10.794 10.794 0 01-.821 2.9c0 .067-.069.067-.069.135-.136.337 0 .607.274.809.274.202.479.404.753.607.068.067.136.135.205.135.205.135.205.27.068.472-.273.337-.479.607-.752.944-.137.202-.274.202-.48.067-.273-.202-.547-.472-.889-.674-.41-.337-.752-.337-1.163 0a8.42 8.42 0 01-2.532 1.416c-.547.202-.684.472-.684 1.079.069.337.069.674.137 1.011.069.27-.068.405-.342.405-.205 0-.342.067-.547.067-.206 0-.41.068-.548.068-.273.067-.41-.068-.41-.338-.069-.337-.069-.741-.137-1.078-.069-.472-.274-.742-.821-.81a10.066 10.066 0 01-2.874-.809c-.41-.202-.752-.135-1.095.27-.205.27-.478.54-.684.877-.137.202-.273.27-.479.067-.342-.27-.615-.54-.958-.742-.205-.135-.205-.27-.068-.404.274-.27.479-.607.684-.877.342-.404.342-.674.069-1.079-.343-.472-.685-.876-.89-1.416-.205-.337-.342-.742-.547-1.146-.137-.472-.48-.607-1.027-.607-.342.068-.752.068-1.163.135-.205 0-.342-.067-.342-.27-.068-.404-.068-.809-.137-1.214 0-.27.069-.337.274-.337.342-.067.753-.067 1.095-.135.547-.067.752-.27.82-.809.138-.944.343-1.888.822-2.764.205-.472.137-.742-.274-1.08-.273-.269-.616-.471-.958-.741-.137-.135-.205-.27-.068-.472l.82-1.012c.138-.134.275-.134.411-.067.343.27.616.472.958.742.41.27.753.337 1.095 0a12.305 12.305 0 012.6-1.484c.41-.134.616-.472.547-.944-.068-.404-.068-.741-.136-1.146 0-.202.068-.337.273-.337.41-.068.821-.068 1.232-.135.205 0 .342.067.342.27.068.404.137.742.137 1.146.068.472.273.742.82.81.959.067 1.917.336 2.806.74.547.27.821.136 1.163-.269.206-.27.48-.54.684-.876.137-.135.206-.203.411-.068l1.026.81c.206.134.206.27.069.471-.206.337-.48.607-.753.944-.273.405-.342.675 0 1.08a8.236 8.236 0 011.437 2.494c.205.54.479.675 1.095.607.342-.067.684-.067 1.026-.135.205 0 .342.068.342.27.069.405.069.81.137 1.214.274.202.137.337-.068.337z" fill="#fff"/><path opacity=".51" d="M80.394 58.125c-.342-2.563-2.668-4.316-5.268-4.046-.89.135-1.642.404-2.258.877a4.826 4.826 0 00-1.916 4.45c.206 1.281.821 2.293 1.78 3.034a4.577 4.577 0 003.352.944h.137c.82-.135 1.642-.472 2.258-.944 1.436-1.011 2.19-2.63 1.915-4.315zm-4.31 3.776c-1.78.202-3.421-1.08-3.558-2.765-.205-1.753 1.095-3.304 2.805-3.574 1.78-.202 3.421 1.08 3.627 2.832.136 1.686-1.164 3.305-2.874 3.507z" fill="#fff"/><path d="M86.21 55.563c-.136-.742-.82-1.282-1.642-1.214-.273 0-.547 0-.752.067-.206.068-.274-.067-.343-.202-.342-.607-.684-1.146-.957-1.753-.069-.135-.137-.203 0-.337.205-.203.342-.472.478-.675.411-.607.343-1.483-.205-1.955-.479-.472-1.026-.877-1.573-1.281a1.564 1.564 0 00-1.78.067c-.273.202-.478.54-.752.81-.137.134-.205.134-.41.134-.411-.135-.822-.337-1.3-.404-.685-.068-1.027-.338-1.027-1.08v-.067c-.137-.809-.821-1.348-1.642-1.348-.616 0-1.3.134-1.916.202-.82.135-1.3.877-1.3 1.618 0 .27 0 .472.069.674.068.203-.069.27-.206.405-.615.337-1.163.607-1.71.944-.137.068-.274.135-.41 0-.206-.135-.343-.337-.548-.404-.753-.473-1.642-.405-2.19.27-.41.539-.752 1.01-1.094 1.483-.48.674-.342 1.483.205 2.09.205.202.41.337.616.54.137.134.137.202.068.337-.205.674-.41 1.28-.547 1.955a.53.53 0 01-.274.27c-.274.067-.547.067-.752.135-.822.202-1.369.876-1.3 1.685.068.607.136 1.214.205 1.754.137.741.82 1.28 1.573 1.28.274 0 .548-.067.89-.067.137 0 .274 0 .342.203l.821 1.416.205.404a.203.203 0 010 .27c-.137.202-.342.405-.479.607-.479.674-.342 1.55.274 2.09.479.405.958.81 1.437 1.147.684.472 1.574.337 2.19-.27.136-.135.273-.27.341-.472.137-.203.274-.27.548-.135.41.135.82.337 1.231.337.685.068 1.027.337.958 1.012v.067c.206.877.958 1.416 1.848 1.349.273 0 .479-.068.752-.068.274 0 .548-.067.89-.135.82-.135 1.437-.809 1.368-1.685 0-.27-.068-.472-.068-.742 0-.135 0-.27.205-.337.41-.203.821-.405 1.3-.675.205-.135.48-.404.684-.404.206 0 .48.27.684.472.753.54 1.643.472 2.258-.203.411-.472.822-.944 1.164-1.483.273-.404.342-.81.205-1.281 0-.068 0-.068-.069-.135-.205-.54-.615-.81-1.026-1.079-.068-.067-.137-.135-.137-.202 0-.068 0-.135.069-.203.137-.471.342-.876.41-1.348.069-.674.342-.877 1.027-.944.957-.068 1.505-.81 1.505-1.686-.205-.54-.274-1.214-.41-1.82zm-1.573 2.09c-.343.067-.753.067-1.095.135-.48.067-.753.27-.821.742a10.798 10.798 0 01-.821 2.899c0 .067-.069.067-.069.135-.136.337 0 .607.274.809.205.202.479.405.753.607.068.067.136.135.205.135.205.135.205.27.068.472-.273.337-.479.607-.752.944-.137.202-.274.202-.48.067-.273-.202-.615-.472-.889-.674-.41-.337-.752-.337-1.163 0a8.417 8.417 0 01-2.531 1.416c-.548.202-.685.472-.685 1.079 0 .337.069.674.137 1.011.069.27-.068.405-.342.405-.205 0-.342.067-.547.067-.206 0-.41 0-.616.068-.274.067-.41-.068-.41-.337-.07-.338-.07-.742-.137-1.08-.069-.471-.274-.741-.822-.808a10.066 10.066 0 01-2.873-.81c-.41-.202-.753-.135-1.095.27-.205.27-.479.54-.684.877-.137.202-.274.27-.48.067-.341-.27-.615-.54-.957-.742-.205-.135-.205-.27-.069-.472.274-.27.48-.606.685-.876.342-.405.342-.674.068-1.08-.342-.471-.684-.876-.89-1.415-.205-.337-.341-.742-.547-1.147-.137-.471-.479-.606-1.026-.606-.342.067-.753.067-1.163.135-.205 0-.342-.068-.342-.27-.069-.405-.069-.81-.137-1.214 0-.27.068-.337.274-.337.342 0 .752-.068 1.094-.135.548-.067.753-.27.821-.81.137-.943.343-1.887.821-2.764.206-.404.137-.741-.273-1.079-.274-.202-.616-.472-.958-.674-.205-.135-.205-.27-.069-.472l.822-1.011c.136-.203.273-.203.41-.068.274.27.616.472.958.742.41.27.752.337 1.095 0a12.31 12.31 0 012.6-1.484c.479-.134.615-.472.547-.944 0-.404-.068-.741-.137-1.146 0-.202.069-.27.274-.337.41-.067.82-.067 1.3-.135.205-.067.274.068.342.27.068.404.137.741.137 1.146.068.472.274.742.753.81.957.067 1.915.336 2.805.741.547.202.82.135 1.163-.337.205-.27.479-.54.684-.877.137-.202.274-.202.41-.067l1.027.809c.205.135.205.27.068.472-.205.337-.479.607-.752.944-.274.405-.342.674 0 1.079a8.234 8.234 0 011.437 2.495c.205.54.479.674 1.094.607.343-.068.685-.068 1.027-.135.205 0 .342.067.342.27.068.404.137.809.137 1.28.342.27.273.338 0 .338z" fill="#1D79DE"/><path d="M75.673 52.529a5.097 5.097 0 00-3.763 1.618c-.82.877-1.368 2.09-1.368 3.372 0 2.63 2.052 4.787 4.652 4.99h.48c2.805 0 5.131-2.226 5.131-5.058 0-2.697-2.258-4.922-5.132-4.922zm-.547 8.563c-1.779.203-3.421-1.078-3.558-2.764-.205-1.753 1.095-3.304 2.805-3.574 1.78-.202 3.421 1.079 3.627 2.832.136 1.686-1.095 3.304-2.874 3.507z" fill="#4BA7FA"/><path d="M79.437 57.316c-.343-2.562-2.669-4.316-5.269-4.046-.89.135-1.642.405-2.258.877a4.826 4.826 0 00-1.916 4.45c.206 1.281.822 2.293 1.78 3.035a4.577 4.577 0 003.352.944h.137c.82-.135 1.642-.472 2.258-.944 1.437-1.012 2.19-2.63 1.916-4.316zm-4.311 3.776c-1.779.203-3.421-1.079-3.558-2.764-.205-1.754 1.095-3.305 2.805-3.574 1.78-.203 3.421 1.079 3.627 2.832.136 1.686-1.095 3.304-2.874 3.506zM45.91 6.542l2.669.876-.548 1.618-2.053 6.137-1.505-.472-1.163-.405 2.6-7.754zm0-1.551c-.684 0-1.3.404-1.505 1.078l-2.669 7.688c-.136.404-.136.809.069 1.213.205.405.547.675.958.81l1.163.404 1.505.472c.137.068.342.068.48.068.273 0 .478-.068.683-.135.41-.203.685-.54.821-.877l2.053-6.136.547-1.618c.137-.405.137-.81-.068-1.214a1.704 1.704 0 00-.89-.81l-2.668-.876c-.137-.067-.342-.067-.479-.067z" fill="#1D79DE"/><path d="M46.252 22.252c-.137.54-.342 1.011-.547 1.618-1.505 3.776-4.38 8.16-4.38 8.16a22.987 22.987 0 01-4.583-.878l-.616-.202v-2.764s-1.437 1.078-2.395 1.82a19.407 19.407 0 01-5.268-3.506c-1.232-1.146-1.78-1.956-1.78-1.956 7.87 0 10.606-5.124 10.606-5.124.342-.068 8.963 2.832 8.963 2.832zM48.168 15.846l-.41 1.686-.685 2.427-7.39-2.09-1.641-.54 2.531-3.438 3.763.944 2.737.741 1.095.27zM48.579 7.416l-.548 1.619-2.12 6.136-1.506-.54-1.163-.337L45.91 6.54l2.669.876z" fill="#4BA7FA"/><path d="M46.252 22.252c-.137.54-.342 1.011-.547 1.618-1.505 3.776-4.38 8.16-4.38 8.16a22.987 22.987 0 01-4.583-.878l-.616-.202v-2.764s-1.437 1.078-2.395 1.82a19.407 19.407 0 01-5.268-3.506c-1.232-1.146-1.78-1.956-1.78-1.956 7.87 0 10.606-5.124 10.606-5.124.342-.068 8.963 2.832 8.963 2.832zM48.168 15.846l-.41 1.686-.685 2.427-7.39-2.09-1.641-.54 2.531-3.438 3.763.944 2.737.741 1.095.27zM48.579 7.416l-.548 1.619-2.12 6.136-1.506-.54-1.163-.337L45.91 6.54l2.669.876z" fill="#4BA7FA"/><path d="M45.705 23.87c-1.505 3.776-4.38 8.159-4.38 8.159a22.98 22.98 0 01-4.583-.877v-1.011s-.274.202-.616.472v-2.428s-1.437 1.08-2.395 1.82a19.41 19.41 0 01-5.268-3.505c6.979-.473 9.442-5.125 9.442-5.125.205 0 5.405 1.686 7.8 2.495zM47.758 17.33l-.685 2.63-8.005-2.293 1.505-2.158 7.184 1.82zM45.842 15.171l-1.78-.607 2.464-7.08 1.71.54-2.394 7.147z" fill="#fff"/><path opacity=".51" d="M71.842 75.252c-.616-.068-8.827-4.181-8.827-3.574 0 1.82.411 5.327 3.9 6.878 4.721 2.09 9.716.607 9.716.607s9.169 1.618 15.6.54c4.858-.877 4.037-2.294 4.037-2.294l.069-1.348-24.495-.81zM30.789 10.721c.137.675.274 1.282.342 1.956.069.337.205.674.137.944-.068.337-.205.674-.479.944h-.137a2.45 2.45 0 01-.479-.944c-.068-.337.069-.674.137-.944.069-.674.205-1.281.342-1.956h.137zM30.652 20.027c-.137-.674-.274-1.281-.342-1.955-.068-.337-.205-.675-.137-.944.069-.337.206-.675.48-.944h.136c.274.337.41.674.479.944.068.337-.068.674-.137.944-.068.674-.205 1.28-.342 1.955h-.137zM35.031 15.375c-.684.134-1.3.27-1.984.337-.342.067-.684.202-.958.135-.342-.068-.684-.203-.958-.472v-.135c.342-.27.684-.405.958-.472.342-.068.684.067.958.135.684.067 1.3.202 1.984.337v.135zM26.41 15.306c.684-.135 1.3-.27 1.984-.337.342-.067.684-.202.958-.135.342.068.684.203.958.472v.135c-.342.27-.684.405-.958.472-.342.068-.684-.067-.958-.135-.684-.067-1.3-.202-1.984-.337v-.135z" fill="#fff"/><path d="M30.447 10.318c.137.607.274 1.281.342 1.888.068.337.205.607.137.944-.069.337-.205.607-.48.944h-.136c-.274-.337-.41-.607-.479-.944-.068-.337.069-.607.137-.944.068-.607.205-1.281.342-1.888h.137zM30.31 19.286a18.25 18.25 0 01-.342-1.888c-.069-.337-.205-.607-.137-.944.069-.337.205-.607.479-.944h.137c.274.337.41.607.479.944.068.337-.069.607-.137.944a18.251 18.251 0 01-.342 1.888h-.137zM34.552 14.836c-.616.135-1.3.27-1.916.337-.342.067-.616.202-.958.135-.342-.068-.615-.203-.957-.472V14.7c.342-.27.615-.405.957-.472.342-.068.616.067.958.135.616.067 1.3.202 1.916.337v.135zM26.205 14.7c.616-.134 1.3-.269 1.916-.336.342-.068.615-.203.957-.135.343.067.616.202.958.472v.135c-.342.27-.616.404-.958.472-.342.067-.615-.068-.957-.135-.616-.068-1.3-.202-1.916-.337V14.7z" fill="#1D79DE"/><path opacity=".51" d="M52 55.63l-3.148 2.9a.752.752 0 01-1.026 0l-1.232-.945-1.437 1.281v9.238a.609.609 0 01-.615.607h-.821c-.342 0-.616-.27-.616-.54l-.548-6h-6.294c-.206 0-.41.067-.616.134l-4.31 2.09a.74.74 0 00-.411.675v3.034a.68.68 0 01-.684.675h-.821c-.343 0-.616-.27-.685-.54l-.684-4.99c0-.876.753-1.618 1.642-1.618h.342v-5.934l-1.847-1.82a1.047 1.047 0 010-1.484 1.085 1.085 0 011.505 0l1.985 1.956h10.4l3.626-3.574.753-.742 1.778-1.753.343.337c.547.54.547 1.349 0 1.888l3.352 3.304c.616.405.616 1.281.069 1.82z" fill="#fff"/><path d="M50.152 54.215l-1.573 1.55-.206.203-2.19-2.158-3.283 3.237v9.844h-1.985l-.547-5.124-.137-1.349h-6.568L28.6 62.846v4.18h-2.053l-.753-5.664c0-.877.753-1.618 1.642-1.618h.343V53.81l-1.848-1.82a1.047 1.047 0 010-1.484c.205-.203.479-.337.753-.337.273 0 .547.135.752.337l1.985 1.955h10.4l3.626-3.573.753-.742 1.778-1.753.343.337c.547.54.547 1.348 0 1.888l.342.337 3.49 3.439c.547.404.547 1.281 0 1.82z" fill="#4BA7FA"/><path d="M50.152 54.215l-1.573 1.55-.206.203-2.19-2.158-3.283 3.237v9.844h-1.985l-.547-5.124-.137-1.349h-6.568L28.6 62.846v4.18h-2.053l-.753-5.664c0-.877.753-1.618 1.642-1.618h.343V53.81l-1.848-1.82a1.047 1.047 0 010-1.484c.205-.203.479-.337.753-.337.273 0 .547.135.752.337l1.985 1.955h10.4l3.626-3.573.753-.742 1.778-1.753.343.337c.068.067.137.135.205.27.342.471.274 1.146-.205 1.618l.342.337 3.49 3.439c.547.404.547 1.281 0 1.82z" fill="#4BA7FA"/><path opacity=".51" d="M74.51 20.027c1.965 0 3.558-1.57 3.558-3.506 0-1.937-1.593-3.507-3.558-3.507-1.965 0-3.558 1.57-3.558 3.507 0 1.936 1.593 3.506 3.558 3.506zM74.51 12.949c1.172 0 2.121-.936 2.121-2.09 0-1.155-.95-2.09-2.12-2.09-1.172 0-2.122.935-2.122 2.09 0 1.154.95 2.09 2.121 2.09zM74.51 20.028c-2.805 0-5.063 2.226-5.063 4.99 0 2.158 1.437 4.046 3.421 4.72v2.158c0 .472.342.81.821.81.48 0 .821-.338.821-.81v-1.888h.069c2.805 0 5.063-2.225 5.063-4.99s-2.326-4.99-5.132-4.99z" fill="#fff"/><path d="M72.39 32.704c-.411 0-.822-.337-.822-.809V21.781c0-.405.342-.81.821-.81.41 0 .821.337.821.81v10.181c-.068.405-.41.742-.82.742z" fill="#1D79DE"/><path d="M75.947 14.97c0 1.956-1.642 3.507-3.626 3.507-.274 0-.616-.067-.89-.135-1.573-.404-2.668-1.753-2.668-3.438 0-1.956 1.574-3.507 3.558-3.507h.068c1.163 0 2.121.54 2.806 1.416.068.068.136.135.136.27.41.607.616 1.214.616 1.888z" fill="#4BA7FA"/><path d="M74.51 9.373c0 1.147-.89 2.09-2.052 2.09h-.069c-1.163 0-2.12-.943-2.12-2.09 0-1.146.957-2.09 2.12-2.09.958 0 1.78.674 2.053 1.551 0 .135.068.337.068.54zM77.452 23.535c0 2.764-2.258 4.99-5.063 4.99-.616 0-1.231-.135-1.847-.338-1.916-.742-3.284-2.562-3.284-4.652a4.972 4.972 0 014.31-4.923c.274-.067.48-.067.753-.067 1.3 0 2.531.472 3.42 1.28.206.136.411.338.548.54.684.877 1.163 1.956 1.163 3.17z" fill="#4BA7FA"/><path d="M75.947 14.97c0 1.956-1.642 3.507-3.626 3.507-.274 0-.616-.067-.89-.135-1.573-.404-2.668-1.753-2.668-3.438 0-1.956 1.574-3.507 3.558-3.507h.068c1.163 0 2.121.54 2.806 1.416.068.068.136.135.136.27.41.607.616 1.214.616 1.888z" fill="#4BA7FA"/><path d="M74.51 9.373c0 1.147-.89 2.09-2.052 2.09h-.069c-1.163 0-2.12-.943-2.12-2.09 0-1.146.957-2.09 2.12-2.09.958 0 1.78.674 2.053 1.551 0 .135.068.337.068.54zM77.452 23.535c0 2.764-2.258 4.99-5.063 4.99-.616 0-1.231-.135-1.847-.338a5.091 5.091 0 01-1.095-3.169c0-2.765 2.258-4.99 5.063-4.99.616 0 1.232.135 1.848.338.615.876 1.094 1.955 1.094 3.169z" fill="#4BA7FA"/><path d="M75.947 14.635c0 2.157-1.779 3.843-3.968 3.843-.343 0-.685-.067-.958-.135-.41-.607-.616-1.28-.616-2.09 0-2.158 1.779-3.844 3.9-3.844.342 0 .684.068.958.135.479.675.684 1.349.684 2.09zM71.773 11.465c-.068-.27-.136-.472-.136-.742 0-1.484 1.231-2.765 2.736-2.765.069.27.137.472.137.742 0 1.484-1.231 2.697-2.737 2.765z" fill="#fff"/><path d="M81.147 16.86c-.137 0-.342-.068-.479-.135a.833.833 0 01-.205-1.079l4.174-5.732a.862.862 0 011.094-.202c.342.27.41.742.206 1.08l-4.174 5.73a.721.721 0 01-.616.338z" fill="#1D79DE"/><path d="M79.026 13.42c-.41 0-.753-.27-.821-.674-.068-.404.274-.809.684-.876l7.116-.877c.41-.067.821.27.89.674.068.405-.274.81-.685.877l-7.115.877h-.069z" fill="#1D79DE"/><path d="M87.305 15.242c-.479 0-.958-.135-1.369-.473-.478-.337-.752-.876-.82-1.483l-.206-1.416c-.068-.405.274-.81.684-.877l2.806-.337c.41-.067.82.27.89.675l.204 1.416c.137 1.213-.684 2.292-1.915 2.427-.137.068-.206.068-.274.068zm-.753-2.698l.069.607c0 .135.137.337.205.405.137.067.274.135.479.135.342-.068.616-.338.547-.675l-.068-.607-1.232.135z" fill="#1D79DE"/><path d="M85.047 11.465c-.137 0-.342-.067-.479-.135l-1.163-.809a2.086 2.086 0 01-.479-3.034c.342-.472.89-.81 1.437-.877.616-.067 1.163.067 1.642.405l1.163.809c.205.135.274.337.342.54 0 .201 0 .404-.137.606l-1.642 2.293c-.205.135-.41.202-.684.202zm-.342-3.304h-.069c-.136 0-.342.135-.41.27-.068.134-.137.27-.137.472 0 .134.137.337.274.404l.479.337.752-1.011-.478-.337c-.137-.135-.274-.135-.411-.135z" fill="#1D79DE"/><path d="M77.452 23.535c0 2.764-2.258 4.99-5.063 4.99-.616 0-1.231-.135-1.847-.338-1.916-.742-3.284-2.562-3.284-4.652a4.972 4.972 0 014.31-4.923c.274-.067.48-.067.753-.067 1.3 0 2.531.472 3.42 1.28.206.136.411.338.548.54.684.877 1.163 1.956 1.163 3.17z" fill="#4BA7FA"/><path d="M76.837 22.995c0 2.9-2.395 5.192-5.269 5.192-.479 0-.89-.068-1.3-.135-.547-.81-.752-1.753-.82-2.765-.343-3.371 2.12-5.529 5.268-5.192.479.068.889.068 1.3.202.478.742.82 1.686.82 2.698z" fill="#fff"/><path d="M72.32 29.333a5.648 5.648 0 01-2.12-.405c-2.258-.876-3.764-3.034-3.764-5.394 0-2.832 2.121-5.327 4.995-5.732.274-.067.548-.067.89-.067 1.436 0 2.873.54 3.968 1.483.205.203.41.405.616.675l.068.067c.821 1.011 1.232 2.225 1.232 3.574 0 3.17-2.6 5.799-5.884 5.799zm0-9.98c-.273 0-.41 0-.615.068-2.121.337-3.626 2.09-3.626 4.18a4.168 4.168 0 002.736 3.911c.48.203 1.027.27 1.506.27 2.326 0 4.242-1.888 4.242-4.18 0-.945-.342-1.889-.958-2.63 0 0 0-.068-.069-.068l-.41-.404c-.684-.81-1.71-1.147-2.805-1.147z" fill="#1D79DE"/><path d="M72.32 19.353c-.341 0-.752-.067-1.094-.135-1.916-.471-3.284-2.225-3.284-4.18 0-2.36 1.984-4.316 4.379-4.316h.068c1.369 0 2.6.675 3.421 1.686.069.135.137.202.206.337.41.607.684 1.416.684 2.293.068 2.36-1.916 4.315-4.38 4.315zm.07-7.08c-1.575 0-2.874 1.214-2.874 2.765 0 1.281.889 2.36 2.12 2.63.206.067.48.067.685.067 1.573 0 2.805-1.214 2.805-2.765 0-.539-.137-1.011-.41-1.483-.069-.068-.069-.135-.137-.202-.548-.607-1.3-1.012-2.19-1.012z" fill="#1D79DE"/><path d="M72.32 12.274c-1.641 0-2.941-1.282-2.941-2.9 0-1.618 1.3-2.9 2.942-2.9 1.3 0 2.463.877 2.805 2.09.068.203.137.473.137.81 0 1.55-1.232 2.832-2.806 2.9h-.136zm0-4.249c-.752 0-1.3.607-1.3 1.282 0 .741.616 1.348 1.3 1.348h.07c.683 0 1.23-.607 1.23-1.348 0-.135 0-.27-.068-.338-.068-.539-.616-.944-1.231-.944z" fill="#1D79DE"/><path d="M75.947 74.174s-5.063-3.844-6.774-4.316c-1.642-.472-1.3.607-.82.944.41.337 1.505 1.686.547 1.416-.89-.27-4.79-1.955-4.79-1.955s-.684.337.069 2.023c.82 1.618 1.436 4.315 5.884 5.057 4.447.742 6.295-.202 6.295-.202l-.41-2.967z" fill="#fff"/><path d="M76.084 73.432c-1.026-1.012-2.19-1.956-3.49-2.697-.615-.405-1.3-.742-1.984-1.08-.547-.269-1.163-.606-1.779-.674-.89-.134-2.12.135-1.916 1.282.137.606.548 1.011.958 1.416.48.54.958 1.011 1.574 1.416.068-.337.068-.742.137-1.08-.958.338-1.847-.269-2.737-.606-1.026-.405-1.984-1.012-2.874-1.55-.41-.27-.89.067-.89.538-.136 3.102 1.985 5.732 4.79 6.946 2.942 1.281 6.364 1.214 9.306-.068.684-.27.068-1.28-.616-1.011-2.532 1.079-5.542 1.146-8.074.067-2.395-1.011-4.31-3.236-4.242-5.934-.274.203-.616.338-.89.54 1.095.674 2.19 1.281 3.422 1.753 1.094.405 1.984.877 3.147.54.479-.135.616-.81.137-1.08-.41-.269-.753-.606-1.095-.943-.137-.203-.342-.337-.479-.54-.137-.202-.205-.337-.342-.54-.137.136-.137.203 0 .136h.137c.205 0 .342 0 .547.067.48.135.89.337 1.3.54 1.916.944 3.558 2.157 5.063 3.573.616.338 1.437-.472.89-1.011z" fill="#1D79DE"/><path d="M68.079 73.567a2.665 2.665 0 00-.616 1.416c-.069.54 0 1.011 0 1.483 0 .135.068.27.205.405.137.135.274.202.41.202.274 0 .616-.27.616-.607-.068-.472-.068-.876-.068-1.348 0-.135 0 .067 0 0v-.135c0-.068.068-.203.068-.27s0-.067.069-.135c0 .067-.069.067 0 0 0 0 0-.067.068-.067 0-.068.069-.068.069-.135 0 0 .136-.203 0-.068.068-.135.205-.27.205-.404 0-.135-.069-.337-.205-.405-.206-.135-.616-.202-.821.068zM37.357 19.42c.48 0 8.964 2.832 8.964 2.832-.137.54-.343 1.011-.548 1.618-1.505 3.776-4.379 8.16-4.379 8.16a22.987 22.987 0 01-4.584-.877l-.616-.203v-2.764s-1.437 1.079-2.395 1.82a19.409 19.409 0 01-5.268-3.506c-1.232-1.146-1.779-1.956-1.779-1.956 7.8 0 10.537-5.124 10.605-5.124-.068 0-.068 0 0 0zm0-1.619c-.136 0-.273 0-.342.068-.479.067-.82.404-1.094.809-.069.135-2.464 4.316-9.237 4.316-.616 0-1.164.337-1.437.809-.274.54-.274 1.146.068 1.618.069.067.684 1.012 1.984 2.225 1.095 1.012 3.011 2.495 5.68 3.776.205.068.478.135.684.135.273 0 .616-.067.82-.27.138.54.548.944 1.027 1.147l.616.202c1.574.472 3.216.742 4.926.944h.137c.547 0 1.026-.27 1.368-.742.137-.202 2.943-4.518 4.516-8.428.274-.607.48-1.214.616-1.754.274-.809-.205-1.685-1.026-1.955-8.621-2.9-9.032-2.9-9.306-2.9z" fill="#1D79DE"/><path d="M40.573 13.891l3.763.944 2.737.674 1.095.27-.41 1.753-.616 2.428-7.458-2.09-1.71-.473 2.6-3.506zm0-1.55a1.57 1.57 0 00-1.3.674l-2.531 3.438c-.274.405-.41.945-.206 1.416.137.473.548.877 1.027 1.012l1.71.472 7.39 2.158c.137.067.273.067.479.067.273 0 .547-.067.82-.202.411-.202.616-.54.753-.944l.616-2.428.48-1.753c.136-.404.068-.809-.206-1.214a1.766 1.766 0 00-.958-.741l-1.095-.27-2.737-.674-3.831-.944c-.137-.068-.274-.068-.41-.068z" fill="#1D79DE"/><path d="M50.426 54.483l-1.574 1.551-.273.203-2.19-2.158-3.284 3.236v9.845H41.12l-.48-5.124-.136-1.349h-6.569l-5.063 2.428v4.18h-1.095l-.615-5.664 1.779-1.011v-7.08h11.7l6.226-6.34c.342.473.274 1.147-.205 1.62l.342.336 3.49 3.44c.41.471.41 1.348-.07 1.887z" fill="#fff"/><path d="M39.9 51.531l-1.207.995 4.39 5.172 1.207-.995-4.39-5.172z" fill="#1D79DE"/><path d="M46.047 46.392l.342.338c.547.54.547 1.348 0 1.888l.342.337 3.49 3.439c.547.54.547 1.348 0 1.888l-1.642 1.483-.206.203-2.19-2.158-3.283 3.236v9.845h-1.985l-.547-5.124-.137-1.349h-6.568L28.6 62.846v4.18h-2.053l-.753-5.664c0-.877.753-1.618 1.642-1.618h.342V53.81l-1.847-1.82a1.047 1.047 0 010-1.484c.205-.203.479-.337.753-.337.273 0 .547.135.752.337l1.985 1.955h10.4l3.626-3.574.753-.741 1.847-1.754zm0-1.618c-.41 0-.821.135-1.163.472l-1.78 1.82-.752.742-3.216 3.17h-9.1l-1.505-1.484a2.46 2.46 0 00-1.847-.809c-.684 0-1.369.27-1.848.742a2.586 2.586 0 00-.752 1.82c0 .675.273 1.35.752 1.821l1.369 1.349v3.978a3.192 3.192 0 00-1.984 2.967v.202l.752 5.53c.137.809.753 1.348 1.574 1.348h2.052c.89 0 1.574-.674 1.574-1.55v-3.17l3.832-1.82h4.79l.478 5.124c.069.81.753 1.416 1.574 1.416h1.984c.89 0 1.574-.674 1.574-1.55V57.72l1.71-1.686 1.027 1.012c.342.337.752.472 1.094.472.41 0 .822-.135 1.095-.472l.205-.203 1.78-1.55a2.86 2.86 0 000-4.114l-3.011-2.967c.205-.944-.069-1.888-.753-2.63l-.342-.337c-.342-.27-.752-.472-1.163-.472z" fill="#1D79DE"/><path opacity=".51" d="M115.495 62.306l-7.048 12.475.479-6.338 6.569-6.136z" fill="#fff"/><path d="M140.742 61.43c3.832 9.374-6.979 10.452-13 7.418-6.021-2.967-7.184-16.723-9.784-20.634-2.463-3.776-10.332.472-10.332-8.968v-.876c0-.337.069-.675.069-.944.273-3.44 1.163-6.07 2.326-8.092.068-.067.068-.135.137-.202 1.368-2.226 3.147-3.642 4.858-4.383 2.394-1.012 3.968.337 4.858.135 3.215-.742 5.063-.068 6.363 1.483 0 .067.068.067.068.135l.137.135c.069.135.137.202.205.337 0 .067.069.067.069.135 1.095 1.82 1.573 4.45 2.121 7.35.068.27.137.54.205.741.069.337.205.675.342.944v.068a8.829 8.829 0 001.642 2.495c2.669 2.9 7.116 4.518 10.811 8.63.274.27.547.608.821.945.684.809 1.095 1.618 1.437 2.427 2.258 5.8-3.353 10.722-3.353 10.722z" fill="#EBC642"/><path d="M116.795 24.477c1.231 0 2.189.54 2.873.54h.206c.889-.203 1.71-.337 2.394-.337 1.779 0 3.079.674 3.969 1.82 0 .068.068.068.068.135l.137.135c.068.135.137.202.205.337 0 .067.069.067.069.135 1.094 1.82 1.573 4.45 2.121 7.35.068.27.137.54.205.742.068.337.205.674.342.944v.067a8.829 8.829 0 001.642 2.495c2.669 2.9 7.116 4.518 10.811 8.631.274.27.547.607.821.944.684.81 1.095 1.618 1.437 2.428 2.189 5.664-3.421 10.586-3.421 10.586 2.6 6.406-1.574 8.9-6.432 8.9-2.258 0-4.653-.538-6.568-1.483-6.021-2.967-7.185-16.722-9.785-20.633-2.463-3.776-10.331.472-10.331-8.968v-.877c0-.337.068-.674.068-.944.274-3.439 1.163-6.069 2.326-8.092.069-.067.069-.135.137-.202 1.369-2.225 3.148-3.641 4.858-4.383.753-.202 1.3-.27 1.848-.27zm0-1.213a5.43 5.43 0 00-2.258.472c-1.506.674-3.695 2.023-5.406 4.787a.51.51 0 00-.136.27c-1.369 2.293-2.19 5.192-2.464 8.563 0 .338-.068.675-.068 1.012v.944c0 6.878 4.037 7.552 6.979 8.092 1.574.27 2.874.472 3.558 1.483.753 1.214 1.505 3.709 2.258 6.406 1.573 5.53 3.558 12.475 7.937 14.632 2.052 1.012 4.652 1.619 7.115 1.619 3.422 0 6.09-1.08 7.458-3.102.821-1.214 1.574-3.372.411-6.676 1.505-1.55 5.2-6.069 3.147-11.328a8.948 8.948 0 00-1.642-2.765c-.342-.404-.616-.741-.889-1.011-2.121-2.36-4.516-3.911-6.569-5.327-1.71-1.146-3.147-2.09-4.242-3.304l-.137-.135c-.547-.607-.958-1.214-1.231-1.888l-.069-.202c-.137-.27-.205-.54-.273-.81-.069-.202-.137-.404-.137-.674-.548-2.967-1.095-5.799-2.327-7.754 0-.068-.068-.135-.068-.135-.068-.135-.205-.27-.274-.405-.068-.067-.068-.135-.136-.135 0-.067-.069-.067-.069-.134-1.163-1.484-2.805-2.226-4.858-2.226-.821 0-1.71.135-2.668.337-.137 0-.411-.067-.616-.134-.684-.27-1.437-.473-2.326-.473z" fill="#1D79DE"/><path d="M138.758 61.295c2.6 4.518-2.326-1.079-6.911-1.82-1.915-.338-3.558 7.08-4.926 5.461-3.49-4.248-4.584-15.24-7.047-19.083-2.19-3.371-10.674-.135-12.248-6.473-.068-.337-.137-.674-.205-1.079.274-3.843 1.3-6.743 2.6-8.9.068-.068.068-.136.137-.203 1.368-2.158 3.079-3.506 4.789-4.248 2.395-1.079 4.037.337 4.995.135 3.216-.81 5.132-.135 6.432 1.416.068.067.068.067.068.135.068.202.205.337.342.472 0 .067.069.067.069.135 1.163 1.888 1.71 4.72 2.257 7.889l.206.81c0 .066.068.201.068.269v.067a5.731 5.731 0 001.642 2.495c2.669 2.9 7.116 4.518 10.811 8.631.274.27.547.607.821.944.684.81 1.095 1.619 1.437 2.428-1.095 5.327-5.337 10.519-5.337 10.519z" fill="#FFD86C"/><path d="M135.953 103.37h-27.985c-.136-.876-.205-1.753-.342-2.629-.547-4.316.274-9.508 1.163-13.419.753-3.304 1.506-5.597 1.506-5.597s13 3.44 16.147 3.642c.411 0 .89.202 1.369.472a7.253 7.253 0 011.642 1.348c.889.877 1.71 1.956 2.463 3.17 1.574 2.494 2.874 5.529 3.216 8.024.136 1.011.41 2.832.821 4.989z" fill="#4BA7FA"/><path d="M136.637 103.91h-29.216l-.205-1.686a80.973 80.973 0 01-.206-1.483c-.547-4.45.343-9.845 1.164-13.621.752-3.237 1.505-5.597 1.505-5.664l.205-.54.548.135c.136.068 13 3.44 16.01 3.641a4.665 4.665 0 011.642.54c.548.337 1.163.81 1.779 1.416.89.877 1.779 2.023 2.6 3.304 1.779 2.765 3.011 5.799 3.284 8.294.137 1.146.479 3.237.821 4.922l.069.742zm-28.19-1.146H135.2c-.342-2.158-.616-3.44-.684-4.248-.274-2.293-1.437-5.192-3.148-7.822-.752-1.214-1.642-2.293-2.394-3.102a7.662 7.662 0 00-1.574-1.214c-.411-.27-.753-.404-1.095-.404-2.873-.203-13.137-2.9-15.737-3.507a53.844 53.844 0 00-1.3 4.99c-.821 3.641-1.71 8.9-1.163 13.216l.205 1.416.137.675z" fill="#1D79DE"/><path d="M120.626 44.774s.958 4.518 4.653 4.653c3.695.135 8.347.472 11.563 4.248 3.216 3.776 4.926 6.676 4.926 6.676l-1.915 1.618-17.243-8.699c.137-.067-5.679-2.63-1.984-8.496z" fill="#EBC642"/><path opacity=".51" d="M135.61 100.741h-27.984v2.629h27.984v-2.629z" fill="#fff"/><path opacity=".51" d="M108.653 90.087s13.136 2.9 20.115-2.698l-2.942 7.283-3.216 6.743s1.711.337 2.806-1.416c1.094-1.753 2.463-3.506 4.242-4.383 2.121-1.011 3.147-3.574 3.147-3.574s-3.079-5.866-5.131-6.136c-2.053-.27-18.679 1.281-18.679 1.281l-.342 2.9z" fill="#fff"/><path d="M136.637 103.91h-29.216l-.205-1.686a80.973 80.973 0 01-.206-1.483c-.547-4.45.343-9.845 1.164-13.621.752-3.237 1.505-5.597 1.505-5.664l.205-.54.548.135c.136.068 13 3.44 16.01 3.641a4.665 4.665 0 011.642.54c.548.337 1.163.81 1.779 1.416.89.877 1.779 2.023 2.6 3.304 1.779 2.765 3.011 5.799 3.284 8.294.137 1.146.479 3.237.821 4.922l.069.742zm-28.19-1.146H135.2c-.342-2.158-.616-3.44-.684-4.248-.274-2.293-1.437-5.192-3.148-7.822-.752-1.214-1.642-2.293-2.394-3.102a7.662 7.662 0 00-1.574-1.214c-.411-.27-.753-.404-1.095-.404-2.873-.203-13.137-2.9-15.737-3.507a53.844 53.844 0 00-1.3 4.99c-.821 3.641-1.71 8.9-1.163 13.216l.205 1.416.137.675z" fill="#1D79DE"/><path d="M97.158 75.252c-.41.337-.821.674-1.232.944-3.216 2.09-7.458 2.158-11.153 1.956-5.2-.27-7.868-.675-8.073-1.619l-.342-1.955c-.137-.607.273-1.147.89-1.282l10.604-1.753a10.486 10.486 0 008.006-6.406c1.436-3.64 3.079-7.687 5.747-10.519 4.995-5.327 12.453-5.934 19.432-5.664 3.284.135 5.747.607 8.826 1.888 5.132 2.158 10.948 8.362 12.863 13.284 4.037 10.182-1.847 17.87-9.031 24.747-.479.404-1.163.404-1.574-.068l-1.505-1.618c-.479-.472 3.079-5.057 3.352-5.53 2.121-2.696 4.379-5.191 4.379-8.9 0-2.9-1.231-5.597-3.215-7.687-.89-.944-1.916-1.686-3.079-2.293-.069-.067-.206-.067-.274-.134-.958-.473-2.121.202-2.19 1.28l-.821 7.553c-.41 3.709-.273 7.417.342 11.058l.411 2.226c.068.404-.068.809-.411 1.011-1.778 1.416-8.279 5.53-19.705 1.618-.547-.202-.889-.809-.684-1.348.41-1.349 1.095-3.507 1.163-3.776.479-1.82.821-3.709.958-5.597.342-4.788-.684-9.44-2.463-13.89-.137-.405-.342-.81-.479-1.214-.274-.607-.821-.944-1.437-.405-.274.202-.479.54-.616.81-.752 1.348-1.368 2.764-2.258 4.045-1.779 2.562-2.873 5.057-4.926 7.417-.41.742-.958 1.282-1.505 1.821z" fill="#4BA7FA"/><path d="M132.942 89.817c-.547 0-.958-.202-1.3-.54l-1.505-1.618c-.274-.27-.821-.877 3.353-6.271l.615-.742c1.916-2.36 3.695-4.652 3.695-7.754 0-2.563-1.095-5.26-3.079-7.283-.821-.876-1.847-1.618-2.942-2.225-.068-.067-.137-.067-.274-.135a1.027 1.027 0 00-.889 0c-.274.135-.411.405-.479.742l-.821 7.62c-.411 3.64-.274 7.282.342 10.923l.41 2.225c.137.607-.136 1.214-.615 1.619-1.779 1.416-8.553 5.731-20.253 1.753a1.573 1.573 0 01-1.026-2.09c.41-1.349 1.094-3.507 1.163-3.709.479-1.888.821-3.776.958-5.53.342-4.247-.479-8.698-2.395-13.62-.137-.405-.342-.81-.479-1.214-.068-.202-.205-.27-.274-.337-.068 0-.137 0-.273.135-.206.135-.342.404-.479.674-.206.337-.411.742-.616 1.079-.547 1.011-1.095 2.023-1.711 2.967-.684 1.011-1.3 2.023-1.915 2.967-.89 1.483-1.848 3.034-3.08 4.45-.478.54-1.026 1.147-1.641 1.686-.48.405-.89.742-1.3 1.011-3.285 2.158-7.664 2.226-11.495 2.023-6.98-.337-8.416-1.011-8.621-2.09l-.343-1.956c-.068-.471 0-.876.274-1.28.274-.405.684-.608 1.095-.675l10.605-1.753c3.421-.54 6.295-2.9 7.595-6.001l.068-.27c1.437-3.574 3.08-7.62 5.748-10.52 5.337-5.73 13.41-6.135 19.842-5.798 3.626.135 6.089.674 9.032 1.955 5.131 2.158 11.152 8.429 13.205 13.621 4.174 10.587-1.916 18.476-9.169 25.354-.136.405-.547.607-1.026.607zm-1.71-2.832l1.368 1.483c.068.135.205.135.342.135a.525.525 0 00.342-.135c6.911-6.608 12.795-14.16 8.895-24.072-1.916-4.923-7.732-10.857-12.59-12.947-2.805-1.214-5.131-1.686-8.621-1.888-6.226-.27-13.958.067-18.952 5.462-2.532 2.697-4.106 6.675-5.542 10.114l-.069.27c-1.437 3.506-4.653 6.136-8.484 6.743l-10.605 1.753a.377.377 0 00-.343.203c-.068.134-.136.27-.068.404l.342 1.956c.137.202 1.163.809 7.458 1.146 3.626.202 7.8.067 10.81-1.888.411-.27.753-.54 1.164-.944.547-.54 1.095-1.079 1.573-1.618 1.232-1.35 2.053-2.765 2.943-4.316.615-1.011 1.231-2.023 1.984-3.102.616-.876 1.163-1.888 1.642-2.832.205-.404.411-.742.616-1.146.205-.337.41-.742.752-1.012.411-.337.89-.472 1.3-.337.479.135.821.472 1.095 1.012.137.404.342.809.479 1.213 1.984 5.058 2.805 9.71 2.463 14.093a29.805 29.805 0 01-1.026 5.732c-.068.27-.753 2.495-1.163 3.776-.069.27.068.54.273.607 11.153 3.776 17.448-.202 19.158-1.551a.608.608 0 00.206-.472l-.411-2.225c-.684-3.709-.752-7.485-.342-11.261l.821-7.552c0-.675.411-1.282 1.026-1.686.616-.337 1.369-.405 2.053-.068.137.068.205.135.274.135 1.231.675 2.258 1.484 3.216 2.428 2.189 2.293 3.421 5.192 3.421 8.091 0 3.574-1.985 6.07-3.969 8.497l-.547.741c-1.026 1.484-3.011 4.249-3.284 5.058z" fill="#1D79DE"/><path d="M130.616 86.918l-2.874 2.697s-5.679 2.023-5.61 3.978c.068 1.888-.685 6.474.547 7.283 1.231.809 3.147-5.53 4.447-6.136 1.3-.607 4.311-1.821 4.585-3.574.273-1.753 1.163-1.956 1.163-1.956l-2.258-2.292z" fill="#fff"/><path d="M122.953 101.482c-.206 0-.411-.068-.548-.135-1.095-.674-1.026-2.832-.889-5.731.068-.81.068-1.551.068-2.023-.068-2.158 4.584-4.046 5.884-4.518l2.806-2.63c.205-.202.615-.202.821 0l2.258 2.293c.136.134.205.404.136.606-.068.203-.273.338-.479.405 0 0-.479.202-.684 1.416-.342 1.82-2.805 3.034-4.379 3.776-.205.068-.342.202-.547.27-.411.202-1.163 1.753-1.711 2.764-1.026 2.023-1.71 3.305-2.531 3.507h-.205zm7.663-13.756l-2.463 2.293c-.069.067-.137.067-.206.135-2.531.944-5.2 2.495-5.2 3.371 0 .54 0 1.349-.068 2.158-.069 1.348-.205 4.046.274 4.585.41-.337 1.231-1.888 1.71-2.832.89-1.82 1.505-2.9 2.19-3.237.136-.067.342-.134.547-.27 1.231-.606 3.489-1.685 3.763-2.899.137-.944.479-1.55.821-1.888l-1.368-1.416z" fill="#1D79DE"/><path d="M122.816 40.39c-1.711 2.832-3.49 4.316-5.884 4.383-1.232 0-4.79-4.113-4.243-8.361.479-3.709 2.053-6.204 4.585-6.743.41-.068 1.368.607 1.779.607.615.067 1.3-.607 1.779-.338 1.436.742 2.052 2.023 2.257 4.45l.069.742s2.531-.067 2.326 1.821c-.205 1.888-2.6 3.237-2.6 3.237l-.068.202z" fill="#fff"/><path d="M116.863 45.38c-.821 0-1.779-.876-2.258-1.416-1.437-1.618-3.01-4.585-2.6-7.62.547-4.045 2.395-6.675 5.063-7.214.411-.068.89.135 1.437.404.205.068.479.203.548.27.136 0 .342-.067.547-.135.41-.135.889-.404 1.368-.135 1.574.81 2.327 2.226 2.6 4.923v.27c.548.067 1.369.27 1.848.809.41.404.547 1.011.479 1.618-.206 1.888-2.053 3.17-2.669 3.574 0 0 0 .067-.068.067-1.779 3.102-3.763 4.518-6.295 4.585zm.479-15.171c-2.121.404-3.626 2.697-4.037 6.203-.342 2.563.958 5.192 2.19 6.608.752.877 1.3 1.147 1.436 1.147 2.053 0 3.627-1.214 5.337-4.046l.069-.135a.531.531 0 01.273-.27s2.121-1.146 2.258-2.764c.069-.405-.068-.607-.205-.742-.41-.405-1.232-.472-1.574-.472-.342 0-.615-.27-.615-.54l-.069-.741c-.205-2.293-.752-3.372-1.916-3.979 0 0-.205.068-.342.135-.342.135-.752.337-1.163.27-.274-.067-.616-.202-.958-.337-.205-.135-.616-.337-.684-.337z" fill="#1D79DE"/><path d="M120.01 44.031s-1.368 3.844-.068 4.922c1.3 1.08-4.653 3.17-5.2.54 0 0 .821-3.439.342-5.462.068 0 2.395 2.293 4.926 0z" fill="#fff"/><path d="M116.795 51.382h-.479c-1.164-.135-1.985-.742-2.19-1.754v-.27s.753-3.303.342-5.191c-.068-.27.069-.54.274-.607.205-.135.547-.068.684.134.205.203 1.984 1.821 4.037 0 .205-.202.479-.202.753-.067.205.135.342.405.205.674-.479 1.416-.89 3.776-.274 4.316.342.337.479.742.274 1.214-.205.876-2.121 1.55-3.626 1.55zm-1.437-1.889c.068.203.273.607 1.094.675 1.232.135 2.669-.472 3.011-.81-.889-.876-.753-2.63-.479-3.978-1.163.472-2.326.27-3.147-.135.068 1.754-.342 3.71-.479 4.248zM141.974 103.909H.82c-.41 0-.82-.337-.82-.809 0-.472.341-.809.82-.809h141.154c.41 0 .821.337.821.809 0 .472-.411.809-.821.809zM155.179 103.909h-8.074c-.41 0-.821-.337-.821-.809 0-.472.342-.809.821-.809h8.074c.41 0 .821.337.821.809 0 .472-.342.809-.821.809z" fill="#1D79DE"/><path opacity=".51" d="M127.058 68.508l-8.142.068a1.363 1.363 0 01-1.369-1.349V63.52c0-.742.616-1.349 1.369-1.349l8.142-.067c.753 0 1.368.606 1.368 1.348v3.709c0 .742-.615 1.349-1.368 1.349z" fill="#fff"/><path d="M126.168 67.362l-7.389.067c-.753 0-1.3-.54-1.3-1.28v-3.844c0-.742.547-1.282 1.3-1.282l7.389-.067c.753 0 1.3.54 1.3 1.281v3.844c0 .674-.615 1.28-1.3 1.28z" fill="#59E659"/><path d="M118.779 67.767c-.958 0-1.711-.742-1.711-1.686v-3.844c0-.472.205-.876.479-1.213.342-.337.753-.472 1.232-.472l7.389-.068c.479 0 .89.203 1.232.472.342.337.479.742.479 1.214v3.843c0 .945-.753 1.686-1.711 1.686l-7.389.068zm7.321-6.406l-7.39.067c-.273 0-.479.068-.615.27-.137.202-.274.405-.274.607v3.843c0 .472.41.877.889.877l7.39-.067a.899.899 0 00.889-.877v-3.844c0-.27-.068-.472-.273-.606a.873.873 0 00-.616-.27z" fill="#fff"/><path d="M127.742 62.103h-10.263v.809h10.263v-.81zM123.295 64.462h-3.148c-.205 0-.41-.202-.41-.404 0-.203.205-.405.41-.405h3.148c.205 0 .41.203.41.405-.068.27-.205.404-.41.404zM125.347 66.08h-5.2c-.205 0-.41-.202-.41-.404s.205-.404.41-.404h5.2c.206 0 .411.202.411.404s-.205.405-.411.405z" fill="#fff"/></svg>