<svg width="170" height="102" fill="none" xmlns="http://www.w3.org/2000/svg"><path d="M36 94.79V83c3.016-.158 9.143 3.642 9.524 3.263.38-.379 6.825-3 10-4.263L56 87.684v8.526l-.952 1.895L52.19 100H46l-6.667-.474-.476-.473-1.428-.948L36 94.79z" fill="#000" stroke="#000"/><path d="M50.857 101.305H40.569a6.013 6.013 0 01-6.005-6.005V75.734a.83.83 0 01.829-.83h20.635a.83.83 0 01.829.83V95.3a6.006 6.006 0 01-6 6.005zm-14.63-24.743V95.3a4.346 4.346 0 004.342 4.343h10.288A4.346 4.346 0 0055.2 95.3V76.562H36.225z" fill="#1D79DE"/><path d="M125 94.79v-7.58c3.016-.157 9.143-.568 9.524-.947.381-.379 6.825-3 10-4.263l.476 5.684v8.526l-.952 1.895L141.19 100H135l-6.667-.474-.476-.473-1.428-.948L125 94.79z" fill="#000" stroke="#000"/><path d="M140.485 101.305h-10.288a6.012 6.012 0 01-6.005-6.005V75.734c0-.458.371-.83.829-.83h20.635a.83.83 0 01.829.83V95.3a6.006 6.006 0 01-6 6.005zm-14.631-24.743V95.3a4.346 4.346 0 004.343 4.343h10.288a4.346 4.346 0 004.342-4.343V76.562h-18.973z" fill="#1D79DE"/><path d="M146.548 59.481V71.4c0 1.037-.05 2.083-.14 3.115-.077.897-.19 1.784-.34 2.667a34.602 34.602 0 01-1.734 6.403l-1.295 3.433a9.934 9.934 0 01-2.518 3.754 9.813 9.813 0 01-3.106 1.97 9.974 9.974 0 01-3.646.697H47.307c-1.245 0-2.49-.24-3.646-.697a9.644 9.644 0 01-3.106-1.97 9.796 9.796 0 01-2.518-3.754l-1.295-3.433a34.434 34.434 0 01-1.734-6.403c-.073-.48-.15-.964-.208-1.444a34.699 34.699 0 01-.276-4.334V59.486a12.051 12.051 0 014.868-9.686l.955-.715a28.39 28.39 0 012.2-1.454 24.324 24.324 0 013.623-1.762c.059-.022.127-.05.181-.077a25.102 25.102 0 019.08-1.693h70.21c.276 0 .548.009.824.018.123 0 .258.01.381.018.049 0 .108 0 .158.01 2.717.14 5.389.728 7.897 1.729.05.018.109.032.159.059.475.19.946.39 1.413.616.697.33 1.376.697 2.042 1.086.756.449 1.494.929 2.201 1.454l.955.715a12.062 12.062 0 014.134 5.525c.494 1.327.743 2.73.743 4.152z" fill="#4BA7FA"/><path d="M131.057 44.103h-81.12l.318-.66 1.521-3.193 1.63-3.41 3.256-6.838c1.93-4.052 7.277-7.367 11.887-7.367h44.495c5.325 0 10.125 3.097 12.167 7.852l5.846 13.616z" fill="#1E7ADD"/><path d="M132.316 44.932H48.624l7.286-15.287c2.056-4.325 7.726-7.839 12.634-7.839h44.495c5.674 0 10.75 3.279 12.933 8.355l6.344 14.771zm-81.06-1.662h78.538l-5.353-12.457c-1.92-4.465-6.394-7.35-11.407-7.35H68.54c-4.261 0-9.36 3.157-11.135 6.893l-6.15 12.914z" fill="#1D79DE"/><path d="M50.255 41.772v1.385a1.82 1.82 0 01-1.82 1.82h-7.522a4.042 4.042 0 01-4.03-4.03v-3.206h9.346a4.016 4.016 0 013.944 3.224c.059.259.082.53.082.806z" fill="#4BA7FA"/><path d="M48.434 45.806h-7.521a4.862 4.862 0 01-4.859-4.859v-4.039h10.175c2.31 0 4.31 1.635 4.76 3.89.063.285.099.616.099.969v1.386a2.654 2.654 0 01-2.654 2.653zm-10.723-7.231v2.377a3.202 3.202 0 003.197 3.197h7.522a.991.991 0 00.992-.992v-1.386c0-.226-.023-.439-.064-.62a3.198 3.198 0 00-3.133-2.577H37.71z" fill="#1D79DE"/><path d="M132.198 44.982h7.472a4.03 4.03 0 004.03-4.03 3.206 3.206 0 00-3.206-3.206h-6.131a4.03 4.03 0 00-4.031 4.03v1.336c0 1.032.834 1.87 1.866 1.87z" fill="#4BA7FA"/><path d="M139.67 45.811h-7.472a2.7 2.7 0 01-2.699-2.699v-1.335a4.87 4.87 0 014.864-4.864h6.131a4.043 4.043 0 014.039 4.04 4.866 4.866 0 01-4.863 4.858zm-5.307-7.236a3.205 3.205 0 00-3.202 3.202v1.335c0 .571.467 1.038 1.037 1.038h7.472a3.204 3.204 0 003.201-3.202 2.38 2.38 0 00-2.377-2.377h-6.131v.004z" fill="#1D79DE"/><path opacity=".51" d="M146.548 69.408H34.795v2.649h111.753v-2.65z" fill="#1D79DE"/><path d="M60.597 69.766c-.321-17.819-5.769-25.082-5.823-25.155l1.318-1.014c.24.308 5.837 7.775 6.172 26.137l-1.667.032zM120.148 69.765l-1.662-.027c.331-18.362 5.933-25.83 6.173-26.137l1.317 1.014-.656-.507.656.507c-.059.064-5.511 7.408-5.828 25.15zM108.638 80.611H72.647v6.928h35.991v-6.928z" fill="#1D79DE"/><path d="M108.638 80.61v6.928H72.647V80.61h35.991zm0-1.662H72.647a1.66 1.66 0 00-1.662 1.662v6.928c0 .92.743 1.662 1.662 1.662h35.991a1.66 1.66 0 001.661-1.662V80.61a1.66 1.66 0 00-1.661-1.662z" fill="#1D79DE"/><path opacity=".51" d="M108.638 80.61H72.647v1.821h35.991v-1.82z" fill="#1D79DE"/><path fill="#4BA7FA" d="M14 28h10v64H14zM10 92h17v8H10z"/><path opacity=".51" d="M61.856 83.567v1.667c0 .63-.512 1.141-1.141 1.141H49.707c-.63 0-1.141-.512-1.141-1.141v-1.666c0-.63.511-1.142 1.14-1.142h11.009a1.142 1.142 0 011.141 1.141zM131.374 83.572v1.666c0 .63-.512 1.141-1.141 1.141h-11.008c-.63 0-1.142-.511-1.142-1.14v-1.667c0-.63.512-1.141 1.142-1.141h11.008c.629 0 1.141.511 1.141 1.14z" fill="#1D79DE"/><path d="M145.661 69.81h-18.095v5.285h18.095v-5.284z" fill="#59E659"/><path d="M146.489 75.928h-19.752v-6.946h19.752v6.946zm-18.095-1.662h16.433v-3.622h-16.433v3.622z" fill="#1D79DE"/><path opacity=".51" d="M134.901 46.753h-88.73c.058-.023.126-.05.18-.077a25.104 25.104 0 019.08-1.694h70.21c.276 0 .548.01.824.019.123 0 .258.009.381.018.049 0 .108 0 .158.009 2.713.136 5.389.729 7.897 1.725zM146.403 74.516c-.077.896-.19 1.784-.339 2.667H35.004c-.073-.48-.15-.965-.209-1.445v-1.222h111.608zM140.516 90.768a9.787 9.787 0 01-3.106 1.97 9.971 9.971 0 01-3.645.697H47.307c-1.245 0-2.49-.24-3.646-.697a9.643 9.643 0 01-3.106-1.97h99.961z" fill="#1D79DE"/><path d="M91.928 58.984h-2.726v3.301h2.726v-3.301zM24.158 93.023H13.39a.83.83 0 01-.829-.829V27.657c0-.457.372-.828.83-.828h10.767c.458 0 .829.371.829.828V92.19a.83.83 0 01-.829.833zm-9.935-1.662h9.107v-62.87h-9.107v62.87z" fill="#1D79DE"/><path opacity=".51" d="M102.361 80.606l-1.354 1.997-3.337 4.936H79.457l3.582-4.936 1.454-1.997h17.868z" fill="#1D79DE"/><path d="M153.191 101.359H.829a.829.829 0 010-1.657H153.19a.83.83 0 010 1.657zM169.171 101.305h-9.794a.83.83 0 010-1.658h9.794a.829.829 0 010 1.658z" fill="#1D79DE"/><path d="M145.661 69.81h-17.285v2.242h17.285v-2.241z" fill="#27AD28"/><path d="M145.656 75.992H35.393a.83.83 0 01-.829-.83v-5.41c0-.458.371-.83.829-.83h110.263a.83.83 0 01.829.83v5.41a.824.824 0 01-.829.83zM36.226 74.33h108.601v-3.754h-108.6v3.754z" fill="#1D79DE"/><path d="M141.187 56.556a5.96 5.96 0 01-5.969 5.96 5.97 5.97 0 01-5.963-5.96c0-3.291 2.667-5.968 5.959-5.968 1.426 0 2.739.503 3.767 1.34a5.942 5.942 0 012.206 4.629z" fill="#EBC642"/><path d="M139.095 53.025a5.959 5.959 0 01-5.96 5.959 5.929 5.929 0 01-3.772-1.345 6.088 6.088 0 01-.099-1.083c0-3.291 2.667-5.968 5.959-5.968 1.426 0 2.74.503 3.767 1.34.068.358.105.716.105 1.097z" fill="#FFD86C"/><path d="M135.223 63.349a6.8 6.8 0 01-6.792-6.793 6.8 6.8 0 016.792-6.792 6.8 6.8 0 016.792 6.792 6.798 6.798 0 01-6.792 6.793zm0-11.928a5.143 5.143 0 00-5.135 5.135 5.143 5.143 0 005.135 5.135 5.143 5.143 0 005.135-5.135 5.143 5.143 0 00-5.135-5.135z" fill="#1D79DE"/><path d="M52.351 56.556a5.96 5.96 0 01-5.968 5.96 5.97 5.97 0 01-5.964-5.96c0-3.291 2.667-5.968 5.96-5.968 1.426 0 2.739.503 3.767 1.34a5.957 5.957 0 012.205 4.629z" fill="#EBC642"/><path d="M50.255 53.025a5.958 5.958 0 01-5.96 5.959 5.929 5.929 0 01-3.772-1.345 5.663 5.663 0 01-.1-1.083c0-3.291 2.668-5.968 5.96-5.968 1.426 0 2.74.503 3.767 1.34.073.358.105.716.105 1.097z" fill="#FFD86C"/><path d="M46.388 63.349a6.8 6.8 0 01-6.793-6.793 6.8 6.8 0 016.793-6.792 6.8 6.8 0 016.792 6.792 6.8 6.8 0 01-6.792 6.793zm0-11.928a5.143 5.143 0 00-5.136 5.135 5.143 5.143 0 005.136 5.135 5.143 5.143 0 005.135-5.135c-.005-2.83-2.305-5.135-5.136-5.135zM27.052 101.359H10.193a.829.829 0 01-.829-.829v-8.336a.83.83 0 01.83-.829h16.853a.83.83 0 01.829.829v8.336a.822.822 0 01-.824.829zm-16.026-1.657h15.197v-6.68H11.026v6.68z" fill="#1D79DE"/><path d="M110.155.841L8.81 36.994l2.25 6.308L112.405 7.15 110.155.84z" fill="#59E659"/><path d="M25.206 31.144l-11.218 4.001 2.25 6.309 11.218-4.002-2.25-6.308zM48.319 22.899L37.102 26.9l2.25 6.308 11.217-4.001-2.25-6.308zM73.598 13.883l-11.217 4.001 2.25 6.308 11.217-4.001-2.25-6.308zM97.612 5.315L86.395 9.316l2.25 6.309 11.217-4.002-2.25-6.308z" fill="#1E7ADD"/><path opacity=".51" d="M109.934.229L8.59 36.38l1.034 2.9L110.97 3.13l-1.035-2.9z" fill="#1D79DE"/><path d="M11.049 44.122a.827.827 0 01-.358-.082.822.822 0 01-.425-.47l-2.251-6.308a.83.83 0 01.503-1.06L109.856.048a.829.829 0 011.059.503l2.251 6.308a.834.834 0 01-.032.634.823.823 0 01-.471.425L11.325 44.072a.712.712 0 01-.276.05zm-1.186-6.634l1.689 4.741 99.775-35.597-1.689-4.74L9.863 37.487z" fill="#1D79DE"/><path d="M53.9 69.81H35.397v5.285H53.9v-5.284z" fill="#59E659"/><path d="M54.729 75.928H34.564v-6.946H54.73v6.946zm-18.503-1.662h16.84v-3.622h-16.84v3.622z" fill="#1D79DE"/><path d="M53.04 70.462H36.184v1.594H53.04v-1.594z" fill="#27AD28"/><path d="M133.765 94.263H47.307c-1.336 0-2.704-.262-3.953-.756a10.446 10.446 0 01-3.374-2.137 10.724 10.724 0 01-2.726-4.067l-1.295-3.427a35.393 35.393 0 01-1.775-6.557c-.077-.503-.154-.997-.213-1.486a35.381 35.381 0 01-.28-4.433V59.482c0-1.522.267-3.016.792-4.447a12.852 12.852 0 014.41-5.905l.956-.71a27.844 27.844 0 012.273-1.5 25.227 25.227 0 013.75-1.82l.185-.077a25.813 25.813 0 019.378-1.752h70.211c.28 0 .566.009.846.018.141 0 .272.009.417.018.027-.005.1 0 .172.009 2.79.15 5.529.747 8.133 1.784.054.014.14.045.217.086.435.172.924.38 1.404.611a27.304 27.304 0 014.379 2.627l.96.715a12.223 12.223 0 011.802 1.617 12.856 12.856 0 013.405 8.73v11.919c0 1.037-.049 2.11-.145 3.188-.072.883-.19 1.802-.348 2.73a35.295 35.295 0 01-1.78 6.562l-1.295 3.427a10.918 10.918 0 01-2.726 4.067 10.48 10.48 0 01-3.369 2.133 10.86 10.86 0 01-3.953.751zM55.431 44.928c-3.02 0-5.973.552-8.78 1.64l-.15.058a23.835 23.835 0 00-3.528 1.712c-.779.47-1.48.928-2.137 1.408l-.947.711a11.195 11.195 0 00-3.844 5.144 11.207 11.207 0 00-.688 3.876v11.919c0 1.408.09 2.834.267 4.229.059.48.131.951.204 1.422a34.085 34.085 0 001.689 6.235l1.295 3.433a8.98 8.98 0 002.305 3.437 8.86 8.86 0 002.848 1.806 9.224 9.224 0 003.342.639h86.458a9.096 9.096 0 003.342-.638 9.012 9.012 0 002.843-1.803 9.227 9.227 0 002.31-3.441l1.295-3.428a33.53 33.53 0 001.694-6.25c.149-.878.262-1.752.33-2.594.091-1.032.136-2.056.136-3.047V59.477a11.216 11.216 0 00-4.542-9.02l-.955-.715a25.134 25.134 0 00-2.129-1.404 26.197 26.197 0 00-1.978-1.055 24.093 24.093 0 00-1.368-.593l-.104-.037a24.071 24.071 0 00-7.685-1.689l-.09-.009a8.47 8.47 0 00-.403-.013c-.29-.01-.557-.019-.824-.019H55.43v.005z" fill="#1D79DE"/><path d="M61.856 82.413v1.666c0 .63-.512 1.141-1.141 1.141H49.707c-.63 0-1.141-.511-1.141-1.14v-1.667c0-.63.511-1.141 1.14-1.141h11.009a1.14 1.14 0 011.141 1.14z" fill="#1D79DE"/><path d="M60.72 85.633H49.71a1.557 1.557 0 01-1.553-1.558V82.41c0-.856.697-1.553 1.553-1.553H60.72c.856 0 1.554.697 1.554 1.553v1.666c0 .86-.698 1.558-1.554 1.558zm-11.013-3.944a.727.727 0 00-.725.724v1.667c0 .398.326.724.725.724h11.008a.727.727 0 00.724-.724v-1.667a.727.727 0 00-.724-.724H49.707zM131.374 82.418v1.666c0 .63-.512 1.142-1.141 1.142h-11.008c-.63 0-1.142-.512-1.142-1.141v-1.667c0-.63.512-1.141 1.142-1.141h11.008c.629 0 1.141.512 1.141 1.141z" fill="#1D79DE"/><path d="M130.233 85.637h-11.008a1.556 1.556 0 01-1.554-1.553v-1.666c0-.86.698-1.558 1.554-1.558h11.008c.86 0 1.558.697 1.558 1.558v1.666a1.563 1.563 0 01-1.558 1.553zm-11.008-3.944a.727.727 0 00-.725.725v1.666c0 .398.326.724.725.724h11.008a.726.726 0 00.724-.724v-1.666a.726.726 0 00-.724-.725h-11.008z" fill="#1D79DE"/></svg>