<svg width="170" height="98" fill="none" xmlns="http://www.w3.org/2000/svg"><path d="M169.206 97.694h-8.787a.799.799 0 010-1.594h8.787a.798.798 0 010 1.594zM154.791 97.694H.794A.792.792 0 010 96.897a.798.798 0 01.794-.797H154.79a.793.793 0 01.794.797.799.799 0 01-.794.797z" fill="#1E7ADD"/><path d="M145.48 39.216a37.738 37.738 0 01-8.749 24.19 37.467 37.467 0 01-22.184 12.897 37.374 37.374 0 01-25.253-4.426 37.61 37.61 0 01-16.52-19.679 37.785 37.785 0 01-.067-25.735A37.61 37.61 0 0189.124 6.697a37.376 37.376 0 0125.23-4.558 37.467 37.467 0 0122.251 12.78 37.719 37.719 0 018.875 24.297z" fill="#4BA7FA"/><path d="M107.965 1.594a37.361 37.361 0 0120.808 6.35 37.582 37.582 0 0113.789 16.885 37.745 37.745 0 012.124 21.73 37.662 37.662 0 01-10.257 19.252 37.423 37.423 0 01-19.183 10.29 37.33 37.33 0 01-21.643-2.141A37.5 37.5 0 0176.79 60.11a37.72 37.72 0 01-6.317-20.894 37.632 37.632 0 012.823-14.42 37.515 37.515 0 018.124-12.224A37.346 37.346 0 0193.6 4.421a37.23 37.23 0 0114.365-2.827zm0-1.594c-8.9 0-17.534 3.051-24.472 8.648a39.246 39.246 0 00-13.681 22.129 39.364 39.364 0 003.14 25.853 39.142 39.142 0 0018.579 18.18 38.93 38.93 0 0025.824 2.49 39.062 39.062 0 0021.685-14.298 39.327 39.327 0 007.984-24.781 39.316 39.316 0 00-9.236-24.339 39.137 39.137 0 00-13.389-10.238A38.99 38.99 0 00107.965 0z" fill="#1E7ADD"/><path opacity=".51" d="M145.48 39.216a37.738 37.738 0 01-8.749 24.19 37.467 37.467 0 01-22.184 12.897 37.374 37.374 0 01-25.253-4.426 37.61 37.61 0 01-16.52-19.679 37.785 37.785 0 01-.067-25.735A37.61 37.61 0 0189.124 6.697a37.376 37.376 0 0125.23-4.558 37.467 37.467 0 0122.251 12.78 37.719 37.719 0 018.875 24.297z" fill="#1D79DE"/><path d="M145.48 39.216a37.727 37.727 0 01-5.867 20.282 37.51 37.51 0 01-15.828 13.91 37.336 37.336 0 01-20.8 3.156 37.398 37.398 0 01-19.215-8.595 37.715 37.715 0 01-8.82-25.856 37.692 37.692 0 0110.94-25.027 37.406 37.406 0 0124.925-10.99 37.383 37.383 0 0125.758 8.846 37.55 37.55 0 018.907 24.274z" fill="#4BA7FA"/><path d="M126.428 23.103a2.795 2.795 0 012.58 1.697c.156.357.237.742.238 1.132v3.857a2.825 2.825 0 01-1.74 2.609 2.802 2.802 0 01-1.078.212H91.422a2.848 2.848 0 01-.865-.128 2.826 2.826 0 01-1.417-1.026 2.844 2.844 0 01-.544-1.667v-3.857c.002-.751.3-1.47.83-2.001a2.82 2.82 0 011.996-.828h35.006zm0-1.594H91.422a4.413 4.413 0 00-3.116 1.297 4.448 4.448 0 00-1.298 3.126v3.857c0 .937.297 1.85.848 2.606a4.398 4.398 0 003.566 1.809h35.006a4.398 4.398 0 003.113-1.293 4.431 4.431 0 001.293-3.122v-3.857a4.295 4.295 0 00-.373-1.77 4.4 4.4 0 00-1.621-1.932 4.379 4.379 0 00-2.412-.721z" fill="#fff"/><path d="M129.262 25.932v3.857a2.824 2.824 0 01-1.74 2.609 2.802 2.802 0 01-1.078.212H91.438a2.849 2.849 0 01-.866-.128 2.826 2.826 0 01-1.416-1.027 2.844 2.844 0 01-.544-1.666v-3.857c.002-.751.3-1.471.83-2.001a2.82 2.82 0 011.996-.829h34.99a2.796 2.796 0 012.58 1.698c.161.356.248.74.254 1.132z" fill="#4BA7FA"/><path d="M129.262 25.932v3.857a2.825 2.825 0 01-1.74 2.609 2.802 2.802 0 01-1.078.212H91.438a2.849 2.849 0 01-.866-.128v-6a1.687 1.687 0 011.04-1.556c.204-.084.423-.127.643-.126h36.769c.156.357.237.742.238 1.132z" fill="#fff"/><path d="M95.923 22.417h-1.588V32.61h1.588V22.417zM105.472 22.417h-1.588V32.61h1.588V22.417zM115.014 22.417h-1.588V32.61h1.588V22.417zM123.547 22.417h-1.588V32.61h1.588V22.417z" fill="#1E7ADD"/><path d="M126.428 23.103a2.795 2.795 0 012.58 1.697c.156.357.237.742.238 1.132v3.857a2.825 2.825 0 01-1.74 2.609 2.802 2.802 0 01-1.078.212H91.422a2.848 2.848 0 01-.865-.128 2.826 2.826 0 01-1.417-1.026 2.844 2.844 0 01-.544-1.667v-3.857c.002-.751.3-1.47.83-2.001a2.82 2.82 0 011.996-.828h35.006zm0-1.594H91.422a4.413 4.413 0 00-3.116 1.297 4.448 4.448 0 00-1.298 3.126v3.857c0 .937.297 1.85.848 2.606a4.398 4.398 0 003.566 1.809h35.006a4.398 4.398 0 003.113-1.293 4.431 4.431 0 001.293-3.122v-3.857a4.295 4.295 0 00-.373-1.77 4.4 4.4 0 00-1.621-1.932 4.379 4.379 0 00-2.412-.721z" fill="#1E7ADD"/><path d="M107.965 71.157a31.726 31.726 0 01-17.68-5.376 31.913 31.913 0 01-11.725-14.33 32.057 32.057 0 01-1.817-18.456 31.98 31.98 0 018.703-16.358 31.776 31.776 0 0116.29-8.746 31.698 31.698 0 0118.384 1.815 31.837 31.837 0 0114.281 11.763 32.027 32.027 0 015.363 17.747 31.972 31.972 0 01-2.403 12.23 31.893 31.893 0 01-6.891 10.369 31.74 31.74 0 01-10.325 6.923 31.644 31.644 0 01-12.18 2.419zm0-62.271a30.153 30.153 0 00-18.938 6.682 30.364 30.364 0 00-10.592 17.117 30.454 30.454 0 002.422 20.004 30.284 30.284 0 0014.37 14.07 30.12 30.12 0 0019.98 1.932 30.222 30.222 0 0016.781-11.058 30.43 30.43 0 006.181-19.173 30.418 30.418 0 00-7.145-18.832 30.263 30.263 0 00-10.351-7.921 30.153 30.153 0 00-12.708-2.821z" fill="#fff"/><path opacity=".51" d="M102.13 14.01v41.623a9.415 9.415 0 01-2.741 6.644 9.34 9.34 0 01-6.618 2.751H43.262a9.32 9.32 0 01-6.615-2.752 9.391 9.391 0 01-2.736-6.643V14.01a9.418 9.418 0 012.736-6.643 9.32 9.32 0 016.615-2.752h49.51a9.312 9.312 0 016.622 2.746 9.391 9.391 0 012.736 6.649z" fill="#1D79DE"/><path d="M97.55 12.424v41.623a9.415 9.415 0 01-2.741 6.644 9.34 9.34 0 01-6.618 2.752h-49.51a9.319 9.319 0 01-6.614-2.753 9.418 9.418 0 01-2.736-6.643V12.424a9.418 9.418 0 012.736-6.643 9.349 9.349 0 016.615-2.753H88.19a9.311 9.311 0 016.622 2.748 9.382 9.382 0 012.737 6.648z" fill="#4BA7FA"/><path d="M88.191 3.028a9.31 9.31 0 016.623 2.748 9.412 9.412 0 012.736 6.648v41.623a9.415 9.415 0 01-2.741 6.644 9.34 9.34 0 01-6.618 2.752h-49.51a9.32 9.32 0 01-6.614-2.753 9.418 9.418 0 01-2.736-6.643V12.424a9.418 9.418 0 012.736-6.643 9.349 9.349 0 016.615-2.753h49.51zm0-1.593h-49.51a10.933 10.933 0 00-7.732 3.223 11.02 11.02 0 00-3.206 7.766v41.623a11.018 11.018 0 003.201 7.77 10.933 10.933 0 007.738 3.22h49.51a10.933 10.933 0 007.737-3.222 11.02 11.02 0 003.209-7.768V12.424a11.004 11.004 0 00-3.2-7.778 10.885 10.885 0 00-7.747-3.212z" fill="#fff"/><path opacity=".51" d="M97.55 12.424V54.414a9.39 9.39 0 01-2.728 6.274 9.318 9.318 0 01-6.25 2.739h-49.89a9.349 9.349 0 01-6.61-2.757 9.423 9.423 0 01-2.741-6.639V12.424a9.418 9.418 0 012.736-6.643 9.348 9.348 0 016.615-2.753h49.51c1.465 0 2.91.346 4.218 1.01a9.376 9.376 0 013.314 2.808c.25.34.479.697.683 1.068a9.392 9.392 0 011.143 4.51z" fill="#1D79DE"/><path d="M84.286 20.8H43.619c-4.59 0-8.31 3.735-8.31 8.343v40.085c0 4.609 3.72 8.344 8.31 8.344h40.667c4.59 0 8.31-3.735 8.31-8.344V29.144c0-4.609-3.72-8.344-8.31-8.344z" fill="#4BA7FA"/><path d="M84.285 20.792a8.303 8.303 0 015.878 2.449 8.368 8.368 0 012.434 5.902V69.22a8.36 8.36 0 01-2.446 5.88 8.295 8.295 0 01-5.865 2.432H43.618a8.295 8.295 0 01-5.877-2.444 8.36 8.36 0 01-2.434-5.9V29.144c0-2.213.876-4.336 2.434-5.902a8.303 8.303 0 015.877-2.45h40.666zm0-1.594H43.62a9.895 9.895 0 00-6.997 2.918 9.973 9.973 0 00-2.901 7.027V69.22a9.965 9.965 0 002.912 7.004 9.887 9.887 0 006.986 2.902h40.666a9.895 9.895 0 006.995-2.915 9.973 9.973 0 002.904-7.022V29.143a9.973 9.973 0 00-2.9-7.027 9.895 9.895 0 00-6.999-2.918z" fill="#1E7ADD"/><path d="M83.254 27.047H44.65a3.046 3.046 0 00-3.04 3.053v38.172a3.046 3.046 0 003.04 3.052h38.603c1.679 0 3.04-1.366 3.04-3.052V30.1a3.046 3.046 0 00-3.04-3.053z" fill="#fff"/><path d="M83.254 27.04a3.042 3.042 0 012.147.896c.57.572.89 1.347.893 2.156v38.18a3.066 3.066 0 01-.893 2.156 3.042 3.042 0 01-2.147.896H44.667c-.806 0-1.58-.321-2.15-.894a3.058 3.058 0 01-.89-2.158v-38.18c0-.81.32-1.586.89-2.158a3.034 3.034 0 012.15-.894h38.602-.015zm.015-1.594H44.667a4.627 4.627 0 00-3.27 1.363 4.663 4.663 0 00-1.358 3.283v38.18a4.663 4.663 0 001.358 3.283 4.627 4.627 0 003.27 1.363h38.602a4.627 4.627 0 003.27-1.363 4.664 4.664 0 001.358-3.283v-38.18a4.664 4.664 0 00-1.357-3.283 4.627 4.627 0 00-3.27-1.363z" fill="#1E7ADD"/><path d="M97.55 12.424V54.414a9.516 9.516 0 01-2.76 6.242 9.445 9.445 0 01-6.218 2.77h-49.89a9.227 9.227 0 01-6.216-2.39 9.467 9.467 0 01-.722-3.65V13.23a7.484 7.484 0 012.176-5.282 7.428 7.428 0 015.262-2.185h52.153a9.345 9.345 0 014.39 1.084c.25.34.478.697.682 1.068a9.393 9.393 0 011.143 4.51z" fill="#4BA7FA"/><path d="M81.428 25.732v3.435a2.526 2.526 0 01-.738 1.784 2.507 2.507 0 01-1.778.734H47.715a2.51 2.51 0 01-2.055-1.03 2.525 2.525 0 01-.485-1.48v-3.443c0-.67.265-1.312.737-1.786a2.511 2.511 0 011.78-.74h31.196a2.52 2.52 0 011.777.742 2.54 2.54 0 01.74 1.784h.023z" fill="#4BA7FA"/><path d="M78.912 23.238a2.52 2.52 0 011.776.742c.472.474.738 1.115.74 1.784V29.2a2.528 2.528 0 01-.738 1.784 2.508 2.508 0 01-1.778.734H47.715a2.509 2.509 0 01-2.055-1.03 2.525 2.525 0 01-.485-1.48v-3.475c0-.67.265-1.312.737-1.786a2.511 2.511 0 011.78-.74h31.196l.024.032zm-.024-1.626H47.69a4.104 4.104 0 00-2.9 1.21 4.136 4.136 0 00-1.203 2.91v3.435a4.116 4.116 0 00.785 2.429 4.09 4.09 0 002.064 1.492 4.13 4.13 0 001.254.191h31.197c1.087 0 2.13-.433 2.899-1.204a4.128 4.128 0 001.205-2.908v-3.435a4.144 4.144 0 00-1.207-2.908 4.111 4.111 0 00-2.897-1.212z" fill="#fff"/><path d="M81.428 25.732v3.435a2.526 2.526 0 01-.738 1.784 2.507 2.507 0 01-1.778.734H47.715a2.51 2.51 0 01-2.055-1.03 2.525 2.525 0 01-.485-1.48v-3.443c0-.67.265-1.312.737-1.786a2.511 2.511 0 011.78-.74h31.196a2.52 2.52 0 011.777.742 2.54 2.54 0 01.74 1.784h.023z" fill="#EBC642"/><path d="M81.428 25.733v3.434a2.527 2.527 0 01-.738 1.784 2.507 2.507 0 01-1.778.735H47.715a2.467 2.467 0 01-.794-.12V26.22a1.503 1.503 0 01.927-1.387c.182-.075.377-.112.574-.111h32.76c.15.316.235.66.246 1.012z" fill="#FFD86C"/><path d="M48.692 48.604a2.792 2.792 0 002.786-2.797 2.792 2.792 0 00-2.786-2.797 2.792 2.792 0 00-2.787 2.797 2.792 2.792 0 002.787 2.797z" fill="#4BA7FA"/><path d="M48.692 43.002a2.786 2.786 0 011.554.469 2.816 2.816 0 01.432 4.317 2.79 2.79 0 01-3.046.611 2.812 2.812 0 01-.911-4.573 2.789 2.789 0 011.97-.824zm0-1.594a4.37 4.37 0 00-2.437.737 4.395 4.395 0 00-1.617 1.973 4.415 4.415 0 00.945 4.797 4.377 4.377 0 004.776.957 4.385 4.385 0 001.967-1.62 4.41 4.41 0 00-.541-5.553 4.374 4.374 0 00-3.093-1.291z" fill="#1E7ADD"/><path d="M51.478 45.807a2.8 2.8 0 01-.814 1.98 2.776 2.776 0 01-1.972.817 2.802 2.802 0 01-1.23-.295 2.804 2.804 0 01.853-3.98 2.778 2.778 0 011.44-.403 1.47 1.47 0 011.397.446 1.485 1.485 0 01.326 1.435z" fill="#fff"/><path d="M63.44 48.604a2.792 2.792 0 002.787-2.797 2.792 2.792 0 00-2.787-2.797 2.792 2.792 0 00-2.786 2.797 2.792 2.792 0 002.786 2.797z" fill="#27AD28"/><path d="M63.44 43.002c.553 0 1.093.164 1.553.473a2.815 2.815 0 01.423 4.316 2.79 2.79 0 01-3.045.608 2.797 2.797 0 01-1.254-1.034 2.813 2.813 0 01.348-3.542 2.788 2.788 0 011.975-.821zm0-1.594a4.37 4.37 0 00-2.436.737 4.395 4.395 0 00-1.617 1.973 4.416 4.416 0 00.944 4.797 4.365 4.365 0 004.776.957 4.385 4.385 0 001.968-1.62 4.411 4.411 0 00.74-2.445 4.416 4.416 0 00-1.284-3.105 4.38 4.38 0 00-3.09-1.294z" fill="#1E7ADD"/><path d="M66.227 45.807c0 .742-.294 1.453-.816 1.978a2.78 2.78 0 01-1.97.82 1.471 1.471 0 01-1.398-.447 1.484 1.484 0 01-.325-1.435 2.798 2.798 0 01.814-1.98 2.777 2.777 0 011.972-.817 2.8 2.8 0 011.23.295c.321.466.493 1.02.493 1.586z" fill="#59E659"/><path d="M77.943 48.604a2.792 2.792 0 002.786-2.797 2.792 2.792 0 00-2.786-2.797 2.792 2.792 0 00-2.786 2.797 2.792 2.792 0 002.786 2.797z" fill="#4BA7FA"/><path d="M77.935 43.002a2.786 2.786 0 011.555.469 2.803 2.803 0 011.195 2.878 2.81 2.81 0 01-.763 1.439 2.791 2.791 0 01-3.046.611 2.796 2.796 0 01-1.256-1.033 2.813 2.813 0 01-.471-1.56 2.82 2.82 0 01.818-1.977 2.797 2.797 0 011.968-.827zm0-1.594a4.37 4.37 0 00-2.434.741 4.396 4.396 0 00-1.614 1.974 4.415 4.415 0 00.95 4.794 4.376 4.376 0 004.775.954 4.386 4.386 0 001.967-1.62 4.412 4.412 0 00-.545-5.555 4.373 4.373 0 00-3.099-1.288z" fill="#1E7ADD"/><path d="M80.721 45.807a2.797 2.797 0 01-.81 1.977 2.778 2.778 0 01-1.968.82 2.81 2.81 0 01-1.238-.295 2.805 2.805 0 01.854-3.98 2.778 2.778 0 011.44-.403 1.471 1.471 0 011.397.446 1.484 1.484 0 01.325 1.435z" fill="#fff"/><path opacity=".51" d="M92.597 63.849H35.308v3.092h57.289v-3.092z" fill="#1D79DE"/><path d="M51.803 22.632h-1.587v9.085h1.587v-9.085z" fill="#fff"/><path d="M47.112 65.044h-1.588v6.272h1.588v-6.272zM54.137 65.044H52.55v6.272h1.587v-6.272zM60.59 65.044h-1.587v6.272h1.588v-6.272zM67.624 65.044h-1.588v6.272h1.588v-6.272zM74.014 65.044h-1.588v6.272h1.588v-6.272zM81.047 65.044h-1.588v6.272h1.588v-6.272z" fill="#1E7ADD"/><path d="M60.305 22.632h-1.588v9.085h1.588v-9.085zM68.814 22.632h-1.587v9.085h1.587v-9.085zM76.419 22.632h-1.588v9.085h1.588v-9.085z" fill="#fff"/><path d="M78.912 23.238a2.52 2.52 0 011.776.742c.472.474.738 1.115.74 1.784V29.2a2.528 2.528 0 01-.738 1.784 2.508 2.508 0 01-1.778.734H47.715a2.509 2.509 0 01-2.055-1.03 2.525 2.525 0 01-.485-1.48v-3.475c0-.67.265-1.312.737-1.786a2.511 2.511 0 011.78-.74h31.196l.024.032zm-.024-1.626H47.69a4.104 4.104 0 00-2.9 1.21 4.136 4.136 0 00-1.203 2.91v3.435a4.116 4.116 0 00.785 2.429 4.09 4.09 0 002.064 1.492 4.13 4.13 0 001.254.191h31.197c1.087 0 2.13-.433 2.899-1.204a4.128 4.128 0 001.205-2.908v-3.435a4.144 4.144 0 00-1.207-2.908 4.111 4.111 0 00-2.897-1.212z" fill="#fff"/><path d="M88.191 3.028a9.31 9.31 0 016.623 2.748 9.412 9.412 0 012.736 6.648v41.623a9.415 9.415 0 01-2.741 6.644 9.34 9.34 0 01-6.618 2.752h-49.51a9.32 9.32 0 01-6.614-2.753 9.418 9.418 0 01-2.736-6.643V12.424a9.418 9.418 0 012.736-6.643 9.349 9.349 0 016.615-2.753h49.51zm0-1.593h-49.51a10.933 10.933 0 00-7.732 3.223 11.02 11.02 0 00-3.206 7.766v41.623a11.018 11.018 0 003.201 7.77 10.933 10.933 0 007.738 3.22h49.51a10.933 10.933 0 007.737-3.222 11.02 11.02 0 003.209-7.768V12.424a11.004 11.004 0 00-3.2-7.778 10.885 10.885 0 00-7.747-3.212zM83.285 71.308H44.397v1.594h38.888v-1.594z" fill="#1E7ADD"/><path d="M86.881 59.864H40a5.49 5.49 0 01-3.876-1.62 5.534 5.534 0 01-1.609-3.894V15.3c0-1.46.578-2.862 1.606-3.896A5.482 5.482 0 0140 9.786H86.88c1.457 0 2.854.581 3.885 1.615a5.526 5.526 0 011.608 3.9V54.35a5.534 5.534 0 01-1.61 3.897 5.49 5.49 0 01-3.883 1.617zM40 11.389a3.899 3.899 0 00-2.756 1.151 3.929 3.929 0 00-1.141 2.77v39.049c0 1.038.41 2.034 1.141 2.77a3.898 3.898 0 002.756 1.15h46.882c1.036 0 2.03-.413 2.762-1.148a3.929 3.929 0 001.144-2.772v-39.05c0-1.04-.412-2.036-1.144-2.772a3.898 3.898 0 00-2.762-1.148H40z" fill="#fff"/><path d="M114.521 51.106a4.377 4.377 0 01-2.297 3.851 4.336 4.336 0 01-4.466-.217 4.376 4.376 0 01-1.921-3.626c0-2.39 1.945-8.216 4.35-8.216a2.853 2.853 0 012.104 1.466 14.373 14.373 0 012.23 6.742z" fill="#4BA7FA"/><path d="M110.171 42.89a2.853 2.853 0 012.104 1.466 14.372 14.372 0 012.238 6.75 4.377 4.377 0 01-2.297 3.85 4.335 4.335 0 01-4.466-.216 4.376 4.376 0 01-1.921-3.626c0-2.39 1.945-8.216 4.35-8.216l-.008-.008zm.008-1.586c-3.897 0-5.937 7.292-5.937 9.81a5.958 5.958 0 002.5 4.861l.135.096a5.922 5.922 0 008.39-1.9 5.978 5.978 0 00.842-3.065 15.908 15.908 0 00-2.532-7.674c-1.247-1.761-2.532-2.136-3.398-2.136v.008z" fill="#1E7ADD"/><path d="M114.521 51.106a4.377 4.377 0 01-2.297 3.851 4.336 4.336 0 01-4.466-.217 4.376 4.376 0 01-1.921-3.626c0-2.39 1.945-8.216 4.35-8.216a2.853 2.853 0 012.104 1.466 14.373 14.373 0 012.23 6.742z" fill="#4BA7FA"/><path d="M114.521 51.106a4.377 4.377 0 01-2.297 3.851 4.335 4.335 0 01-4.466-.217 4.345 4.345 0 01-.738-2.438c0-2.39 1.945-8.224 4.35-8.224.328.006.647.106.921.286a14.373 14.373 0 012.23 6.742zM131.358 45.48h-11.28a.798.798 0 010-1.594h11.304a.793.793 0 01.793.797.797.797 0 01-.793.797h-.024z" fill="#fff"/><path d="M131.358 50.564h-11.28a.798.798 0 010-1.594h11.304a.792.792 0 01.793.797.797.797 0 01-.793.797h-.024z" fill="#1E7ADD"/></svg>