<svg width="168" height="101" fill="none" xmlns="http://www.w3.org/2000/svg"><path d="M24.248 35.714v35.293a8.543 8.543 0 008.542 8.542h73.253a8.543 8.543 0 008.543-8.543V35.715a8.543 8.543 0 00-8.543-8.543H32.79a8.543 8.543 0 00-8.542 8.543z" fill="#fff"/><path d="M106.035 27.17a8.552 8.552 0 018.543 8.551v35.301a8.554 8.554 0 01-8.543 8.55H32.79a8.55 8.55 0 01-8.55-8.55v-35.3a8.55 8.55 0 018.55-8.551h73.245zm0-1.568H32.79a10.135 10.135 0 00-10.12 10.12v35.3a10.128 10.128 0 0010.12 10.12h73.245a10.12 10.12 0 0010.112-10.12v-35.3a10.13 10.13 0 00-10.112-10.12z" fill="#1E7ADD"/><path opacity=".51" d="M34.485 30.215h69.236c5.437 0 6.872 3.38 6.872 7.546v30.594c0 4.173-2.141 7.546-6.872 7.546H34.485c-3.797 0-6.872-3.373-6.872-7.546v-3.428a1.687 1.687 0 011.569-1.78 1.687 1.687 0 001.569-1.782V45.834a1.686 1.686 0 00-1.57-1.78 1.686 1.686 0 01-1.568-1.781v-4.527c0-4.15 3.075-7.53 6.872-7.53z" fill="#1D79DE"/><path d="M34.626 30.442h69.229c5.436 0 6.879 3.381 6.879 7.547v30.593c0 4.174-2.141 7.547-6.879 7.547H34.626c-3.797 0-6.88-3.373-6.88-7.547v-3.428a1.694 1.694 0 011.57-1.78 1.687 1.687 0 001.568-1.781V46.06a1.687 1.687 0 00-1.569-1.781 1.694 1.694 0 01-1.569-1.78v-4.527c0-4.15 3.083-7.531 6.88-7.531z" fill="#4BA7FA"/><path opacity=".51" d="M110.734 37.989v30.593c0 4.166-2.141 7.54-6.879 7.54H34.626c-3.797 0-6.872-3.374-6.872-7.54v-3.435a1.687 1.687 0 011.57-1.781 1.499 1.499 0 001.12-.518c.303-.351.467-.8.464-1.263V46.053a1.695 1.695 0 00-1.57-1.78 1.467 1.467 0 01-1.105-.519 1.89 1.89 0 01-.463-1.263v-4.526c0-4.166 3.075-7.547 6.872-7.547h69.228c2.683 0 4.393.824 5.437 2.158 1.043 1.333 1.427 3.302 1.427 5.413z" fill="#1D79DE"/><path d="M103.855 30.442a7.467 7.467 0 014.322 1.114c1.946 1.326 2.557 3.71 2.557 6.433v30.593c0 4.166-2.141 7.54-6.879 7.54H34.626c-3.797 0-6.872-3.374-6.872-7.54v-3.435a1.687 1.687 0 011.57-1.781 1.38 1.38 0 00.619-.141 1.57 1.57 0 00.502-.377c.302-.351.466-.8.463-1.263V46.053a1.694 1.694 0 00-1.57-1.78 1.468 1.468 0 01-1.105-.519 1.89 1.89 0 01-.463-1.263v-4.526c0-4.166 3.075-7.547 6.872-7.547l69.213.024zm0-1.569H34.626c-4.66 0-8.44 4.095-8.44 9.116v4.526c-.005.847.299 1.667.854 2.306a3.059 3.059 0 002.236 1.044.353.353 0 01.063.211V61.61a.322.322 0 01-.063.211 3.264 3.264 0 00-3.09 3.35v3.436c0 5.02 3.78 9.108 8.44 9.108h69.229c5.13 0 8.448-3.578 8.448-9.108V38.012c0-3.71-1.059-6.276-3.239-7.727a9.078 9.078 0 00-5.209-1.388v-.024z" fill="#1E7ADD"/><path d="M110.734 38.46v30.099c0 4.189-2.157 7.586-6.934 7.586H36.791c-3.828 0-6.934-3.397-6.934-7.586v-3.46a1.772 1.772 0 011.082-1.686c.163-.064.336-.095.51-.094a1.523 1.523 0 001.122-.526c.307-.352.474-.804.47-1.27V45.887a1.694 1.694 0 00-1.568-1.78 1.57 1.57 0 01-1.13-.526 1.899 1.899 0 01-.463-1.271v-4.55c0-4.197 3.138-5.774 6.935-5.774h69.817c.548-.003 1.097.037 1.639.118 1.859 1.31 2.463 3.664 2.463 6.354z" fill="#4BA7FA"/><path opacity=".51" d="M67.362 30.442l9.413 6.982a1.883 1.883 0 002.534-.275l6.535-7.5-18.482.793z" fill="#1D79DE"/><path d="M50.778 60.33H39.796a.784.784 0 01-.785-.785V48.563a.784.784 0 01.785-.784h6.51a.785.785 0 010 1.568H40.58v9.414h9.414v-4.966a.785.785 0 011.569 0v5.75a.784.784 0 01-.785.785z" fill="#fff"/><path d="M44.973 56.227h-.047a.784.784 0 01-.604-.345l-2.455-3.616a.786.786 0 011.302-.879l1.883 2.77 7.013-8.08a.785.785 0 011.184 1.027l-7.688 8.833a.786.786 0 01-.588.29z" fill="#FFD86C"/><path d="M103.572 60.33h-10.92a.785.785 0 01-.784-.785v-10.92a.785.785 0 01.785-.784h10.919a.785.785 0 01.785.785v10.92a.785.785 0 01-.785.784zm-10.135-1.569h9.351v-9.35h-9.35v9.35z" fill="#fff"/><path d="M167.216 100.588h-8.684a.783.783 0 110-1.569h8.684a.783.783 0 01.784.785.786.786 0 01-.784.784zM152.97 100.588H.784a.784.784 0 110-1.569H152.97a.783.783 0 01.784.785.782.782 0 01-.784.784z" fill="#1E7ADD"/><path d="M74.085 71.265a15.823 15.823 0 010-31.637 15.634 15.634 0 019.829 3.42.784.784 0 11-.98 1.224 14.121 14.121 0 00-8.85-3.075 14.254 14.254 0 000 28.5.784.784 0 110 1.568z" fill="#fff"/><path d="M74.085 65.947a10.504 10.504 0 010-21 10.504 10.504 0 0110.503 10.496.784.784 0 01-1.569 0 8.935 8.935 0 10-8.934 8.935.784.784 0 010 1.569z" fill="#fff"/><path d="M65.746 27.17l-5.782-4.824a.783.783 0 01-.094-1.106l9.657-11.586a.784.784 0 011.106-.102l17.015 14.222a.785.785 0 01.249.838.786.786 0 01-.147.268l-1.57 1.89-1.898-.172 1.773-2.126-15.775-13.17-8.63 10.362 5.923 4.942-1.827.565z" fill="#1E7ADD"/><path d="M101.235 57.804a.786.786 0 01-.55-.235L94.818 51.7a.784.784 0 010-1.106.785.785 0 011.106 0l5.868 5.868a.783.783 0 01-.119 1.21.786.786 0 01-.438.131z" fill="#59E659"/><path d="M95.367 57.804a.785.785 0 01-.55-1.341l5.868-5.868a.792.792 0 01.578-.32.787.787 0 01.837.856.795.795 0 01-.332.57L95.9 57.569a.784.784 0 01-.533.235z" fill="#59E659"/><path opacity=".51" d="M93.139 36.631s-1.569 3.695 2.275 5.201c4.33 1.695 15.344-1.718 15.344-1.718V37.69l-17.62-1.059z" fill="#1D79DE"/><path d="M71.568 30.27l-.7.887 1.436 1.132.699-.887-1.435-1.132zM82.071 29.653l-.875 1.037.863.728.876-1.037-.864-.728zM74.325 32.123l-.705.893 1.43 1.127.704-.894-1.43-1.127z" fill="#fff"/><path fill-rule="evenodd" clip-rule="evenodd" d="M77.622 36.16l-1.427-1.121.706-.894.572.455.463-.557.863.73-1.177 1.388z" fill="#fff"/><path d="M80.046 31.533l-1.174 1.391.864.729 1.174-1.39-.864-.73z" fill="#fff"/><path d="M115.888 2.092s-2.808-1.28-3.6 1.223c-.793 2.503-1.13 4.644-.455 10.057.674 5.413-1.922 5.993 1.42 6.064 3.341.07 8.291-.47 10.684-1.38 2.392-.91 4.032-.785 3.828-2.935-.204-2.149-2.463-19.768-11.877-13.03z" fill="#FFD86C"/><path d="M112.492 17.075c.384-.063 9.272-3.365 10.127-4.707.855-1.341 3.86-3.789 3.86-3.789l1.223 7.915a21.846 21.846 0 01-15.399 2.236l.189-1.655z" fill="#EBC642"/><path d="M122.823 19.067a18.04 18.04 0 003.616-1.341c1.052-.447 1.977-.604 1.954-1.922a26.705 26.705 0 00-1.569-8.974A11.672 11.672 0 00122.117.89c-2.197-1.294-5.13-1.333-6.707.918l.784-.212c-2.353-1.568-4.495.973-5.044 3.091a13.501 13.501 0 00-.369 4.652c.142 1.498.534 2.957.785 4.448a7.25 7.25 0 01-.471 4.016 1.645 1.645 0 00-.157.463 1.433 1.433 0 001.036 1.46c1.953.784 4.565.305 6.558.038.745-.094.784-1.27 0-1.168a29.193 29.193 0 01-4.142.313 4.92 4.92 0 01-2.024-.282c-.172-.086-.149-.125-.29-.204.078 0-.039-.07 0 .047v-.078c1.412-2.44.478-5.366.047-7.939a12.903 12.903 0 01.165-5.452c.368-1.38 1.616-3.507 3.318-2.393a.603.603 0 00.784-.204c1.522-2.18 4.511-1.145 6.174.251a11.766 11.766 0 013.444 5.445 31.94 31.94 0 011.177 7.193c.054.698.07.84-.573 1.106l-1.145.487c-.943.455-1.932.808-2.95 1.05-.737.142-.424 1.272.314 1.13h-.008z" fill="#1E7ADD"/><path d="M125.302 92.124c.094.11-.165 2.871 1.051 1.57 1.216-1.303 2.118-3.139 2.518-2.95.4.188 4.393 4.251 1.177 6.275-3.216 2.024-14.521 3.758-12.959 1.687 1.561-2.071 4.518-1.404 6.542-3.883 2.024-2.48 1.671-2.699 1.671-2.699z" fill="#4BA7FA"/><path opacity=".51" d="M124.957 92.446c-.965 5.295 3.138-2 3.922-1.279.784.722.18 2.471-1.232 3.922-1.412 1.452-3.137 2-3.922 1.28-.784-.723 1.577-5.916 1.232-3.923z" fill="#1D79DE"/><path d="M124.706 91.693a6.142 6.142 0 01-1.405 2.683 9.602 9.602 0 01-2.353 1.663 29.623 29.623 0 00-4.879 2.769.59.59 0 00-.087.714 2.455 2.455 0 002.189.996 24.745 24.745 0 003.805-.314c2.4-.257 4.751-.856 6.981-1.78 1.569-.707 3.138-2.08 2.966-3.923-.173-1.843-2.126-2.706-2.667-4.362-.244-.713-1.373-.407-1.138.314.463 1.389 1.663 2.181 2.353 3.405.895 1.569-.659 2.855-1.937 3.483a21.603 21.603 0 01-5.774 1.569c-1.059.18-2.128.306-3.2.376-.667.047-2.134.345-2.581-.353l-.094.714c1.631-1.31 3.663-1.953 5.428-3.036a7.554 7.554 0 003.522-4.597.589.589 0 00-1.129-.313v-.008z" fill="#1E7ADD"/><path d="M102.364 36.71l13.101-4.825c.784-.643.784-.643.557-4.385h-15.203c-4.142.047-11.069-3.2-12.214-3.365l1.655-2.612s11.61 2.8 14.12 1.467c2.511-1.334 12.395-.683 12.787-1.86.392-1.176 1.169 1.075 2.353 1.57 1.185.494 3.342-1.303 3.844-1.875.502-.573 4.503-1.185 5.084 1.043.58 2.228-1.671 3.428-.95 6.464.722 3.036 4.935 10.198 4.935 10.198s5.35 5.452 4.879 19.556c0 0-2.393 3.06-9.123 3.06 0 0-6.394 2.275-7.759-1.954 0 0-.69-11.484.393-15.916 1.082-4.433-.785-7.61-1.13-7.61-.345 0-9.602 3.436-15.94 3.484l-1.389-2.44z" fill="#4BA7FA"/><path opacity=".51" d="M121.223 43.786s8.715.172 11.767-3.609l-1.083-1.851s-3.805 4.134-11.194 3.208l.51 2.252zM120.972 36.64c0-.244 5.82-2.762 6.738-7.163.039-.196-.118-2.887-.118-2.887s-3.836 7.131-7.491 8.7l.871 1.35z" fill="#1D79DE"/><path d="M104.372 38.734c-.235-.369-1.357-1.64-1.137-2.032.094-.165.988-.306 1.177-.36l.894-.252c1.404-.384 2.808-.722 4.205-1.13 2.667-.784 5.31-1.843 7.327-3.804 2.016-1.961 3.31-4.707 4.855-7.06.848-1.318 1.891-2.88 3.491-3.319a2.277 2.277 0 012.401.55 2.426 2.426 0 01.102 2.251.584.584 0 00.079.42.583.583 0 00.766.213.588.588 0 00.284-.32 3.601 3.601 0 00-.18-3.138 3.257 3.257 0 00-3.028-1.262c-2.722.274-4.315 2.95-5.593 5.068-1.522 2.518-2.926 5.216-5.421 6.926-2.353 1.57-5.107 2.299-7.798 2.997-1.349.353-3.028.573-4.267 1.247-1.569.848.251 2.707.832 3.593.407.628 1.427.047 1.011-.588z" fill="#1E7ADD"/><path d="M104.388 39.8c3.138-.525 6.197-1.011 9.28-1.568a21.472 21.472 0 004.346-1.357 14.2 14.2 0 002.871-1.428 20.494 20.494 0 004.331-4.534 23.511 23.511 0 002.996-5.178c.275-.706-.863-1.012-1.137-.313a21.796 21.796 0 01-2.879 4.895 17.318 17.318 0 01-4.26 4.361 24.136 24.136 0 01-7.319 2.55l-8.496 1.45c-.745.126-.431 1.256.306 1.13l-.039-.007zM118.744 20.448c-1.161-.416-2.565-.11-3.742.086-2.095.361-4.173.848-6.276 1.2-6.095 1.02-12.269.981-18.2-.902-.721-.227-1.035.902-.313 1.13a39.12 39.12 0 0017.768 1.075c2.181-.33 4.338-.785 6.503-1.216 1.2-.228 2.746-.675 3.922-.236.714.252 1.02-.878.314-1.137h.024zM120.407 60.973a8.542 8.542 0 003.765.644c1.84-.01 3.677-.168 5.491-.471a30.487 30.487 0 005.343-1.295 7.249 7.249 0 003.247-1.859c.471-.58-.361-1.42-.831-.831a6.5 6.5 0 01-3.052 1.67c-1.575.511-3.188.894-4.824 1.146a32.564 32.564 0 01-5.013.463 7.843 7.843 0 01-3.506-.479c-.675-.353-1.271.66-.597 1.012h-.023zM131.272 37.95c-2.15 2.941-6.66 2.823-9.908 3.05-.785.056-.785 1.225 0 1.17 3.773-.267 8.456-.251 10.927-3.632.44-.612-.58-1.193-1.019-.589z" fill="#1E7ADD"/><path d="M103.808 39.463a10.874 10.874 0 01-9.853-.58 3.138 3.138 0 01-1.444-1.475 1.342 1.342 0 01.699-1.742c.352-.07.717-.037 1.05.095.86.258 1.684.62 2.456 1.074.479.283 1.224.542 1.49.055.432-.784-1.42-1.38-1.121-2.228.172-.478.855-.462 1.341-.321a11.062 11.062 0 014.401 2.486l.981 2.636z" fill="#fff"/><path d="M103.565 39.032a10.411 10.411 0 01-7.14.4c-1.082-.322-2.556-.863-3.247-1.82a1.082 1.082 0 01-.039-1.287c.416-.47 1.436.047 1.898.236.604.235 1.138.58 1.718.855.405.229.88.301 1.334.204a1.044 1.044 0 00.392-1.718c-.22-.267-.494-.47-.721-.73-.228-.259-.11-.455.313-.392a8.39 8.39 0 013.366 1.569c.25.22.512.427.784.62-.235-.126.345.282.157.047a.632.632 0 01.047.11 7.8 7.8 0 01.306.839l.628 1.679c.219.58 1.161.33.941-.26l-.675-1.827c-.094-.259-.172-.518-.29-.784a3.187 3.187 0 00-1.106-1.06 10.387 10.387 0 00-3.773-1.843c-.863-.196-2.142.165-1.828 1.302.135.361.362.68.659.926.157.149.84.659.266.588a2.735 2.735 0 01-.925-.447c-.306-.164-.62-.314-.934-.447a5.798 5.798 0 00-2.118-.628 1.748 1.748 0 00-1.569 2.354c.377 1.286 1.86 2.016 2.997 2.494a11.47 11.47 0 009.045-.078c.58-.306.07-1.153-.486-.902z" fill="#1E7ADD"/><path d="M90.786 21.844l-1.797 1.624-.29.267c-1.648.448-3.376.51-5.052.18-.502-.102-1.114-.4-1.043-.91.125-.894 2.04-.564 2.024-1.45a.596.596 0 00-.495-.55l.102-.047-3.561-2.965c.36-.103.732-.164 1.106-.18a10.897 10.897 0 018.802 3.78l.204.251z" fill="#fff"/><path d="M90.582 21.42l-1.632 1.475-.165.157c-.07.07-.143.135-.22.197-.11.062.063 0-.22 0-.945.181-1.907.273-2.87.274-.275 0-2.354-.102-2.244-.573.047-.227.785-.321.98-.384a1.372 1.372 0 001.013-.831 1.09 1.09 0 00-.785-1.303l.118.895.102-.048a.495.495 0 00.102-.784L81.2 17.53l-.22.784a8.903 8.903 0 015.491.604c1.63.68 3.062 1.76 4.165 3.138.393.494 1.083-.204.69-.69a11.485 11.485 0 00-4.596-3.373 9.782 9.782 0 00-5.993-.596.486.486 0 00-.212.784l3.561 2.965.094-.784-.102.047c-.415.196-.235.784.118.894.353.11-.612.369-.737.416a1.522 1.522 0 00-1.09.831c-.628 1.75 2.463 1.867 3.443 1.883.958.012 1.914-.091 2.848-.306.376-.1.715-.304.98-.588l1.687-1.53c.416-.36-.282-1.043-.745-.588zM127.781 23.233a11.767 11.767 0 00.219 8.77c1.161 2.8 3.091 5.178 4.707 7.72 3.287 5.177 4.362 11.17 4.503 17.21.086 3.405-.102 6.817-.306 10.198 0 .785 1.137.785 1.177 0 .353-5.813.651-11.704-.369-17.47a29.724 29.724 0 00-2.573-8.056c-1.341-2.699-3.256-5.036-4.785-7.61-1.961-3.286-2.809-6.8-1.428-10.472.259-.706-.871-1.012-1.137-.306l-.008.016z" fill="#1E7ADD"/><path d="M154.978 66.174c.172-.047-4.456-.863-4.44-1.043.063-.698.423-2.393 2.353-2.087a11.269 11.269 0 017.304 6.339c2.518 5.373 1.082 5.781-2.699 3.279-3.42-2.267-8.417-5.53-2.628-5.037.243.032-.235-1.349.11-1.45z" fill="#4BA7FA"/><path opacity=".51" d="M155.951 66.692c1.318 1.514 1.765 3.295.98 3.97-.784.674-2.487 0-3.804-1.523-1.318-1.521.98-1.521 1.757-2.204.776-.682-.259-1.757 1.067-.243z" fill="#1D79DE"/><path d="M137.469 68.135a37.022 37.022 0 019.335-2.243c1.54-.152 3.089-.21 4.636-.173.784 0 3.138-.07 3.263 1.177.055.745 1.232.784 1.177 0a2.478 2.478 0 00-2.149-2.134 18.313 18.313 0 00-5.28-.172 37.918 37.918 0 00-11.296 2.416c-.706.266-.4 1.396.314 1.13z" fill="#1E7ADD"/><path d="M151.189 68.19a48.47 48.47 0 004.77 4.213 13.376 13.376 0 002.659 1.482c.831.361 2.212 1.09 3.02.353.808-.737.416-1.882.165-2.698a11.706 11.706 0 00-1.569-3.075 32.105 32.105 0 00-2.15-2.683 14.848 14.848 0 00-2.353-2.29 4.66 4.66 0 00-3.201-1.013 3.219 3.219 0 00-2.675 1.985c-.29.698.848 1.004 1.138.314a2.086 2.086 0 012.024-1.146 4.085 4.085 0 012.353 1.044 21.32 21.32 0 013.664 4.079c.54.734 1 1.522 1.372 2.353.165.392.299.796.401 1.209.047.18.29.94.07 1.09-.22.149-1.067-.282-1.294-.369a11.098 11.098 0 01-1.248-.541 14.412 14.412 0 01-2.008-1.255 55.334 55.334 0 01-4.283-3.844c-.549-.518-1.388.314-.831.824l-.024-.032zM119.583 35.816c2.448 3.663.345 8.244 0 12.237a65.14 65.14 0 00.738 14.191c1.035 7.617 2.824 15.1 3.922 22.71.423 2.958.988 6.276.282 9.273-.18.729.957 1.043 1.13.305.627-2.604.282-5.444-.039-8.072-.448-3.702-1.13-7.366-1.812-11.03-1.616-8.628-3.601-17.579-3.099-26.428.149-2.58.784-5.052 1.122-7.609a8.712 8.712 0 00-1.232-6.174c-.416-.62-1.435 0-1.012.597z" fill="#1E7ADD"/><path d="M128.165 68.74c-.941 4.926.141 9.923.353 14.904.157 3.562.235 8.668-3.695 10.308-.69.29-.384 1.428.314 1.137 3.993-1.678 4.644-6.064 4.605-9.923-.055-5.342-1.459-10.786-.439-16.09.141-.737-.989-1.05-1.138-.305v-.032z" fill="#1E7ADD"/><path d="M127.6 61.138c.157 1.569.22 3.185.338 4.777.086 1.177.251 2.354.392 3.507.036 1.322.282 2.63.729 3.875 1.177 2.542 4.307 2.863 6.668 1.914a21.336 21.336 0 003.923-2.353 30.175 30.175 0 014.369-2.448 27.958 27.958 0 0111.335-2.463.59.59 0 00.589-.588.59.59 0 00-.589-.589 29.966 29.966 0 00-16.834 5.452c-2.055 1.405-5.868 3.868-8.009 1.193-.871-1.099-.84-2.675-.997-4.001-.157-1.326-.298-2.353-.384-3.373-.126-1.64-.18-3.271-.345-4.91-.079-.746-1.255-.785-1.177 0l-.008.007z" fill="#1E7ADD"/><path d="M121.56 16.275s.078 3.553 1.412 4.126c1.334.573-3.028 3.844-4.158 1.765 0 0 .267-3.232-.619-4.832 0 0 1.835 1.521 3.365-1.06z" fill="#fff"/><path d="M120.164 23.32a1.897 1.897 0 01-1.758-.99.6.6 0 01-.07-.329c.07-.847.11-3.31-.549-4.495a.587.587 0 01.894-.73c.321.235.719.339 1.114.291a2.233 2.233 0 001.373-1.2.584.584 0 01.65-.264.587.587 0 01.44.546c0 1.279.392 3.318 1.059 3.609a.943.943 0 01.604.996c-.118 1.035-1.843 2.251-3.185 2.51-.188.037-.38.056-.572.055zm-.644-1.42c.118.148.361.313.902.227a3.924 3.924 0 002.268-1.38c-.91-.526-1.311-1.962-1.475-3.139-.351.3-.777.501-1.232.58a2.05 2.05 0 01-.69 0c.237 1.222.314 2.47.227 3.711z" fill="#1E7ADD"/><path d="M123.097 12.51c-.698 2.815-1.765 4.518-3.757 5.145-1.028.33-4.346-2.47-4.981-6.205-.542-3.208-.581-5.491 1.365-6.534.321-.18 1.263.133 1.639.07.541-.086.918-.823 1.373-.737 1.373.25 2.212 1.177 3.012 3.138l.228.627s2.102-.714 2.432.942c.329 1.655-1.295 3.341-1.295 3.341l-.016.212z" fill="#fff"/><path d="M119.269 18.157a2.63 2.63 0 01-1.302-.447 9.82 9.82 0 01-4.079-6.276c-.486-2.886-.785-5.82 1.663-7.146.426-.156.89-.172 1.326-.047.166.03.333.048.502.055.145-.065.278-.155.392-.267a1.457 1.457 0 011.185-.47c1.568.29 2.549 1.31 3.451 3.53l.055.149a2.744 2.744 0 011.757.235 1.883 1.883 0 01.879 1.287c.321 1.623-.871 3.192-1.302 3.694a.415.415 0 010 .087c-.785 3.192-2.071 4.91-4.15 5.561a1.09 1.09 0 01-.377.055zm-3.138-12.826h-.07c-1.569.84-1.569 2.801-1.012 5.9.596 3.522 3.601 5.86 4.236 5.75 1.647-.526 2.651-1.922 3.342-4.707v-.133a.636.636 0 01.165-.361s1.404-1.49 1.145-2.824a.669.669 0 00-.314-.495 2.03 2.03 0 00-1.349 0 .589.589 0 01-.745-.353l-.228-.627c-.847-2.087-1.608-2.612-2.565-2.793 0 0-.126.134-.212.212-.265.26-.596.445-.957.533a3.195 3.195 0 01-.886-.055 3.875 3.875 0 00-.55-.047z" fill="#1E7ADD"/><path opacity=".51" d="M110.279 27.626l5.633-3.295-.141 3.295h-5.492z" fill="#1D79DE"/><path d="M115.888 24.457a7.51 7.51 0 000 6.377.59.59 0 001.012-.588 6.276 6.276 0 01-.039-5.193.603.603 0 00-.212-.785.596.596 0 00-.784.212l.023-.023z" fill="#1E7ADD"/><path d="M115.363 26.99c.196-.11-.079 0-.087 0l-.596.055c-.69 0-1.38.055-2.071.063-2.126 0-4.251-.055-6.37-.212a58.524 58.524 0 01-16.967-3.444c-.706-.274-1.012.855-.314 1.13 5.57 2.165 11.594 3.138 17.54 3.507 2.197.149 4.401.227 6.598.188.784 0 2.141.157 2.863-.267a.59.59 0 00-.596-1.012v-.008zM70.947 21.044h-.087s-.84-.125-.996-.133a.588.588 0 01-.55-.62.565.565 0 01.605-.557c.147.01.294.029.44.055v-3.624a.589.589 0 011.176 0v4.29a.59.59 0 01-.204.448.628.628 0 01-.384.141z" fill="#1E7ADD"/><path d="M70.735 24.66a.542.542 0 01-.345-.101l-4.613-3.97a.597.597 0 01-.063-.831l2.918-3.373a.579.579 0 01.824-.063.588.588 0 01.063.831l-2.526 2.926 3.718 3.209 3.2-3.719-1.192-1.027a.592.592 0 01-.054-.84.594.594 0 01.839-.055l1.64 1.413a.588.588 0 01.063.831l-4.033 4.573a.58.58 0 01-.44.197z" fill="#1E7ADD"/></svg>