<svg width="142" height="42" fill="none" xmlns="http://www.w3.org/2000/svg"><path d="M.84 6.295A5.813 5.813 0 016.651.482h129.535A5.812 5.812 0 01142 6.295v29.892A5.812 5.812 0 01136.187 42H6.652a5.813 5.813 0 01-5.813-5.813V6.296z" fill="#000"/><path d="M51.126 13.261h1.229v2.359c-.316.238-.681.42-1.096.548a4.257 4.257 0 01-1.254.19 3.428 3.428 0 01-1.628-.381 2.944 2.944 0 01-1.137-1.072 2.996 2.996 0 01-.407-1.552c0-.576.135-1.09.407-1.545.276-.46.658-.816 1.145-1.071a3.436 3.436 0 011.645-.39c.509 0 .971.086 1.386.257.416.172.764.42 1.047.748l-.864.797a1.997 1.997 0 00-1.503-.656c-.37 0-.7.077-.988.232a1.668 1.668 0 00-.673.656 1.93 1.93 0 00-.24.972c0 .36.08.68.24.963.16.282.382.504.665.664.288.155.614.233.98.233a2.18 2.18 0 001.046-.25v-1.702zM57.889 14.042c0 .017-.009.133-.025.349h-3.38c.061.276.205.495.432.656.227.16.51.24.847.24.233 0 .437-.033.615-.1.182-.071.351-.182.506-.331l.69.747c-.421.481-1.036.722-1.844.722-.504 0-.95-.096-1.337-.29a2.19 2.19 0 01-.897-.822 2.254 2.254 0 01-.315-1.188c0-.437.102-.83.307-1.179a2.18 2.18 0 01.855-.822c.366-.2.772-.299 1.22-.299.438 0 .834.094 1.188.283.355.188.631.459.83.813.205.349.308.756.308 1.22zm-2.317-1.337c-.293 0-.54.083-.739.25a1.06 1.06 0 00-.365.68h2.2a1.055 1.055 0 00-.365-.673 1.081 1.081 0 00-.73-.257zM61.633 16.043a1.384 1.384 0 01-.474.216 2.46 2.46 0 01-.581.066c-.531 0-.944-.135-1.237-.406-.288-.272-.432-.67-.432-1.196v-1.835h-.69v-.997h.69v-1.088h1.295v1.088h1.113v.997h-1.113v1.818c0 .188.047.335.142.44.1.1.238.15.415.15.204 0 .379-.056.523-.166l.349.913zM64.711 11.792h1.296v4.467H64.71v-4.467zm.648-.623a.821.821 0 01-.581-.208.673.673 0 01-.224-.515c0-.204.074-.376.224-.514a.821.821 0 01.581-.208c.238 0 .432.066.581.2a.64.64 0 01.225.498.718.718 0 01-.225.54.822.822 0 01-.581.207zM70.09 16.043a1.384 1.384 0 01-.473.216 2.46 2.46 0 01-.581.066c-.532 0-.944-.135-1.238-.406-.287-.272-.431-.67-.431-1.196v-1.835h-.69v-.997h.69v-1.088h1.295v1.088h1.113v.997h-1.113v1.818c0 .188.047.335.141.44.1.1.238.15.415.15.205 0 .38-.056.523-.166l.35.913zM75.295 16.325c-.47 0-.894-.096-1.27-.29-.372-.2-.662-.474-.873-.822a2.254 2.254 0 01-.315-1.188c0-.443.105-.838.315-1.187.21-.349.501-.62.872-.814.377-.2.8-.299 1.27-.299.471 0 .892.1 1.263.3.37.193.661.464.872.813.21.349.315.744.315 1.187 0 .443-.105.839-.315 1.188-.21.348-.501.622-.872.822-.371.194-.792.29-1.262.29zm0-1.063c.332 0 .603-.11.813-.332.216-.227.324-.528.324-.905 0-.376-.108-.675-.324-.896a1.06 1.06 0 00-.813-.341c-.332 0-.606.114-.822.34-.216.222-.324.52-.324.897s.108.678.324.905c.216.222.49.332.822.332zM81.325 11.725c.554 0 1 .166 1.337.498.343.332.515.825.515 1.478v2.558h-1.295V13.9c0-.355-.078-.617-.233-.79-.155-.176-.379-.265-.672-.265-.327 0-.587.103-.78.307-.195.2-.292.499-.292.897v2.209H78.61v-4.467h1.237v.523c.172-.188.385-.332.64-.432.254-.105.534-.158.838-.158zM53.896 26.41h1.966v3.772c-.505.381-1.09.674-1.754.877a6.81 6.81 0 01-2.006.306c-.965 0-1.833-.204-2.604-.611a4.712 4.712 0 01-1.82-1.714c-.434-.735-.65-1.563-.65-2.485 0-.92.216-1.744.65-2.47a4.562 4.562 0 011.834-1.715c.779-.416 1.656-.624 2.63-.624.815 0 1.554.137 2.219.412a4.396 4.396 0 011.674 1.195l-1.382 1.276c-.664-.7-1.466-1.05-2.405-1.05-.593 0-1.12.124-1.58.372a2.67 2.67 0 00-1.077 1.05c-.257.452-.385.97-.385 1.554 0 .576.128 1.09.385 1.541.257.452.611.806 1.063 1.063.46.248.983.372 1.568.372.62 0 1.178-.133 1.674-.398v-2.724zM61.116 31.312c-.752 0-1.43-.155-2.032-.465a3.563 3.563 0 01-1.395-1.316c-.337-.558-.505-1.191-.505-1.9 0-.708.168-1.341.505-1.9a3.47 3.47 0 011.395-1.301c.602-.32 1.28-.479 2.032-.479.753 0 1.426.16 2.02.479a3.47 3.47 0 011.395 1.302c.336.558.505 1.19.505 1.9 0 .708-.169 1.341-.505 1.9a3.564 3.564 0 01-1.395 1.315c-.594.31-1.267.465-2.02.465zm0-1.701c.532 0 .966-.177 1.302-.531.346-.363.519-.846.519-1.448 0-.603-.173-1.081-.519-1.435-.336-.363-.77-.545-1.302-.545-.531 0-.97.181-1.315.545-.345.354-.518.832-.518 1.434 0 .603.173 1.085.518 1.449.346.354.784.531 1.315.531zM69.822 31.312c-.753 0-1.43-.155-2.032-.465a3.563 3.563 0 01-1.396-1.316c-.336-.558-.504-1.191-.504-1.9 0-.708.168-1.341.504-1.9a3.47 3.47 0 011.395-1.301c.603-.32 1.28-.479 2.033-.479.753 0 1.426.16 2.02.479.593.31 1.058.744 1.395 1.302.336.558.505 1.19.505 1.9 0 .708-.169 1.341-.505 1.9a3.564 3.564 0 01-1.395 1.315c-.594.31-1.267.465-2.02.465zm0-1.701c.532 0 .966-.177 1.302-.531.346-.363.518-.846.518-1.448 0-.603-.172-1.081-.518-1.435-.336-.363-.77-.545-1.302-.545-.531 0-.97.181-1.315.545-.346.354-.518.832-.518 1.434 0 .603.172 1.085.518 1.449.345.354.784.531 1.315.531zM82.5 24.058v5.952c0 1.31-.34 2.285-1.023 2.922-.682.638-1.678.957-2.989.957-.69 0-1.346-.084-1.966-.252-.62-.169-1.134-.412-1.541-.731l.823-1.488c.302.248.682.443 1.143.584.46.151.921.226 1.382.226.717 0 1.244-.163 1.58-.491.346-.32.519-.806.519-1.462v-.305c-.54.593-1.293.89-2.259.89a3.88 3.88 0 01-1.807-.425 3.35 3.35 0 01-1.288-1.223c-.32-.522-.479-1.124-.479-1.806 0-.682.16-1.285.479-1.807a3.255 3.255 0 011.288-1.21 3.786 3.786 0 011.807-.438c1.037 0 1.825.341 2.365 1.023v-.916H82.5zm-3.919 5.101c.55 0 .996-.16 1.342-.478.354-.328.531-.753.531-1.275 0-.523-.177-.944-.531-1.262-.346-.328-.793-.492-1.342-.492-.55 0-1 .164-1.355.491-.354.32-.531.74-.531 1.263 0 .522.177.947.53 1.275.355.319.807.478 1.356.478zM84.43 21.347h2.072v9.858h-2.073v-9.858zM95.427 27.658c0 .027-.013.213-.04.558H89.98c.097.443.328.793.69 1.05.364.257.816.385 1.356.385.372 0 .7-.053.983-.16a2.47 2.47 0 00.81-.531l1.103 1.196c-.673.77-1.656 1.156-2.95 1.156-.805 0-1.518-.155-2.138-.465a3.502 3.502 0 01-1.435-1.316c-.337-.558-.505-1.191-.505-1.9 0-.7.164-1.328.492-1.886a3.488 3.488 0 011.368-1.315 4.01 4.01 0 011.953-.479c.7 0 1.333.15 1.9.452.567.301 1.01.735 1.329 1.302.327.558.491 1.209.491 1.953zm-3.707-2.139c-.47 0-.863.133-1.182.399-.319.265-.514.629-.585 1.089h3.521c-.07-.452-.266-.81-.585-1.076-.318-.275-.708-.412-1.169-.412zM104.741 21.905c.824 0 1.537.138 2.139.412.611.275 1.081.665 1.408 1.17.328.504.492 1.102.492 1.793 0 .682-.164 1.28-.492 1.793-.327.505-.797.895-1.408 1.17-.602.265-1.315.398-2.139.398h-1.873v2.564h-2.152v-9.3h4.025zm-.119 4.982c.646 0 1.138-.137 1.474-.411.337-.284.505-.682.505-1.196 0-.523-.168-.921-.505-1.196-.336-.283-.828-.425-1.474-.425h-1.754v3.229h1.754zM110.3 21.347h2.073v9.858H110.3v-9.858zM117.179 23.951c1.107 0 1.958.266 2.551.797.594.523.89 1.316.89 2.379v4.078h-1.939v-.89c-.39.665-1.116.997-2.179.997-.549 0-1.028-.093-1.435-.28a2.137 2.137 0 01-.917-.77 2.01 2.01 0 01-.319-1.116c0-.664.248-1.187.744-1.568.505-.38 1.28-.571 2.325-.571h1.648c0-.452-.138-.797-.412-1.036-.275-.248-.687-.372-1.236-.372-.381 0-.757.062-1.129.186a2.886 2.886 0 00-.93.478l-.744-1.448a4.5 4.5 0 011.395-.638 6.352 6.352 0 011.687-.226zm-.159 5.966c.354 0 .669-.08.943-.24.275-.168.47-.411.585-.73v-.731h-1.422c-.85 0-1.275.279-1.275.837a.77.77 0 00.305.638c.213.15.501.226.864.226zM129.461 24.058l-3.229 7.586c-.327.824-.735 1.404-1.222 1.74-.478.337-1.058.505-1.74.505-.372 0-.74-.058-1.103-.173a2.43 2.43 0 01-.89-.478l.757-1.475a1.807 1.807 0 001.169.452c.284 0 .514-.07.691-.213.177-.132.337-.358.478-.677l.027-.066-3.096-7.201h2.139l2.007 4.849 2.019-4.85h1.993z" fill="#fff"/><path fill-rule="evenodd" clip-rule="evenodd" d="M16.616 21.15v-8.924c0-.482.424-.95.876-.95.41 0 .599.118.803.22l16.372 8.952c.35.19.526.439.526.701 0 .249-.175.512-.526.701l-16.372 8.938c-.204.103-.394.22-.803.22-.453 0-.876-.453-.876-.95V21.15z" fill="url(#paint0_linear)"/><path fill-rule="evenodd" clip-rule="evenodd" d="M27.248 21.208l-9.902-9.902c.044-.015.102-.015.16-.015.41 0 .6.117.804.22l12.064 6.586-3.126 3.11z" fill="url(#paint1_linear)"/><path fill-rule="evenodd" clip-rule="evenodd" d="M30.286 24.246l-3.038-3.038 3.11-3.11 4.31 2.35c.35.19.525.439.525.701 0 .249-.175.512-.526.701l-4.381 2.396z" fill="url(#paint2_linear)"/><path fill-rule="evenodd" clip-rule="evenodd" d="M17.448 31.008l9.8-9.8 3.038 3.038-11.976 6.543c-.204.102-.394.219-.803.219-.03.014-.044.014-.059 0z" fill="url(#paint3_linear)"/><defs><linearGradient id="paint0_linear" x1="22.68" y1="11.107" x2="26.592" y2="28.729" gradientUnits="userSpaceOnUse"><stop stop-color="#016A84"/><stop offset="1" stop-color="#8FD2C8"/></linearGradient><linearGradient id="paint1_linear" x1="16.294" y1="13.688" x2="29.722" y2="19.197" gradientUnits="userSpaceOnUse"><stop stop-color="#3DBEB4"/><stop offset="1" stop-color="#D0E294"/></linearGradient><linearGradient id="paint2_linear" x1="31.219" y1="24.557" x2="31.219" y2="17.817" gradientUnits="userSpaceOnUse"><stop stop-color="#FCBB74"/><stop offset="1" stop-color="#F68A5E"/></linearGradient><linearGradient id="paint3_linear" x1="18.478" y1="31.037" x2="28.468" y2="22.964" gradientUnits="userSpaceOnUse"><stop stop-color="#693593"/><stop offset="1" stop-color="#EE2F39"/></linearGradient></defs></svg>