<svg width="56" height="47" fill="none" xmlns="http://www.w3.org/2000/svg"><path d="M26.667 22.544h-2.334c-.333 0-.666-.337-.666-.673v-2.02c0-.335.333-.672.666-.672h2.334c.333 0 .666.337.666.673v2.019c-.333.336-.333.673-.666.673zM26.667 27.254h-2.334S24 26.918 24 26.581v-2.018c0-.337.333-.673.667-.673h2c.333 0 .666.336.666.673v2.018c-.333.337-.333.673-.666.673zM31.667 22.544h-2.334c-.333 0-.666-.337-.666-.673v-2.02c0-.335.333-.672.666-.672h2c.334 0 .667.337.667.673v2.019c0 .336 0 .673-.333.673zM31.667 27.254h-2.334S29 26.918 29 26.581v-2.018c0-.337.333-.673.667-.673h2c.333 0 .666.336.666.673v2.018c-.333.337-.333.673-.666.673z" fill="#E8C741"/><path d="M28.333 0c-.666 0-1 0-1 .336L.667 24.226C0 24.226 0 24.563 0 24.9v6.73c0 1.345 1.333 2.018 2.333 1.345l25-22.207c.334-.336.667-.336 1-.336V0z" fill="#1D79DD"/><path d="M29 .336C28.667 0 28.333 0 28.333 0v10.43c.334 0 .667 0 .667.337l11.667 10.43c1 .674 2.333 0 2.333-1.009v-6.73c0-.335 0-.672-.333-1.008L29 .335z" fill="#4BA7FA"/><path d="M28 46.433c.333 0 .667 0 1-.336l26.667-23.89c.333-.336.333-.673.333-1.01v-6.729c0-1.01-1.333-1.682-2.333-1.01l-25 22.208c-.334.337-.667.337-1 .337v10.43H28z" fill="#59E659"/><path d="M27.333 46.097c.334.336.334.336.667.336v-10.43c-.333 0-.667 0-.667-.337l-12-10.43c-.666-1.01-2-.337-2 1.009v6.73c0 .336 0 .672.334 1.009l13.666 12.113z" fill="#27AD27"/></svg>