<?xml version="1.0" standalone="no"?>
<!DOCTYPE svg PUBLIC "-//W3C//DTD SVG 20010904//EN"
 "http://www.w3.org/TR/2001/REC-SVG-20010904/DTD/svg10.dtd">
<svg version="1.0" xmlns="http://www.w3.org/2000/svg"
 width="300.000000pt" height="300.000000pt" viewBox="0 0 300.000000 300.000000"
 preserveAspectRatio="xMidYMid meet">
<metadata>
Created by potrace 1.14, written by Peter Selinger 2001-2017
</metadata>
<g transform="translate(0.000000,300.000000) scale(0.100000,-0.100000)"
fill="#000000" stroke="none">
<path d="M1463 2726 c-4 -7 -96 -92 -203 -187 -107 -95 -200 -178 -206 -184
-6 -5 -48 -44 -94 -85 -46 -41 -88 -79 -94 -85 -6 -5 -52 -46 -101 -90 -97
-87 -161 -144 -179 -160 -6 -6 -96 -87 -201 -180 -104 -93 -195 -174 -201
-180 -52 -50 -150 -131 -165 -137 -18 -7 -19 -20 -19 -208 0 -244 8 -270 86
-270 22 0 57 28 229 182 17 14 39 35 51 45 25 21 166 148 203 181 22 21 89 80
163 144 11 9 54 48 96 85 41 37 84 76 96 86 12 10 50 44 85 75 35 31 72 64 81
72 9 8 50 44 90 80 40 36 81 72 90 80 9 8 50 45 91 82 118 106 121 108 150
108 17 0 39 -11 57 -27 15 -16 66 -62 112 -103 82 -72 130 -116 215 -192 22
-20 49 -45 61 -55 12 -10 57 -50 100 -89 121 -109 140 -124 162 -124 36 0 71
22 79 49 5 14 8 113 7 220 l-1 194 -49 46 c-27 25 -72 66 -100 91 -28 25 -83
74 -124 110 -40 36 -82 73 -94 83 -39 34 -141 125 -167 148 -14 13 -56 51 -94
84 -38 33 -84 75 -104 92 -39 35 -93 45 -108 19z"/>
<path d="M2904 2031 c-12 -3 -52 -33 -89 -66 -38 -33 -77 -68 -89 -78 -12 -10
-37 -33 -56 -50 -19 -18 -132 -118 -250 -222 -118 -104 -217 -192 -220 -195
-3 -3 -43 -39 -90 -80 -47 -41 -102 -91 -123 -110 -60 -54 -80 -72 -123 -109
-21 -19 -59 -53 -84 -75 -214 -192 -267 -236 -287 -236 -8 0 -29 15 -47 32
-18 18 -57 54 -87 79 -47 41 -142 123 -379 329 -35 30 -81 71 -103 90 -22 19
-49 43 -60 53 -27 23 -60 22 -83 -4 -17 -19 -19 -40 -20 -232 l-1 -212 51 -50
c28 -28 87 -82 131 -120 44 -39 85 -74 91 -80 15 -14 153 -137 174 -155 24
-21 161 -143 174 -155 6 -5 44 -39 83 -73 84 -74 102 -76 168 -14 22 20 81 73
130 117 50 43 97 86 106 95 9 8 36 33 60 54 24 22 64 58 89 80 25 23 81 73
125 111 43 39 89 79 102 91 37 34 174 157 197 177 12 10 54 49 95 85 41 37 81
74 91 82 41 36 165 147 190 170 15 14 65 59 111 100 46 41 91 83 101 93 16 15
18 38 18 225 0 152 -3 212 -12 223 -19 22 -60 36 -84 30z"/>
<path d="M1320 1712 c-19 -2 -39 -7 -44 -12 -13 -13 -10 -139 4 -155 7 -9 36
-13 86 -12 65 0 76 3 86 21 15 27 17 124 3 141 -10 14 -75 22 -135 17z"/>
<path d="M1572 1712 c-30 -5 -39 -26 -37 -100 1 -43 6 -66 16 -73 7 -5 47 -9
87 -9 72 0 72 0 73 28 3 73 0 135 -8 142 -9 9 -96 17 -131 12z"/>
<path d="M1298 1446 c-14 -14 -17 -134 -3 -156 3 -5 37 -10 74 -10 60 0 70 3
83 23 14 22 17 110 5 142 -8 20 -139 22 -159 1z"/>
<path d="M1561 1437 c-12 -31 -11 -129 2 -144 6 -8 35 -13 78 -13 61 0 70 3
81 23 15 27 11 139 -5 149 -7 4 -42 8 -80 8 -61 0 -68 -2 -76 -23z"/>
</g>
</svg>
