<svg width="308" height="438" fill="none" xmlns="http://www.w3.org/2000/svg"><path d="M249.636 106.519c.27.266.81.266 1.08 0l4.318-4.255c.27-.266.27-.798 0-1.064s-.81-.266-1.08 0l-4.183 4.122c-.405.399-.405.798-.135 1.197z" fill="#1D79DE"/><path opacity=".51" d="M223.054 115.562v-2.393l6.882-8.112h2.294l-9.176 10.505zM44.8 209.05h46.014l-.27-5.187-.135-1.595-44.934-.133-.27 1.728-.405 5.187z" fill="#1D79DE"/><path d="M116.048 10.904V151.734c.269 6.25 5.262 11.171 11.334 11.836H270.957c1.619 0 3.104-.266 4.588-.798 1.08-.399 2.024-.931 2.969-1.596.405-1.197.539-2.394.539-3.724V14.095c0-6.915-5.667-12.5-12.549-12.5H121.985c-.54 0-1.08 0-1.619.133a13.291 13.291 0 00-3.104 3.99c-.81 1.462-1.214 3.191-1.214 5.186z" fill="#4BA7FA"/><path d="M128.597 165.166h142.36c1.755 0 3.509-.266 5.128-.931 1.214-.531 2.294-1.063 3.239-1.861l.404-.266.135-.399c.405-1.33.675-2.793.675-4.256V14.096C280.673 6.25 274.196 0 266.369 0H121.85c-.675 0-1.214 0-1.889.133h-.54l-.405.266c-1.484 1.197-2.563 2.793-3.373 4.388-.945 1.862-1.349 3.857-1.349 5.985v140.963c.404 6.915 5.802 12.5 12.819 13.298h.674c.405.133.675.133.81.133zm148.433-5.053c-.675.399-1.35.798-2.159 1.197a9.804 9.804 0 01-3.914.798H127.518a10.931 10.931 0 01-9.851-10.373V10.905c0-1.596.405-3.192 1.08-4.655.539-1.197 1.349-2.26 2.293-3.191H266.369c6.073 0 11.065 4.92 11.065 10.904v143.224c0 1.064-.135 1.995-.404 2.926z" fill="#fff"/><path d="M138.043 113.303c0 1.729 1.079 3.059 2.833 3.192 1.215.133 1.755.532 1.889 1.729.135.931.405 1.729.81 2.527.135.133.135.266.135.399s-.135.266-.27.266c-.675.531-1.619 1.063-1.889 2.127 0 .133-.135.133-.135.266-.27.798-.135 1.729.405 2.394.675.931 1.349 1.862 2.159 2.793 1.079 1.196 2.834 1.329 4.318.266.405-.266.81-.798 1.349-.798.405 0 .945.532 1.35.665l2.429 1.196c.269.133.404.266.404.665 0 .532-.135.931-.135 1.463 0 1.596 1.08 2.926 2.564 3.192.54.133 1.08.133 1.62.266.404 0 .944.133 1.349.133 1.754.133 3.104-.798 3.508-2.527v-.133c-.135-1.33.54-1.862 1.89-1.995.809-.133 1.619-.399 2.293-.665.54-.133.81-.133 1.08.266.27.266.405.665.675.931 1.079 1.197 2.833 1.463 4.183.532.944-.665 1.889-1.33 2.699-2.128 1.214-1.063 1.349-2.659.404-3.989-.27-.399-.674-.798-.944-1.197a.4.4 0 010-.532c.135-.266.27-.532.405-.665.539-.931.944-1.729 1.484-2.659.135-.266.27-.399.675-.266.539 0 1.079.133 1.619.133 1.484 0 2.699-1.064 2.969-2.527.134-1.064.269-2.261.404-3.325a2.952 2.952 0 00-2.429-3.191c-.404-.133-.944-.133-1.484-.266-.27 0-.405-.133-.54-.532-.27-1.197-.674-2.394-1.079-3.724-.135-.266-.135-.532.135-.665.405-.266.809-.665 1.214-.931 1.08-1.064 1.35-2.659.405-3.856-.675-.931-1.349-1.862-2.024-2.66-1.08-1.197-2.834-1.463-4.183-.532-.405.266-.675.532-1.08.798-.27.266-.539.133-.809 0-1.08-.665-2.159-1.197-3.239-1.862-.27-.133-.54-.399-.405-.665.135-.398.135-.93.135-1.33 0-1.462-.944-2.792-2.429-3.191a16.98 16.98 0 00-3.643-.399c-1.619 0-2.834 1.064-3.103 2.527v.133c.134 1.33-.54 1.862-1.89 1.994-.809 0-1.619.4-2.429.798-.269.133-.539.133-.674-.133a7.68 7.68 0 00-1.485-1.463c-1.079-.797-2.294-.797-3.373-.132-1.08.664-2.159 1.462-3.104 2.393-1.079.931-1.214 2.527-.404 3.724.269.399.674.931.944 1.33.27.266.135.399 0 .665a41.354 41.354 0 00-1.889 3.324c-.135.266-.27.399-.675.399-.405-.133-.944-.133-1.484-.133-1.484 0-2.834.931-3.104 2.394-.269.798-.404 1.995-.404 3.191z" fill="#1D79DE"/><path opacity=".51" d="M207.266 19.15l1.08 3.191 4.183 12.102 2.968-1.064 2.294-.665-5.262-15.293-5.263 1.729zM211.854 48.405c.269 1.064.674 1.995 1.079 3.191 2.969 7.448 8.636 16.092 8.636 16.092 3.239-.267 6.342-.931 9.041-1.73l1.215-.398v-5.453s2.833 2.128 4.722 3.59a38.28 38.28 0 0010.391-6.914c2.429-2.261 3.508-3.857 3.508-3.857-15.518 0-20.915-10.107-20.915-10.107-.54-.133-17.677 5.586-17.677 5.586zM208.076 35.774l.945 3.325 1.214 4.787 14.573-4.122 3.374-1.064-5.128-6.782-7.421 1.861-5.398 1.463-2.159.532zM136.018 111.839c.27-1.463 1.619-2.394 3.239-2.394.539 0 1.079.133 1.484.133s.54-.133.675-.399c.674-1.197 1.349-2.261 2.024-3.457.135-.266.135-.399 0-.665-.405-.399-.675-.931-1.08-1.33-.809-1.197-.674-2.926.405-3.857.945-.93 2.024-1.729 3.104-2.394 1.079-.797 2.429-.664 3.508.133.54.4 1.08 1.064 1.484 1.596.27.266.405.266.81.266.81-.266 1.619-.665 2.564-.798 1.349-.133 2.024-.665 2.024-2.127v-.133c.27-1.596 1.619-2.66 3.238-2.66 1.215 0 2.564.266 3.779.399 1.619.266 2.564 1.729 2.564 3.192 0 .531-.135.93-.135 1.33-.135.398.135.531.404.797a42.427 42.427 0 013.374 1.862c.27.133.54.266.81 0 .404-.266.674-.532 1.079-.798 1.484-.93 3.239-.798 4.318.532.81.931 1.484 1.862 2.159 2.793.945 1.33.675 3.058-.405 4.122-.405.399-.809.665-1.214 1.064-.27.266-.27.399-.135.665.405 1.197.81 2.527 1.079 3.857.135.266.27.532.54.532.54 0 1.08.132 1.484.265 1.62.399 2.699 1.729 2.564 3.325-.135 1.197-.27 2.394-.404 3.458-.27 1.462-1.62 2.526-3.104 2.526-.54 0-1.08-.133-1.754-.133-.27 0-.54 0-.675.399l-1.619 2.793-.405.798c-.135.133-.135.399 0 .665.27.399.675.798.945 1.197.944 1.33.674 3.058-.54 4.122-.945.798-1.889 1.463-2.834 2.128-1.349.931-3.104.665-4.318-.532-.27-.266-.54-.532-.675-.931-.27-.399-.539-.532-1.079-.266-.81.266-1.619.665-2.429.798-1.349.133-2.024.665-1.889 1.995v.133c-.405 1.729-1.889 2.792-3.644 2.659-.539 0-.944-.132-1.484-.132-.54-.133-1.079-.133-1.754-.266-1.619-.266-2.834-1.596-2.699-3.325 0-.532.135-1.064.135-1.463s0-.532-.405-.665a5529.6 5529.6 0 00-2.429-1.197c-.404-.266-.944-.798-1.349-.798s-.945.532-1.349.931c-1.485 1.064-3.239.931-4.453-.399-.81-.931-1.62-1.861-2.294-2.925-.54-.798-.675-1.596-.405-2.527 0-.133 0-.133.135-.266.405-1.064 1.214-1.596 2.024-2.128.135-.133.27-.266.27-.399v-.399c-.27-.93-.81-1.728-.81-2.659-.135-1.33-.675-1.729-2.024-1.729-1.889-.133-2.969-1.596-2.969-3.325.135-1.596.27-2.792.54-3.989zm3.104 4.122c.674.133 1.484.133 2.159.266.944.133 1.484.532 1.619 1.463.27 1.995.81 3.857 1.619 5.718 0 .133.135.133.135.266.27.665 0 1.197-.54 1.596-.539.399-.944.798-1.484 1.197-.135.133-.27.266-.405.266-.405.266-.405.532-.135.931.54.665.945 1.197 1.485 1.862.27.399.539.399.944.133.54-.399 1.08-.931 1.754-1.33.81-.665 1.485-.665 2.294 0a16.59 16.59 0 004.993 2.792c1.08.399 1.35.931 1.35 2.128-.135.665-.135 1.33-.27 1.995-.135.532.135.798.674.798.405 0 .675.133 1.08.133s.809.133 1.079.133c.54.133.81-.133.81-.665.135-.665.135-1.463.27-2.128.135-.931.54-1.463 1.619-1.596 2.024-.266 3.913-.798 5.668-1.595.809-.399 1.484-.266 2.159.532.404.531.944 1.063 1.349 1.728.27.399.54.532.945.133.674-.532 1.214-1.064 1.889-1.463.404-.265.404-.531.135-.797-.54-.532-.945-1.197-1.35-1.729-.674-.798-.674-1.33-.135-2.128.675-.931 1.35-1.729 1.754-2.793.405-.665.675-1.462 1.08-2.26.27-.931.945-1.197 2.024-1.197.675.133 1.484.133 2.294.266.405 0 .675-.133.675-.532.135-.798.135-1.596.27-2.394 0-.532-.135-.665-.54-.665-.675-.133-1.484-.133-2.159-.266-1.08-.133-1.484-.532-1.619-1.596-.27-1.861-.675-3.723-1.62-5.452-.405-.931-.27-1.463.54-2.128.54-.532 1.215-.931 1.889-1.463.27-.266.405-.531.135-.93l-1.619-1.995c-.27-.266-.54-.266-.81-.133-.674.532-1.214.931-1.889 1.463-.81.532-1.484.665-2.159 0a24.253 24.253 0 00-5.128-2.926c-.809-.266-1.214-.931-1.079-1.862.135-.798.135-1.463.27-2.26 0-.4-.135-.665-.54-.665-.81-.133-1.619-.133-2.429-.266-.405 0-.675.133-.675.531-.135.798-.269 1.463-.269 2.261-.135.931-.54 1.463-1.62 1.596-1.889.133-3.778.665-5.532 1.463-1.08.532-1.619.266-2.294-.532-.405-.532-.945-1.064-1.35-1.729-.269-.266-.404-.399-.809-.133l-2.024 1.596c-.405.266-.405.532-.135.931.405.665.944 1.197 1.484 1.862.54.798.675 1.33 0 2.127a16.258 16.258 0 00-2.834 4.921c-.404 1.064-.944 1.33-2.159 1.197-.674-.133-1.349-.133-2.024-.266-.404 0-.674.133-.674.532-.135.798-.135 1.595-.27 2.393-.54.399-.27.665.135.665z" fill="#1D79DE"/><path opacity=".51" d="M149.107 114.631c.675-5.053 5.263-8.511 10.39-7.979 1.754.266 3.239.798 4.453 1.729a9.52 9.52 0 013.779 8.777c-.405 2.527-1.62 4.522-3.509 5.984a9.026 9.026 0 01-6.612 1.862h-.27c-1.619-.266-3.238-.931-4.453-1.862-2.833-1.994-4.318-5.186-3.778-8.511zm8.501 7.447c3.509.399 6.747-2.127 7.017-5.452.405-3.457-2.159-6.516-5.533-7.048-3.508-.399-6.746 2.128-7.151 5.585-.27 3.325 2.294 6.517 5.667 6.915z" fill="#1D79DE"/><path d="M137.637 109.579c.27-1.462 1.62-2.526 3.239-2.393.54 0 1.08 0 1.484.133.405.133.54-.133.675-.399.675-1.197 1.349-2.261 1.889-3.458.135-.266.27-.399 0-.665-.405-.399-.675-.931-.944-1.33-.81-1.196-.675-2.925.404-3.856.945-.931 2.025-1.729 3.104-2.527 1.08-.665 2.429-.665 3.508.133.54.4.945 1.064 1.485 1.596.27.266.405.266.809.266.81-.266 1.62-.665 2.564-.798 1.35-.133 2.024-.665 2.024-2.128v-.133c.27-1.596 1.62-2.66 3.239-2.66 1.214 0 2.564.267 3.778.4 1.619.265 2.564 1.728 2.564 3.191 0 .532 0 .931-.135 1.33s.135.532.405.798c1.214.665 2.294 1.197 3.373 1.862.27.133.54.266.81 0 .405-.266.675-.665 1.079-.798 1.485-.931 3.239-.798 4.318.532a144.23 144.23 0 012.159 2.925c.945 1.33.675 2.926-.404 4.123-.405.399-.81.665-1.215 1.064-.27.266-.27.399-.135.665.405 1.33.81 2.526 1.08 3.856.135.266.27.399.54.532.539.133 1.079.133 1.484.266 1.619.399 2.699 1.729 2.564 3.325-.135 1.197-.27 2.393-.405 3.457-.27 1.463-1.619 2.527-3.104 2.527-.539 0-1.079-.133-1.754-.133-.27 0-.54 0-.675.399l-1.619 2.793-.405.798a.4.4 0 000 .532c.27.398.675.797.945 1.196.944 1.33.675 3.059-.54 4.123-.944.798-1.889 1.596-2.834 2.261-1.349.93-3.103.665-4.318-.532-.269-.266-.539-.532-.674-.931-.27-.399-.54-.532-1.08-.266-.809.266-1.619.665-2.429.665-1.349.133-2.024.665-1.889 1.994v.133c-.405 1.729-1.889 2.793-3.643 2.66-.54 0-.945-.133-1.485-.133-.539 0-1.079-.133-1.754-.266-1.619-.266-2.833-1.596-2.699-3.324 0-.532.135-.931.135-1.463 0-.266 0-.532-.404-.665-.81-.399-1.62-.798-2.564-1.33-.405-.266-.945-.798-1.35-.798-.404 0-.944.532-1.349.931-1.484 1.064-3.239.931-4.453-.399-.81-.931-1.619-1.862-2.294-2.926-.54-.798-.675-1.595-.405-2.526 0-.133 0-.133.135-.266.405-1.064 1.215-1.596 2.024-2.128.135-.133.27-.266.27-.399s0-.266-.135-.399c-.27-.931-.674-1.729-.809-2.66-.135-1.329-.675-1.728-2.025-1.861-1.889-.133-2.968-1.596-2.968-3.325.405-1.064.54-2.394.809-3.591zm3.104 4.123c.675.133 1.484.133 2.159.266.945.133 1.484.532 1.619 1.463.27 1.995.81 3.856 1.62 5.718 0 .133.135.133.135.266.269.665 0 1.197-.54 1.596-.405.399-.945.798-1.485 1.197-.134.133-.269.266-.404.266-.405.266-.405.532-.135.931.539.664.944 1.196 1.484 1.861.27.399.54.399.945.133.539-.399 1.214-.931 1.754-1.33.809-.664 1.484-.664 2.294 0a16.59 16.59 0 004.993 2.793c1.079.399 1.349.931 1.349 2.128 0 .665-.135 1.33-.27 1.995-.135.532.135.798.675.798.405 0 .674.133 1.079.133.405 0 .81 0 1.215.133.539.133.809-.133.809-.665.135-.665.135-1.463.27-2.128.135-.931.54-1.463 1.619-1.596 2.025-.266 3.914-.798 5.668-1.596.81-.399 1.484-.266 2.159.532.405.532.944 1.064 1.349 1.729.27.399.54.532.945.133.675-.532 1.214-1.064 1.889-1.463.405-.266.405-.532.135-.931-.54-.532-.945-1.197-1.349-1.729-.675-.797-.675-1.329-.135-2.127.674-.931 1.349-1.729 1.754-2.793.405-.665.675-1.463 1.079-2.261.27-.931.945-1.197 2.024-1.197.675.133 1.485.133 2.294.266.405 0 .675-.133.675-.532.135-.797.135-1.595.27-2.393 0-.532-.135-.665-.54-.665-.675 0-1.484-.133-2.159-.266-1.079-.133-1.484-.532-1.619-1.596-.27-1.862-.675-3.724-1.619-5.452-.405-.798-.27-1.463.539-2.128.54-.399 1.215-.931 1.89-1.33.404-.266.404-.532.134-.931l-1.619-1.995c-.27-.398-.54-.398-.809-.133-.54.532-1.215.931-1.89 1.463-.809.532-1.484.665-2.159 0a24.286 24.286 0 00-5.127-2.925c-.945-.266-1.215-.931-1.08-1.862 0-.798.135-1.463.27-2.26 0-.4-.135-.533-.54-.666-.809-.133-1.619-.133-2.563-.266-.405-.133-.54.133-.675.532-.135.798-.27 1.463-.27 2.26-.135.932-.54 1.464-1.484 1.597-1.89.133-3.779.665-5.533 1.463-1.079.399-1.619.266-2.294-.665-.405-.532-.944-1.064-1.349-1.73-.27-.398-.54-.398-.81-.132l-2.024 1.596c-.405.266-.405.532-.135.931.405.664.945 1.196 1.484 1.861.54.798.675 1.33 0 2.128a16.242 16.242 0 00-2.833 4.92c-.405 1.064-.945 1.33-2.159 1.197-.675-.133-1.35-.133-2.024-.266-.405 0-.675.133-.675.532-.135.798-.27 1.596-.27 2.527-.675.532-.54.665 0 .665z" fill="#fff"/><path d="M158.418 103.596c2.968 0 5.532 1.197 7.421 3.192 1.62 1.728 2.699 4.122 2.699 6.649 0 5.186-4.048 9.442-9.176 9.841h-.944c-5.533 0-10.121-4.389-10.121-9.974 0-5.32 4.453-9.708 10.121-9.708zm1.079 16.889c3.509.399 6.747-2.128 7.017-5.452.405-3.458-2.159-6.517-5.532-7.049-3.509-.399-6.747 2.128-7.152 5.586-.27 3.324 2.159 6.516 5.667 6.915z" fill="#4BA7FA"/><path d="M150.997 113.038c.674-5.054 5.262-8.511 10.39-7.979 1.754.266 3.238.797 4.453 1.728a9.518 9.518 0 013.778 8.777c-.405 2.527-1.619 4.522-3.508 5.985a9.03 9.03 0 01-6.612 1.861h-.27c-1.619-.266-3.239-.931-4.453-1.861-2.834-1.995-4.318-5.187-3.778-8.511zm8.501 7.447c3.508.399 6.747-2.128 7.017-5.453.404-3.457-2.159-6.516-5.533-7.048-3.508-.399-6.747 2.128-7.152 5.586-.27 3.324 2.159 6.516 5.668 6.915zM217.116 12.901l-5.263 1.73 1.08 3.19 4.048 12.102 2.969-.93 2.293-.798-5.127-15.294zm0-3.058c1.349 0 2.564.798 2.968 2.127l5.263 15.16c.27.799.27 1.597-.135 2.394-.405.798-1.079 1.33-1.889 1.596l-2.294.798-2.969.931c-.27.133-.674.133-.944.133-.54 0-.945-.133-1.35-.266a3.35 3.35 0 01-1.619-1.729l-4.048-12.101-1.08-3.192c-.269-.798-.269-1.596.135-2.394a3.36 3.36 0 011.755-1.595l5.262-1.73c.27-.132.675-.132.945-.132z" fill="#fff"/><path d="M216.441 43.884c.27 1.064.675 1.995 1.08 3.191 2.968 7.448 8.636 16.092 8.636 16.092 3.238-.266 6.342-.931 9.041-1.73l1.214-.398v-5.453s2.834 2.128 4.723 3.591a38.274 38.274 0 0010.39-6.915c2.429-2.26 3.509-3.857 3.509-3.857-15.518 0-20.916-10.107-20.916-10.107-.674-.132-17.677 5.586-17.677 5.586zM212.663 31.25l.809 3.325 1.35 4.788 14.573-4.123 3.239-1.064-4.993-6.782-7.422 1.862-5.397 1.463-2.159.532zM211.854 14.626l1.08 3.192 4.183 12.102 2.968-1.064 2.294-.665-5.262-15.293-5.263 1.728z" fill="#4BA7FA"/><path d="M216.441 43.884c.27 1.064.675 1.995 1.08 3.191 2.968 7.448 8.636 16.092 8.636 16.092 3.238-.266 6.342-.931 9.041-1.73l1.214-.398v-5.453s2.834 2.128 4.723 3.591a38.274 38.274 0 0010.39-6.915c2.429-2.26 3.509-3.857 3.509-3.857-15.518 0-20.916-10.107-20.916-10.107-.674-.132-17.677 5.586-17.677 5.586zM212.663 31.25l.809 3.325 1.35 4.788 14.573-4.123 3.239-1.064-4.993-6.782-7.422 1.862-5.397 1.463-2.159.532zM211.854 14.626l1.08 3.192 4.183 12.102 2.968-1.064 2.294-.665-5.262-15.293-5.263 1.728z" fill="#4BA7FA"/><path d="M217.522 47.075c2.968 7.448 8.636 16.091 8.636 16.091 3.238-.265 6.342-.93 9.041-1.728v-1.995s.539.399 1.214.93v-4.787s2.834 2.128 4.723 3.591a38.272 38.272 0 0010.39-6.915c-13.764-.931-18.621-10.107-18.621-10.107-.405 0-10.661 3.325-15.383 4.92zM213.473 34.177l1.35 5.187 15.787-4.522-2.968-4.255-14.169 3.59zM217.252 29.92l3.508-1.196-4.858-13.963-3.373 1.063 4.723 14.097z" fill="#1D79DE"/><path opacity=".51" d="M165.975 148.41c1.214-.133 17.407-8.245 17.407-7.048 0 3.591-.81 10.506-7.692 13.564-9.311 4.123-19.161 1.197-19.161 1.197s-18.082 3.192-30.766 1.064c-9.581-1.729-7.962-4.521-7.962-4.521l-.135-2.66 48.309-1.596zM246.938 21.145c-.27 1.33-.54 2.527-.674 3.856-.135.665-.405 1.33-.27 1.862.135.665.404 1.33.944 1.862h.27c.54-.665.81-1.33.945-1.862.135-.665-.135-1.33-.27-1.862-.135-1.33-.405-2.526-.675-3.856h-.27zM247.208 39.497c.27-1.33.54-2.527.675-3.857.135-.665.405-1.33.27-1.861-.135-.665-.405-1.33-.945-1.862h-.27a4.825 4.825 0 00-.944 1.862c-.135.665.135 1.33.27 1.861.134 1.33.404 2.527.674 3.857h.27zM238.571 30.321c1.35.266 2.564.532 3.914.665.674.133 1.349.4 1.889.266.674-.133 1.349-.399 1.889-.93v-.267a4.96 4.96 0 00-1.889-.93c-.675-.134-1.35.133-1.889.265-1.35.133-2.564.4-3.914.665v.266zM255.574 30.188c-1.349-.266-2.564-.532-3.913-.665-.675-.133-1.35-.4-1.889-.266-.675.133-1.35.398-1.89.93v.266c.675.532 1.35.798 1.89.931.674.133 1.349-.133 1.889-.266 1.349-.133 2.564-.399 3.913-.665v-.265z" fill="#1D79DE"/><path d="M247.612 20.349c-.27 1.197-.54 2.527-.675 3.723-.135.665-.405 1.197-.27 1.862s.405 1.197.945 1.862h.269c.54-.665.81-1.197.945-1.862.135-.665-.135-1.197-.27-1.862-.135-1.196-.405-2.526-.675-3.723h-.269zM247.881 38.035c.27-1.196.54-2.526.675-3.723.135-.665.405-1.197.27-1.862s-.405-1.197-.945-1.862h-.269c-.54.665-.81 1.197-.945 1.862-.135.665.135 1.197.27 1.862.135 1.197.405 2.527.675 3.724h.269zM239.515 29.258c1.215.266 2.564.532 3.779.665.674.133 1.214.399 1.889.266s1.214-.4 1.889-.931v-.266c-.675-.532-1.214-.798-1.889-.931s-1.215.133-1.889.266c-1.215.133-2.564.399-3.779.665v.266zM255.978 28.992c-1.214-.266-2.564-.532-3.778-.665-.675-.133-1.214-.399-1.889-.266s-1.215.399-1.889.93v.267c.674.532 1.214.798 1.889.93.675.134 1.214-.132 1.889-.265 1.214-.133 2.564-.4 3.778-.665v-.266z" fill="#fff"/><path opacity=".51" d="M205.107 109.711l6.207 5.719c.54.532 1.484.532 2.024 0l2.429-1.862 2.834 2.527v18.218a1.2 1.2 0 001.214 1.197h1.619c.675 0 1.215-.532 1.215-1.064l1.079-11.835h12.415c.404 0 .809.133 1.214.266l8.501 4.122c.54.266.81.798.81 1.33v5.984c0 .665.54 1.33 1.349 1.33h1.619c.675 0 1.215-.532 1.35-1.064l1.349-9.84c0-1.729-1.484-3.192-3.238-3.192h-.675v-11.703l3.643-3.59c.81-.798.81-2.128 0-2.926a2.14 2.14 0 00-2.968 0l-3.913 3.857h-20.511l-7.152-7.049-1.484-1.462-3.509-3.458-.674.665c-1.08 1.064-1.08 2.66 0 3.724l-6.612 6.516c-1.215.798-1.215 2.526-.135 3.59z" fill="#1D79DE"/><path d="M208.75 106.92l3.104 3.058.404.399 4.318-4.255 6.477 6.383v19.416h3.914l1.079-10.107.27-2.66h12.954l9.986 4.788v8.245h4.048l1.484-11.171c0-1.729-1.484-3.192-3.238-3.192h-.675v-11.702l3.643-3.591c.81-.798.81-2.128 0-2.926-.405-.398-.944-.665-1.484-.665s-1.08.267-1.484.665l-3.914 3.857h-20.51l-7.152-7.048-1.484-1.463-3.509-3.458-.674.665c-1.08 1.064-1.08 2.66 0 3.724l-.675.665-6.882 6.782c-1.08.798-1.08 2.527 0 3.591z" fill="#4BA7FA"/><path d="M208.75 106.92l3.104 3.058.404.399 4.318-4.255 6.477 6.383v19.416h3.914l1.079-10.107.27-2.66h12.954l9.986 4.788v8.245h4.048l1.484-11.171c0-1.729-1.484-3.192-3.238-3.192h-.675v-11.702l3.643-3.591c.81-.798.81-2.128 0-2.926-.405-.398-.944-.665-1.484-.665s-1.08.267-1.484.665l-3.914 3.857h-20.51l-7.152-7.048-1.484-1.463-3.509-3.458-.674.665c-.135.133-.27.266-.405.532-.675.931-.54 2.261.405 3.192l-.675.665-6.882 6.782c-1.08.798-1.08 2.527 0 3.591z" fill="#4BA7FA"/><path opacity=".51" d="M160.712 39.497c-3.875 0-7.017-3.096-7.017-6.915 0-3.82 3.142-6.915 7.017-6.915 3.875 0 7.017 3.096 7.017 6.915s-3.142 6.915-7.017 6.915zM160.712 25.537c-2.31 0-4.183-1.845-4.183-4.122s1.873-4.123 4.183-4.123c2.31 0 4.183 1.846 4.183 4.123s-1.873 4.122-4.183 4.122zM160.712 39.499c5.532 0 9.985 4.389 9.985 9.84 0 4.256-2.833 7.98-6.747 9.31v4.255c0 .931-.674 1.596-1.619 1.596s-1.619-.665-1.619-1.596v-3.723h-.135c-5.533 0-9.986-4.389-9.986-9.841 0-5.453 4.588-9.841 10.121-9.841z" fill="#1D79DE"/><path d="M164.895 64.499c.81 0 1.62-.665 1.62-1.596V42.956c0-.798-.675-1.596-1.62-1.596-.809 0-1.619.665-1.619 1.596v20.08c.135.798.81 1.463 1.619 1.463z" fill="#fff"/><path d="M157.878 29.526c0 3.857 3.239 6.915 7.152 6.915.54 0 1.215-.133 1.754-.266 3.104-.798 5.263-3.457 5.263-6.782 0-3.857-3.104-6.915-7.017-6.915h-.135c-2.294 0-4.183 1.064-5.532 2.793-.135.133-.27.265-.27.531-.81 1.197-1.215 2.394-1.215 3.724z" fill="#4BA7FA"/><path d="M160.712 18.486c0 2.261 1.754 4.123 4.048 4.123h.135c2.294 0 4.183-1.862 4.183-4.123 0-2.26-1.889-4.122-4.183-4.122-1.889 0-3.509 1.33-4.048 3.059 0 .266-.135.665-.135 1.064zM154.91 46.413c0 5.453 4.452 9.841 9.985 9.841 1.214 0 2.429-.266 3.643-.665 3.779-1.462 6.477-5.053 6.477-9.175 0-4.921-3.643-9.044-8.501-9.708-.54-.133-.944-.133-1.484-.133-2.564 0-4.993.93-6.747 2.526a4.08 4.08 0 00-1.08 1.064c-1.349 1.729-2.293 3.857-2.293 6.25z" fill="#4BA7FA"/><path d="M157.878 29.526c0 3.857 3.239 6.915 7.152 6.915.54 0 1.215-.133 1.754-.266 3.104-.798 5.263-3.457 5.263-6.782 0-3.857-3.104-6.915-7.017-6.915h-.135c-2.294 0-4.183 1.064-5.532 2.793-.135.133-.27.265-.27.531-.81 1.197-1.215 2.394-1.215 3.724z" fill="#4BA7FA"/><path d="M160.712 18.486c0 2.261 1.754 4.123 4.048 4.123h.135c2.294 0 4.183-1.862 4.183-4.123 0-2.26-1.889-4.122-4.183-4.122-1.889 0-3.509 1.33-4.048 3.059 0 .266-.135.665-.135 1.064zM154.909 46.414c0 5.453 4.453 9.841 9.986 9.841 1.214 0 2.429-.266 3.643-.665a10.038 10.038 0 002.159-6.25c0-5.453-4.453-9.841-9.985-9.841-1.215 0-2.429.266-3.644.665-1.214 1.729-2.159 3.856-2.159 6.25z" fill="#4BA7FA"/><path d="M157.878 28.862c0 4.256 3.508 7.58 7.827 7.58.674 0 1.349-.133 1.889-.266.809-1.197 1.214-2.526 1.214-4.122 0-4.256-3.508-7.58-7.691-7.58-.675 0-1.35.133-1.89.266-.944 1.33-1.349 2.66-1.349 4.122zM166.11 22.61c.135-.532.27-.93.27-1.462 0-2.926-2.429-5.453-5.398-5.453-.135.532-.27.931-.27 1.463 0 2.926 2.429 5.32 5.398 5.452z" fill="#1D79DE"/><path d="M147.623 33.252c.27 0 .675-.134.945-.266a1.644 1.644 0 00.404-2.128l-8.231-11.304a1.7 1.7 0 00-2.159-.399 1.645 1.645 0 00-.405 2.128l8.232 11.304c.27.399.674.664 1.214.664z" fill="#fff"/><path d="M151.806 26.468c.809 0 1.484-.532 1.619-1.33s-.54-1.596-1.349-1.729l-14.034-1.729c-.809-.133-1.619.532-1.754 1.33s.54 1.596 1.349 1.73l14.034 1.728h.135z" fill="#fff"/><path d="M135.478 30.059c.945 0 1.889-.266 2.699-.931.944-.665 1.484-1.729 1.619-2.926l.405-2.792c.135-.798-.54-1.596-1.349-1.73l-5.533-.664c-.81-.133-1.619.532-1.754 1.33l-.405 2.792c-.27 2.394 1.349 4.522 3.778 4.788.27.133.405.133.54.133zm1.484-5.32l-.134 1.197c0 .266-.27.665-.405.798-.27.133-.54.266-.945.266-.675-.133-1.214-.665-1.079-1.33l.135-1.197 2.428.267z" fill="#fff"/><path d="M139.931 22.611c.27 0 .675-.133.945-.266l2.294-1.596c2.024-1.33 2.429-4.122.945-5.984-.675-.93-1.755-1.596-2.834-1.729-1.215-.133-2.294.133-3.239.798l-2.294 1.596c-.404.266-.539.665-.674 1.064 0 .399 0 .798.27 1.197l3.238 4.521c.405.266.81.4 1.349.4zm.675-6.516h.135c.27 0 .675.266.81.532s.27.532.27.93c0 .267-.27.666-.54.799l-.945.665-1.484-1.995.945-.665c.269-.266.539-.266.809-.266z" fill="#fff"/><path d="M154.91 46.413c0 5.453 4.452 9.841 9.985 9.841 1.214 0 2.429-.266 3.643-.665 3.779-1.462 6.477-5.053 6.477-9.175 0-4.921-3.643-9.044-8.501-9.708-.54-.133-.944-.133-1.484-.133-2.564 0-4.993.93-6.747 2.526a4.08 4.08 0 00-1.08 1.064c-1.349 1.729-2.293 3.857-2.293 6.25z" fill="#4BA7FA"/><path d="M156.124 45.35c0 5.718 4.723 10.24 10.39 10.24.945 0 1.754-.134 2.564-.267 1.08-1.596 1.484-3.457 1.619-5.452.675-6.65-4.183-10.905-10.39-10.24-.945.133-1.754.133-2.564.399-.944 1.463-1.619 3.325-1.619 5.32z" fill="#1D79DE"/><path d="M165.03 57.85c1.484 0 2.834-.267 4.183-.799 4.453-1.729 7.422-5.984 7.422-10.639 0-5.585-4.183-10.505-9.851-11.303-.54-.133-1.079-.133-1.754-.133-2.834 0-5.667 1.064-7.826 2.925-.405.4-.81.798-1.215 1.33l-.135.133c-1.619 1.995-2.429 4.389-2.429 7.049 0 6.25 5.128 11.436 11.605 11.436zm0-19.683c.54 0 .81 0 1.214.133 4.184.665 7.152 4.123 7.152 8.245 0 3.458-2.159 6.517-5.397 7.713-.945.4-2.024.532-2.969.532-4.588 0-8.366-3.723-8.366-8.245a8.19 8.19 0 011.889-5.186s0-.133.135-.133l.81-.798c1.349-1.596 3.373-2.26 5.532-2.26z" fill="#fff"/><path d="M165.03 38.168c.675 0 1.484-.133 2.159-.266 3.778-.931 6.477-4.389 6.477-8.245 0-4.655-3.913-8.511-8.636-8.511h-.135c-2.699 0-5.128 1.33-6.747 3.324-.135.266-.27.4-.405.665-.809 1.197-1.349 2.793-1.349 4.522-.135 4.654 3.778 8.51 8.636 8.51zm-.135-13.964c3.104 0 5.667 2.394 5.667 5.453a5.298 5.298 0 01-4.183 5.186c-.404.133-.944.133-1.349.133-3.104 0-5.533-2.394-5.533-5.452 0-1.064.27-1.995.81-2.926.135-.133.135-.266.27-.399 1.079-1.197 2.564-1.995 4.318-1.995z" fill="#fff"/><path d="M165.03 24.206c3.238 0 5.802-2.527 5.802-5.719 0-3.191-2.564-5.718-5.802-5.718-2.564 0-4.858 1.729-5.533 4.123-.135.399-.269.93-.269 1.595 0 3.059 2.428 5.586 5.532 5.719h.27zm0-8.378a2.544 2.544 0 012.564 2.526c0 1.463-1.215 2.66-2.564 2.66h-.135c-1.349 0-2.429-1.197-2.429-2.66 0-.266 0-.532.135-.665.135-1.063 1.214-1.861 2.429-1.861z" fill="#fff"/><path d="M157.878 146.284s9.986-7.58 13.359-8.511c3.239-.931 2.564 1.197 1.619 1.862-.809.665-2.968 3.325-1.079 2.793 1.754-.532 9.446-3.857 9.446-3.857s1.349.665-.135 3.99c-1.62 3.191-2.834 8.511-11.605 9.973-8.771 1.463-12.415-.398-12.415-.398l.81-5.852z" fill="#1E7ADD"/><path d="M157.608 144.821c2.024-1.995 4.318-3.856 6.882-5.319 1.214-.798 2.564-1.463 3.913-2.128 1.08-.532 2.294-1.197 3.509-1.33 1.754-.266 4.183.266 3.778 2.527-.27 1.197-1.08 1.995-1.889 2.793-.945 1.063-1.889 1.994-3.104 2.792-.135-.665-.135-1.463-.27-2.128 1.889.665 3.644-.531 5.398-1.196 2.024-.798 3.913-1.995 5.667-3.059.81-.532 1.754.133 1.754 1.064.27 6.117-3.913 11.303-9.445 13.697-5.803 2.527-12.55 2.394-18.352-.133-1.349-.532-.135-2.527 1.215-1.995 4.992 2.128 10.93 2.261 15.922.133 4.723-1.994 8.501-6.383 8.366-11.702.54.399 1.215.665 1.755 1.064-2.159 1.33-4.318 2.526-6.747 3.457-2.159.798-3.913 1.729-6.207 1.064-.945-.266-1.215-1.596-.27-2.128.809-.532 1.484-1.196 2.159-1.861.27-.399.674-.665.944-1.064.27-.399.405-.665.675-1.064.27.266.27.399 0 .266h-.27c-.405 0-.675 0-1.079.133-.945.266-1.755.665-2.564 1.064-3.779 1.861-7.017 4.255-9.986 7.048-1.214.665-2.833-.931-1.754-1.995z" fill="#fff"/><path d="M173.396 145.086a5.255 5.255 0 011.215 2.793c.135 1.063 0 1.994 0 2.925 0 .266-.135.532-.405.798s-.54.399-.81.399c-.539 0-1.214-.532-1.214-1.197.135-.931.135-1.729.135-2.659 0-.266 0 .133 0 0v-.266c0-.133-.135-.399-.135-.532s0-.133-.135-.266c0 .133.135.133 0 0 0 0 0-.133-.135-.133 0-.133-.135-.133-.135-.266 0 0-.27-.399 0-.133-.135-.266-.405-.532-.405-.798s.135-.665.405-.798c.405-.266 1.215-.399 1.619.133zM233.983 38.3c-.944 0-17.677 5.585-17.677 5.585.27 1.063.675 1.994 1.08 3.191 2.969 7.447 8.636 16.091 8.636 16.091 3.238-.266 6.342-.93 9.041-1.729l1.214-.399v-5.452s2.834 2.128 4.723 3.59a38.272 38.272 0 0010.39-6.914c2.429-2.261 3.509-3.857 3.509-3.857-15.383 0-20.781-10.107-20.916-10.107.135 0 .135 0 0 0zm0-3.192c.27 0 .54 0 .675.133.945.133 1.619.797 2.159 1.595.135.266 4.858 8.511 18.217 8.511 1.214 0 2.294.665 2.833 1.596.54 1.064.54 2.26-.134 3.192-.135.133-1.35 1.995-3.914 4.388-2.159 1.995-5.937 4.92-11.2 7.447-.404.133-.944.266-1.349.266-.54 0-1.214-.133-1.619-.532-.27 1.064-1.08 1.862-2.024 2.261l-1.215.4c-3.103.93-6.342 1.462-9.715 1.86h-.27c-1.08 0-2.024-.531-2.699-1.462-.27-.399-5.802-8.91-8.906-16.623a21.15 21.15 0 01-1.214-3.458c-.54-1.595.404-3.324 2.024-3.856 17.002-5.718 17.812-5.718 18.351-5.718z" fill="#fff"/><path d="M227.642 27.396l-7.422 1.862-5.398 1.33-2.159.532.81 3.457 1.214 4.788 14.709-4.123 3.373-.93-5.127-6.916zm0-3.059c.944 0 1.889.4 2.563 1.33l4.993 6.782c.54.798.81 1.862.405 2.793-.27.931-1.08 1.729-2.024 1.995l-3.374.93-14.573 4.256c-.27.133-.54.133-.945.133a3.637 3.637 0 01-1.619-.399c-.809-.399-1.214-1.064-1.484-1.861l-1.215-4.788-.944-3.458c-.27-.797-.135-1.595.405-2.393.404-.665 1.079-1.197 1.889-1.463l2.159-.532 5.397-1.33 7.557-1.862c.27-.133.54-.133.81-.133z" fill="#fff"/><path d="M208.211 107.451l3.103 3.058.54.399 4.318-4.255 6.477 6.383v19.416h3.913l.945-10.107.27-2.66h12.954l9.985 4.788v8.245h2.159l1.215-11.171-3.509-1.995v-13.963h-23.074l-12.279-12.5c-.675.93-.54 2.26.404 3.191l-.674.665-6.882 6.782c-.81.931-.81 2.66.135 3.724z" fill="#1D79DE"/><path d="M228.969 101.629l2.38 1.962-8.657 10.2-2.381-1.962 8.658-10.2z" fill="#fff"/><path d="M216.847 91.494l-.675.665c-1.079 1.064-1.079 2.66 0 3.724l-.675.665-6.881 6.782c-1.08 1.064-1.08 2.659 0 3.723l3.238 2.926.405.399 4.318-4.256 6.477 6.384v19.415h3.913l1.08-10.106.27-2.66h12.954l9.985 4.787v8.245h4.048l1.485-11.17c0-1.729-1.485-3.192-3.239-3.192h-.675v-11.703l3.644-3.59a2.067 2.067 0 000-2.926c-.405-.399-.945-.665-1.485-.665-.539 0-1.079.266-1.484.665l-3.913 3.857h-20.511l-7.152-7.048-1.484-1.463-3.643-3.458zm0-3.192c.809 0 1.619.266 2.294.931l3.508 3.591 1.484 1.463 6.343 6.25h17.946l2.969-2.926c.945-1.064 2.294-1.595 3.643-1.595 1.35 0 2.699.531 3.644 1.462.944.931 1.484 2.261 1.484 3.591s-.54 2.66-1.484 3.591l-2.699 2.659v7.846a6.296 6.296 0 013.913 5.852v.399l-1.484 10.904c-.27 1.596-1.484 2.66-3.104 2.66h-4.048c-1.754 0-3.103-1.33-3.103-3.059v-6.25l-7.557-3.591h-9.446l-.944 10.107c-.135 1.596-1.485 2.793-3.104 2.793h-3.913c-1.754 0-3.104-1.33-3.104-3.059v-18.086l-3.373-3.324-2.024 1.995c-.675.665-1.485.931-2.159.931-.81 0-1.619-.266-2.159-.931l-.405-.399-3.508-3.059c-2.294-2.261-2.294-5.851 0-8.112l5.937-5.851c-.405-1.862.135-3.724 1.484-5.187l.675-.665c.675-.532 1.484-.93 2.294-.93z" fill="#fff"/><path opacity=".51" d="M79.884 122.878l13.898 24.602-.944-12.5-12.954-12.102z" fill="#1D79DE"/><path d="M30.092 121.152c-7.557 18.485 13.764 20.612 25.638 14.628 11.875-5.851 14.169-32.98 19.296-40.693 4.858-7.447 20.376.93 20.376-17.687v-1.729c0-.665-.135-1.33-.135-1.861-.54-6.783-2.294-11.969-4.588-15.959-.135-.133-.135-.265-.27-.398-2.698-4.389-6.207-7.182-9.58-8.644-4.723-1.995-7.827.665-9.58.266-6.343-1.463-9.986-.134-12.55 2.925 0 .133-.135.133-.135.266l-.27.266c-.135.266-.27.4-.405.665 0 .133-.135.133-.135.266-2.159 3.59-3.103 8.777-4.183 14.495-.135.532-.27 1.064-.405 1.463-.135.665-.404 1.33-.674 1.862v.133c-.81 1.862-1.89 3.458-3.239 4.92-5.263 5.719-14.034 8.91-21.32 17.022-.54.532-1.08 1.197-1.62 1.862-1.349 1.596-2.159 3.192-2.833 4.787-4.453 11.437 6.612 21.145 6.612 21.145z" fill="#EBC642"/><path d="M77.32 48.273c-2.43 0-4.318 1.064-5.668 1.064h-.404c-1.755-.399-3.374-.665-4.723-.665-3.509 0-6.073 1.33-7.827 3.59 0 .134-.135.134-.135.267l-.27.266c-.135.266-.27.399-.404.665 0 .133-.135.133-.135.266-2.16 3.59-3.104 8.777-4.183 14.495-.135.532-.27 1.064-.405 1.463-.135.665-.405 1.33-.675 1.862v.133c-.81 1.861-1.889 3.457-3.238 4.92-5.263 5.718-14.034 8.91-21.32 17.022-.54.532-1.08 1.197-1.62 1.862-1.35 1.596-2.159 3.191-2.834 4.787-4.318 11.171 6.747 20.879 6.747 20.879-5.127 12.633 3.104 17.554 12.684 17.554 4.453 0 9.176-1.064 12.955-2.926 11.874-5.851 14.168-32.98 19.296-40.693 4.858-7.447 20.376.93 20.376-17.687v-1.729c0-.665-.135-1.33-.135-1.862-.54-6.782-2.294-11.968-4.588-15.958-.135-.133-.135-.266-.27-.399-2.699-4.388-6.207-7.18-9.58-8.644-1.485-.399-2.565-.532-3.644-.532zm0-2.393c1.484 0 2.969.266 4.453.93 2.969 1.33 7.287 3.99 10.66 9.442.135.133.27.4.27.532 2.699 4.522 4.318 10.24 4.858 16.89 0 .664.135 1.33.135 1.994v1.862c0 13.564-7.962 14.894-13.764 15.958-3.104.532-5.668.93-7.017 2.926-1.484 2.393-2.969 7.314-4.453 12.633-3.104 10.905-7.017 24.602-15.653 28.858-4.048 1.994-9.176 3.191-14.033 3.191-6.747 0-12.01-2.127-14.709-6.117-1.619-2.394-3.103-6.649-.81-13.165-2.968-3.059-10.255-11.969-6.207-22.342.675-1.861 1.755-3.723 3.239-5.452.675-.798 1.214-1.463 1.754-1.995 4.183-4.654 8.906-7.713 12.954-10.506 3.374-2.26 6.207-4.122 8.367-6.516l.27-.266c1.079-1.197 1.889-2.393 2.428-3.723l.135-.4c.27-.531.405-1.063.54-1.595.135-.4.27-.798.27-1.33 1.08-5.851 2.159-11.437 4.588-15.293 0-.133.135-.266.135-.266.135-.266.405-.532.54-.798.134-.133.134-.266.27-.266 0-.133.134-.133.134-.266 2.294-2.926 5.533-4.388 9.58-4.388 1.62 0 3.374.266 5.263.665.27 0 .81-.133 1.215-.267 1.35-.531 2.834-.93 4.588-.93z" fill="#fff"/><path d="M34.004 120.884c-5.127 8.91 4.588-2.128 13.629-3.591 3.778-.664 7.017 13.964 9.716 10.772 6.882-8.378 9.04-30.054 13.898-37.634 4.318-6.65 21.05-.266 24.154-12.767.135-.665.27-1.33.405-2.127-.54-7.58-2.564-13.299-5.127-17.555-.136-.132-.136-.265-.27-.398-2.7-4.256-6.073-6.916-9.446-8.378-4.723-2.128-7.962.664-9.85.266-6.343-1.596-10.121-.266-12.685 2.792-.135.133-.135.133-.135.266-.135.4-.405.665-.675.931 0 .133-.134.133-.134.266-2.294 3.724-3.374 9.309-4.453 15.56l-.405 1.595c0 .133-.135.399-.135.532v.133c-.675 1.995-1.754 3.59-3.239 4.92-5.262 5.719-14.033 8.91-21.32 17.022-.54.532-1.08 1.197-1.62 1.862-1.349 1.596-2.158 3.192-2.833 4.788 2.159 10.505 10.525 20.745 10.525 20.745z" fill="#FFD86C"/><path d="M39.537 203.865h55.19c.27-1.729.405-3.458.675-5.187 1.08-8.511-.54-18.75-2.294-26.464-1.484-6.516-2.969-11.037-2.969-11.037s-25.638 6.782-31.845 7.181c-.81 0-1.754.399-2.699.931-1.08.665-2.159 1.463-3.238 2.659-1.755 1.729-3.374 3.857-4.858 6.251-3.104 4.92-5.668 10.904-6.342 15.825-.27 1.995-.81 5.585-1.62 9.841z" fill="#4BA7FA"/><path d="M38.188 204.928h57.619l.405-3.324c.135-.931.27-1.862.404-2.926 1.08-8.777-.674-19.416-2.294-26.863-1.484-6.383-2.968-11.037-2.968-11.17l-.405-1.064-1.08.266c-.27.133-25.638 6.782-31.575 7.181a9.197 9.197 0 00-3.239 1.064c-1.08.665-2.294 1.596-3.508 2.792-1.754 1.729-3.508 3.99-5.128 6.517-3.508 5.452-5.937 11.436-6.477 16.357-.27 2.26-.944 6.383-1.62 9.708l-.134 1.462zm55.595-2.26H41.022c.674-4.256 1.214-6.782 1.349-8.378.54-4.522 2.834-10.24 6.207-15.426 1.484-2.394 3.239-4.522 4.723-6.118 1.08-1.064 2.16-1.862 3.104-2.393.81-.532 1.484-.798 2.159-.798 5.667-.399 25.908-5.719 31.036-6.916.54 1.729 1.619 5.32 2.563 9.841 1.62 7.181 3.374 17.554 2.294 26.065l-.404 2.793-.27 1.33z" fill="#fff"/><path d="M69.763 88.302s-1.889 8.91-9.175 9.176c-7.287.266-16.463.931-22.805 8.378-6.342 7.448-9.716 13.166-9.716 13.166l3.779 3.191 34.004-17.155c-.27-.132 11.2-5.186 3.913-16.756z" fill="#EBC642"/><path opacity=".51" d="M40.212 198.678h55.19v5.186h-55.19v-5.186z" fill="#1D79DE"/><path opacity=".51" d="M93.377 177.667s-25.908 5.718-39.671-5.319l5.802 14.362 6.342 13.298s-3.373.665-5.532-2.792c-2.16-3.458-4.858-6.916-8.367-8.644-4.183-1.995-6.207-7.048-6.207-7.048s6.072-11.57 10.12-12.102c4.049-.532 36.839 2.527 36.839 2.527l.674 5.718z" fill="#1D79DE"/><path d="M38.188 204.928h57.619l.405-3.324c.135-.931.27-1.862.404-2.926 1.08-8.777-.674-19.416-2.294-26.863-1.484-6.383-2.968-11.037-2.968-11.17l-.405-1.064-1.08.266c-.27.133-25.638 6.782-31.575 7.181a9.197 9.197 0 00-3.239 1.064c-1.08.665-2.294 1.596-3.508 2.792-1.754 1.729-3.508 3.99-5.128 6.517-3.508 5.452-5.937 11.436-6.477 16.357-.27 2.26-.944 6.383-1.62 9.708l-.134 1.462zm55.595-2.26H41.022c.674-4.256 1.214-6.782 1.349-8.378.54-4.522 2.834-10.24 6.207-15.426 1.484-2.394 3.239-4.522 4.723-6.118 1.08-1.064 2.16-1.862 3.104-2.393.81-.532 1.484-.798 2.159-.798 5.667-.399 25.908-5.719 31.036-6.916.54 1.729 1.619 5.32 2.563 9.841 1.62 7.181 3.374 17.554 2.294 26.065l-.404 2.793-.27 1.33z" fill="#fff"/><path d="M116.047 148.409c.809.665 1.619 1.33 2.429 1.862 6.342 4.123 14.708 4.256 21.995 3.857 10.255-.532 15.518-1.33 15.922-3.192l.675-3.856c.27-1.197-.54-2.261-1.754-2.527l-20.916-3.458a20.68 20.68 0 01-15.787-12.633c-2.834-7.181-6.073-15.16-11.335-20.746-9.85-10.505-24.56-11.702-38.323-11.17-6.477.266-11.335 1.197-17.407 3.723-10.12 4.256-21.59 16.49-25.368 26.198-7.962 20.081 3.643 35.241 17.811 48.805.945.798 2.294.798 3.104-.133l2.969-3.191c.944-.931-6.072-9.974-6.612-10.905-4.183-5.319-8.636-10.24-8.636-17.554 0-5.718 2.429-11.038 6.342-15.16 1.754-1.862 3.778-3.325 6.072-4.522.135-.133.405-.133.54-.266 1.889-.93 4.183.399 4.318 2.527l1.62 14.894c.809 7.314.539 14.629-.676 21.81l-.81 4.388c-.134.798.136 1.596.81 1.995 3.509 2.793 16.328 10.905 38.863 3.192 1.08-.399 1.754-1.596 1.35-2.66-.81-2.66-2.16-6.915-2.295-7.447-.944-3.591-1.62-7.314-1.889-11.038-.675-9.442 1.35-18.618 4.858-27.395.27-.798.674-1.595.944-2.393.54-1.197 1.62-1.862 2.834-.798.54.399.945 1.064 1.215 1.596 1.484 2.659 2.698 5.452 4.453 7.979 3.508 5.053 5.667 9.973 9.715 14.628.81 1.463 1.889 2.527 2.969 3.59z" fill="#4BA7FA"/><path d="M45.474 177.134c1.08 0 1.89-.399 2.564-1.064l2.969-3.191c.54-.532 1.619-1.729-6.612-12.368l-1.215-1.463c-3.778-4.654-7.286-9.176-7.286-15.293 0-5.053 2.159-10.373 6.072-14.362 1.62-1.729 3.643-3.192 5.802-4.389.135-.133.27-.133.54-.266a2.035 2.035 0 011.754 0c.54.266.81.798.945 1.463l1.619 15.028c.81 7.181.54 14.362-.675 21.543l-.81 4.388c-.27 1.197.27 2.394 1.215 3.192 3.508 2.793 16.867 11.304 39.942 3.458 1.754-.532 2.699-2.394 2.024-4.123-.81-2.66-2.159-6.915-2.294-7.314-.945-3.724-1.62-7.447-1.89-10.905-.674-8.378.945-17.155 4.724-26.863.27-.797.675-1.595.944-2.393.135-.399.405-.532.54-.665.135 0 .27 0 .54.266.405.266.675.798.944 1.33.405.665.81 1.462 1.215 2.127 1.079 1.995 2.159 3.99 3.373 5.852 1.35 1.994 2.564 3.989 3.779 5.851 1.754 2.926 3.643 5.984 6.072 8.777.944 1.064 2.024 2.261 3.238 3.325.945.797 1.755 1.462 2.564 1.994 6.477 4.256 15.113 4.389 22.67 3.99 13.764-.665 16.597-1.995 17.002-4.123l.675-3.856c.135-.931 0-1.729-.54-2.527s-1.349-1.197-2.159-1.33l-20.915-3.457c-6.747-1.064-12.415-5.719-14.979-11.836l-.135-.532c-2.833-7.048-6.072-15.027-11.334-20.745C97.83 95.349 81.908 94.551 69.223 95.216c-7.151.266-12.01 1.33-17.812 3.857-10.12 4.255-21.995 16.623-26.043 26.862-8.23 20.879 3.779 36.438 18.082 50.002.27.798 1.08 1.197 2.024 1.197zm3.374-5.585l-2.7 2.926c-.134.266-.404.266-.674.266s-.54-.133-.674-.266c-13.63-13.033-25.234-27.927-17.542-47.476 3.778-9.708 15.248-21.41 24.828-25.533 5.533-2.393 10.12-3.324 17.002-3.723 12.28-.532 27.528.133 37.378 10.771 4.993 5.32 8.097 13.166 10.931 19.948l.134.532c2.834 6.915 9.176 12.102 16.733 13.298l20.915 3.458c.27 0 .54.133.675.399s.27.532.135.798l-.675 3.856c-.27.399-2.294 1.596-14.708 2.261-7.152.399-15.383.133-21.32-3.723a14.06 14.06 0 01-2.294-1.862c-1.08-1.064-2.159-2.128-3.104-3.192-2.429-2.66-4.048-5.452-5.802-8.511-1.215-1.995-2.429-3.989-3.913-6.117-1.215-1.729-2.294-3.724-3.239-5.585-.405-.798-.81-1.463-1.215-2.261-.404-.665-.81-1.463-1.484-1.995-.81-.665-1.754-.931-2.564-.665-.944.266-1.619.931-2.159 1.995-.27.798-.674 1.596-.944 2.394-3.913 9.973-5.533 19.149-4.858 27.793.27 3.591.945 7.447 2.024 11.304.135.532 1.484 4.92 2.294 7.447.135.532-.135 1.064-.54 1.197-21.995 7.447-34.41-.399-37.782-3.059-.27-.266-.405-.532-.405-.931l.81-4.388c1.349-7.314 1.484-14.761.674-22.208l-1.62-14.895c0-1.329-.809-2.526-2.023-3.324-1.215-.665-2.7-.798-4.049-.133-.27.133-.404.266-.54.266-2.428 1.33-4.452 2.925-6.341 4.787-4.318 4.522-6.747 10.24-6.747 15.958 0 7.048 3.913 11.969 7.826 16.756l1.08 1.463c2.024 2.926 5.937 8.378 6.477 9.974z" fill="#fff"/><path d="M50.063 171.417l5.667 5.319s11.2 3.99 11.065 7.846c-.135 3.724 1.35 12.767-1.08 14.363-2.428 1.596-6.207-10.905-8.77-12.102-2.564-1.197-8.502-3.59-9.041-7.048-.54-3.458-2.294-3.857-2.294-3.857l4.453-4.521z" fill="#1E7ADD"/><path d="M65.176 200.14c.404 0 .81-.133 1.08-.266 2.158-1.33 2.023-5.586 1.753-11.304-.135-1.596-.135-3.059-.135-3.99.135-4.255-9.04-7.979-11.604-8.91l-5.533-5.186c-.405-.399-1.214-.399-1.62 0l-4.452 4.522c-.27.265-.405.797-.27 1.196.135.399.54.665.945.798 0 0 .944.399 1.349 2.793.675 3.59 5.532 5.984 8.636 7.447.405.133.675.399 1.08.532.81.399 2.294 3.458 3.373 5.452 2.024 3.99 3.373 6.517 4.993 6.916h.405zm-15.114-27.129l4.858 4.521c.135.133.27.133.405.266 4.993 1.862 10.255 4.921 10.255 6.649 0 1.064 0 2.66.135 4.256.135 2.66.405 7.979-.54 9.043-.809-.665-2.428-3.724-3.373-5.586-1.754-3.59-2.968-5.718-4.318-6.383-.27-.133-.675-.266-1.08-.532-2.428-1.197-6.881-3.324-7.421-5.718-.27-1.862-.945-3.059-1.62-3.724l2.7-2.792z" fill="#fff"/><path d="M65.444 79.657c3.374 5.585 6.882 8.51 11.605 8.644 2.429 0 9.446-8.112 8.366-16.49-.945-7.315-4.048-12.235-9.04-13.299-.81-.133-2.7 1.197-3.51 1.197-1.214.133-2.563-1.197-3.508-.665-2.833 1.463-4.048 3.99-4.453 8.777l-.135 1.463s-4.992-.133-4.588 3.59c.405 3.724 5.128 6.384 5.128 6.384l.135.399z" fill="#1E7ADD"/><path d="M77.184 89.499c1.62 0 3.509-1.73 4.453-2.793 2.834-3.192 5.938-9.043 5.128-15.027-1.08-7.98-4.723-13.166-9.985-14.23-.81-.133-1.755.266-2.834.798-.405.133-.945.4-1.08.532-.27 0-.674-.133-1.08-.266-.809-.266-1.753-.798-2.698-.266-3.103 1.596-4.588 4.389-5.128 9.708v.532c-1.08.133-2.698.532-3.643 1.596-.81.798-1.08 1.995-.944 3.192.404 3.723 4.048 6.25 5.262 7.048 0 0 0 .133.135.133 3.508 6.117 7.422 8.91 12.414 9.043zm-.944-29.922c4.183.798 7.152 5.32 7.961 12.235.675 5.053-1.889 10.24-4.318 13.032-1.484 1.729-2.564 2.261-2.834 2.261-4.048 0-7.151-2.394-10.525-7.98l-.135-.265a1.046 1.046 0 00-.54-.532s-4.183-2.26-4.452-5.452c-.135-.798.135-1.197.404-1.463.81-.798 2.43-.931 3.104-.931.675 0 1.214-.532 1.214-1.064l.135-1.463c.405-4.521 1.485-6.649 3.779-7.846 0 0 .404.133.674.266.675.266 1.485.665 2.294.532.54-.133 1.215-.399 1.89-.665.404-.266 1.214-.665 1.349-.665z" fill="#fff"/><path d="M70.977 86.837s2.7 7.58.135 9.708c-2.563 2.128 9.176 6.251 10.256 1.064 0 0-1.62-6.782-.675-10.772-.135 0-4.723 4.522-9.716 0z" fill="#1E7ADD"/><path d="M77.32 101.333h.944c2.294-.266 3.913-1.463 4.318-3.457v-.532s-1.484-6.517-.675-10.24c.135-.532-.135-1.064-.54-1.197-.404-.266-1.08-.133-1.349.266-.405.399-3.913 3.59-7.961 0-.405-.4-.945-.4-1.485-.133-.405.266-.675.798-.405 1.33.945 2.792 1.755 7.447.54 8.51-.674.666-.944 1.464-.54 2.395.405 1.728 4.183 3.058 7.152 3.058zm2.833-3.724c-.135.4-.54 1.197-2.16 1.33-2.428.266-5.262-.93-5.936-1.595 1.754-1.73 1.484-5.187.944-7.846 2.294.93 4.588.531 6.207-.267-.135 3.458.675 7.315.945 8.379zM27.662 204.927h278.379c.81 0 1.619-.664 1.619-1.595 0-.931-.675-1.596-1.619-1.596H27.662c-.81 0-1.619.665-1.619 1.596s.81 1.595 1.62 1.595zM1.62 204.927h15.922c.81 0 1.62-.664 1.62-1.595 0-.931-.675-1.596-1.62-1.596H1.62c-.81 0-1.619.665-1.619 1.596s.675 1.595 1.62 1.595z" fill="#fff"/><path opacity=".51" d="M57.079 135.111l16.057.133c1.485 0 2.7-1.197 2.7-2.66v-7.314c0-1.463-1.215-2.659-2.7-2.659l-16.057-.133c-1.485 0-2.699 1.196-2.699 2.659v7.314c0 1.463 1.214 2.66 2.699 2.66z" fill="#1D79DE"/><path d="M58.833 132.849l14.574.133c1.484 0 2.564-1.064 2.564-2.526v-7.58c0-1.463-1.08-2.527-2.564-2.527l-14.574-.133c-1.484 0-2.564 1.064-2.564 2.527v7.58c0 1.329 1.215 2.526 2.564 2.526z" fill="#59E659"/><path d="M73.406 133.648c1.89 0 3.374-1.463 3.374-3.325v-7.58c0-.931-.405-1.729-.945-2.394-.674-.665-1.484-.931-2.429-.931l-14.573-.133c-.945 0-1.754.399-2.429.931-.675.665-.945 1.463-.945 2.394v7.58c0 1.862 1.485 3.325 3.374 3.325l14.573.133zm-14.438-12.634l14.573.133c.54 0 .945.133 1.215.532.27.399.54.798.54 1.197v7.58c0 .931-.81 1.729-1.755 1.729l-14.573-.133c-.945 0-1.754-.798-1.754-1.729v-7.58c0-.532.135-.931.54-1.197.27-.266.674-.532 1.214-.532z" fill="#1D79DE"/><path d="M55.73 122.478h20.24v1.595H55.73v-1.595zM64.5 127.13h6.208c.405 0 .81-.399.81-.798s-.405-.798-.81-.798H64.5c-.405 0-.81.399-.81.798.135.532.405.798.81.798zM60.453 130.322h10.255c.405 0 .81-.399.81-.798s-.405-.798-.81-.798H60.453c-.405 0-.81.399-.81.798s.405.798.81.798z" fill="#1D79DE"/><path d="M264.991 335.643s-1.07 4.158.334 5.19c1.404 1.025-4.561 3.703-5.327.972 0 0 .554-3.658-.061-5.768-.008 0 2.58 2.231 5.054-.394z" fill="#1E7ADD"/><path d="M261.902 343.664h-.106c-1.26-.03-2.147-.645-2.436-1.677a.703.703 0 01-.015-.281c.008-.038.524-3.544-.045-5.486a.665.665 0 011.07-.691c.212.182 2.177 1.738 4.143-.341a.668.668 0 01.804-.129.671.671 0 01.326.744c-.387 1.502-.629 3.968.084 4.492.432.311.584.789.425 1.275-.402 1.153-2.633 2.094-4.25 2.094zm-1.229-1.92c.084.22.319.547 1.093.585 1.237.068 2.671-.661 3.035-1.07-.964-.858-.956-2.672-.781-4.068-1.154.562-2.292.455-3.195.114.174 1.821-.068 3.862-.152 4.439z" fill="#fff"/><path d="M172.397 425.854s1.199-3.605 2.451-3.415c1.252.19 2.064-.045 2.171.842.106.888-3.962 6.375 3.065 7.293 9.106 1.184 8.537 4.189 2.914 4.469-5.16.258-10.586.175-13.272-3.467l2.671-5.722z" fill="#59E659"/><path opacity=".51" d="M173.088 424.238s3.104 2.451 3.149 2.231c.046-.22.903-2.269.926-2.345.319-1.131-2.519-1.487-2.519-1.487l-1.556 1.601z" fill="#1D79DE"/><path d="M172.777 422.971a17.012 17.012 0 00-2.648 5.349c-.509 1.7-1.412 4.227.22 5.616.645.554 1.586-.38.941-.941-.6-.516-.592-1.328-.471-2.049.152-.911.448-1.821.721-2.701.531-1.685 1.343-3.188 2.39-4.607.501-.69-.652-1.35-1.153-.667z" fill="#fff"/><path d="M176.45 422.947c-.661.888-.782 1.966-.987 3.028-.197 1.055-.531 2.125.061 3.119 1.108 1.844 4.098 1.912 5.964 2.17 1.215.167 2.467.357 3.597.858.478.212 1.313.584 1.404 1.183.114.706-.804.721-1.29.782-2.178.243-4.394.213-6.571.068-2.527-.174-5.054-.523-7.49-1.237-.82-.242-1.169 1.04-.349 1.283 4.439 1.29 9.379 1.684 13.978 1.26.918-.084 2.079-.107 2.701-.903.645-.828.357-1.989-.341-2.687-1.776-1.783-4.88-1.76-7.187-2.147-1.108-.182-3.369-.425-3.445-1.913-.038-.713.251-1.502.372-2.208.129-.713.281-1.381.721-1.973.516-.698-.637-1.366-1.138-.683z" fill="#fff"/><path d="M229.724 335.135l16.599 2.738.366-2.217-16.6-2.737-.365 2.216z" fill="#4BA7FA"/><path d="M230.084 332.933l16.596 2.739-.364 2.216-16.596-2.74.364-2.215zm0-1.328c-.637 0-1.199.463-1.305 1.108l-.364 2.215c-.061.35.022.706.227.987.205.288.516.478.865.539l16.596 2.739c.076.015.144.015.22.015.638 0 1.199-.463 1.305-1.108l.365-2.215a1.302 1.302 0 00-.228-.987 1.338 1.338 0 00-.865-.539l-16.596-2.739a2.179 2.179 0 00-.22-.015z" fill="#fff"/><path d="M224.339 361.365l18.66 3.081.486-2.952a6.604 6.604 0 00-5.441-7.588l-5.631-.926a6.604 6.604 0 00-7.588 5.441l-.486 2.944z" fill="#4BA7FA"/><path d="M231.336 352.883c.357 0 .721.031 1.085.091l5.631.926a6.604 6.604 0 015.441 7.588l-.486 2.952-18.66-3.081.486-2.951c.524-3.226 3.324-5.525 6.503-5.525zm0-1.328a7.896 7.896 0 00-7.816 6.64l-.486 2.952a1.329 1.329 0 001.093 1.525l18.66 3.081c.076.015.144.015.22.015.638 0 1.199-.463 1.305-1.108l.486-2.952c.713-4.317-2.223-8.407-6.534-9.113l-5.63-.926a7.49 7.49 0 00-1.298-.114z" fill="#fff"/><path d="M236.348 332.174l4.65.766.365-2.216-4.65-.767-.365 2.217z" fill="#4BA7FA"/><path d="M236.709 329.974l4.644.766-.364 2.216-4.644-.766.364-2.216zm0-1.328c-.637 0-1.199.463-1.305 1.108l-.364 2.215c-.061.35.022.706.227.987.205.288.516.478.865.539l4.644.766c.076.015.145.015.221.015.637 0 1.199-.463 1.305-1.108l.364-2.215a1.298 1.298 0 00-.228-.987 1.338 1.338 0 00-.865-.539l-4.644-.766a2.032 2.032 0 00-.22-.015z" fill="#fff"/><path d="M231.534 351.709l7.77 1.282 5.054-14.069-13.234-2.185.41 14.972z" fill="#1E7ADD"/><path d="M231.124 336.736l13.226 2.178-5.046 14.068-7.77-1.282-.41-14.964zm0-1.328a1.328 1.328 0 00-1.328 1.366l.41 14.972a1.329 1.329 0 001.108 1.274l7.77 1.283c.076.015.144.015.22.015.554 0 1.055-.341 1.245-.88l5.046-14.069a1.332 1.332 0 00-1.032-1.761l-13.227-2.178a.964.964 0 00-.212-.022z" fill="#fff"/><path d="M230.585 349.287c-.038 0-.076 0-.106-.008l-4.424-.728a.662.662 0 01-.554-.615l-.562-9.334a.649.649 0 01.22-.531.673.673 0 01.554-.159l4.622.759c.364.06.607.402.546.766a.668.668 0 01-.766.546l-3.802-.629.478 7.975 3.9.645a.664.664 0 01.547.766.668.668 0 01-.653.547z" fill="#fff"/><path d="M224.358 361.199l18.666 3.078.366-2.216-18.666-3.078-.366 2.216z" fill="#4BA7FA"/><path d="M224.726 359l18.66 3.081-.364 2.216-18.66-3.081.364-2.216zm0-1.328a1.333 1.333 0 00-1.312 1.115l-.365 2.216a1.329 1.329 0 001.093 1.525l18.66 3.081c.068.016.144.016.212.016a1.335 1.335 0 001.313-1.116l.364-2.216a1.327 1.327 0 00-1.092-1.525l-18.66-3.081a1.78 1.78 0 00-.213-.015z" fill="#fff"/><path d="M246.923 374.935c-1.7 0-2.838-.835-3.544-1.624-1.943-2.201-2.193-5.926-1.305-8.264l1.244.471c-.834 2.208-.356 5.312 1.063 6.913.933 1.047 2.162 1.404 3.657 1.032 3.977-.972 5.312-10.282 5.813-13.796l.045-.326 1.313.19-.045.326c-.638 4.454-1.958 13.712-6.807 14.896a5.94 5.94 0 01-1.434.182z" fill="#fff"/><path d="M238.333 357.239l11.588-2.587-8.439-.425c-.933-.782-1.813-1.419-3.164-1.753l-.015-1.571s4.674-.053 7.816-1.336c3.141-1.282 12.452-7.762 13.059-9.121.615-1.358-.03 1.389 1.336 2.148 1.366.759 4.143-1.146 4.811-1.761.668-.622 5.517-.865 5.934 1.875.417 2.739-2.421 3.892-1.935 7.611.486 3.718 4.621 12.794 4.621 12.794s5.859 9.941 3.552 26.749c0 0-5.32 5.236-11.512.668 0 0-7.801 1.039-8.901-4.197 0 0 .599-13.811 2.443-18.978 1.837-5.168-.007-9.197-.402-9.243-.394-.038-11.876 2.929-19.426 2.193l-1.366-3.066z" fill="#4BA7FA"/><path opacity=".51" d="M259.929 368.021s10.358 1.29 14.509-2.861l-1.062-2.344s-5.046 4.469-13.735 2.451l.288 2.754zM260.513 359.441c.084-.281 7.278-2.58 8.917-7.733.076-.228.22-3.46.22-3.46s-5.456 8.051-10.017 9.478l.88 1.715z" fill="#1D79DE"/><path d="M240.26 359.972c-.265-.524-.538-1.04-.804-1.564-.137-.258-.266-.523-.402-.781-.069-.19.007-.266.227-.243.448-.349 1.928-.372 2.489-.463 1.799-.296 3.605-.531 5.396-.873 3.323-.622 6.586-1.646 9.227-3.839 2.702-2.239 4.462-5.335 6.678-7.998 1.176-1.419 2.633-3.036 4.591-3.203.926-.076 1.981.198 2.534 1.002.608.873.258 1.943-.098 2.838-.319.789.964 1.138 1.282.349.501-1.252.736-2.663-.03-3.855-.744-1.168-2.17-1.715-3.514-1.662-3.209.114-5.365 3.081-7.117 5.411-2.049 2.732-3.992 5.653-7.012 7.398-3.013 1.746-6.549 2.269-9.933 2.793-.964.144-1.92.288-2.876.455-.797.137-1.768.198-2.497.562-1.722.873.182 3.278.729 4.34.379.767 1.525.091 1.13-.667z" fill="#fff"/><path d="M158.966 337.949s.667-1.988 3.581-.591c2.914 1.403 5.327 3.923 6.618 1.737 1.29-2.185-.16-1.98 2.868-.174 3.02 1.806 5.987 6.457 5.987 6.457s5.669 8.257 10.176 8.393c0 0 2.391 2.079 1.571 4.052-.82 1.966-8.241 3.992-8.15 4.599.099.607 3.013 10.51-.463 9.91 0 0-20.875 3.089-22.439-1.502-1.548-4.606-5.008-30.726.251-32.881z" fill="#4BA7FA"/><path d="M240.245 361.148c3.172-.205 6.352-.417 9.524-.622 3.035-.198 5.835-.751 8.741-1.685 4.478-1.442 8.37-5.137 10.526-9.28.394-.759-.752-1.427-1.146-.668-2.193 4.211-5.995 7.512-10.518 8.916-5.517 1.715-11.398 1.639-17.119 2.011-.85.061-.858 1.389-.008 1.328z" fill="#fff"/><path d="M157.327 418.652s-1.616-39.406 2.982-46.251c0 0 15.989 1.677 17.894.812l-1.032 49.226s-5.768 3.665-5.654-2.17c.114-5.828-4.234-16.255-4.234-16.255s-4.621 23.19-7.596 19.723c-2.967-3.468-2.36-5.085-2.36-5.085z" fill="#4BA7FA"/><path d="M260.225 339.672c-1.229-.083-2.284.653-3.172 1.419-1.26 1.085-2.36 2.345-3.589 3.468-4.106 3.764-9.114 5.661-14.676 5.866-.85.03-.858 1.358 0 1.328 5.479-.205 10.555-1.935 14.752-5.494 1.358-1.153 2.557-2.459 3.847-3.68.766-.721 1.692-1.655 2.83-1.579.858.053.858-1.275.008-1.328z" fill="#fff"/><path d="M255.854 344.461c-1.305 2.223-1.593 4.993-.736 7.429.122.341.456.562.82.463.326-.091.584-.478.463-.82a7.669 7.669 0 01.599-6.412c.433-.728-.713-1.396-1.146-.66zM266.213 392.048c3.483 2.353 8.521 1.799 11.443-1.214.592-.614-.341-1.555-.941-.941-2.527 2.611-6.829 3.036-9.834 1.01-.706-.486-1.374.667-.668 1.145zM272.586 362.346c-3.005 3.339-8.332 2.648-12.361 2.519-.857-.03-.85 1.298 0 1.328 4.416.144 10.009.744 13.295-2.906.569-.63-.364-1.571-.934-.941zM160.946 337.692c2.664.038 4.341 3.21 7.141 2.808 1.935-.273 1.874-2.474 1.085-3.81l-.911.911c1.814.88 3.605 1.874 5.191 3.126 1.722 1.351 2.861 3.043 3.946 4.925 1.905 3.294 4.135 7.057 8.241 7.71.835.137 1.191-1.146.349-1.282-4.515-.721-6.298-5.419-8.484-8.818-2.041-3.18-5.251-5.183-8.59-6.807-.569-.281-1.26.304-.911.911.296.501.676 1.419.038 1.806-.751.455-2.231-.562-2.83-.949-1.358-.888-2.595-1.829-4.288-1.851-.827-.023-.827 1.305.023 1.32z" fill="#fff"/><path d="M160.483 338.366a26.437 26.437 0 017.194 8.195c1.586 2.831 2.39 6.329 4.978 8.477 2.307 1.904 5.41 2.223 8.279 1.836 1.586-.212 3.096-.653 4.606-1.153.918-.311 1.927-.683 2.914-.433.857.213 2.072 1.723.668 2.163-.812.25-.463 1.533.349 1.282 2.307-.713 1.821-3.688-.122-4.522-1.373-.592-2.807-.213-4.166.242-1.404.471-2.807.896-4.272 1.108-2.982.44-6.23.023-8.286-2.39-2.042-2.39-2.801-5.707-4.462-8.362-1.844-2.952-4.235-5.487-7.02-7.574-.675-.531-1.335.623-.66 1.131zM160.226 323.434c-3.066.994-1.412 6.465 1.7 5.6-.251-.099-.501-.205-.752-.304 1.002 1.806 2.178 3.65 4.022 4.69 1.571.888 3.658 1.146 5.213.076 1.397-.964 2.019-2.664 2.383-4.25.509-2.231.577-4.553.364-6.822-.083-.842-1.411-.85-1.328 0 .183 1.92.175 3.878-.174 5.783-.251 1.366-.615 2.974-1.685 3.961-1.199 1.108-3.005.797-4.287.015-1.548-.949-2.504-2.565-3.362-4.105a.674.674 0 00-.751-.304c-1.465.41-2.39-2.587-.994-3.043.812-.281.47-1.563-.349-1.297zM291.459 436.182H134.888a.89.89 0 010-1.776h156.571a.89.89 0 010 1.776zM306.112 436.137h-8.931a.89.89 0 010-1.776h8.931a.889.889 0 010 1.776z" fill="#fff"/><path d="M158.161 423.319s-.061-.441.987.28c1.054.721 1.563 1.26 1.274 2.102-.288.843-1.578 4.455 4.857 7.414 6.435 2.96 3.453 4.515-1.51 3.066-4.963-1.442-10.889-4.819-9.91-10.017l4.302-2.845z" fill="#59E659"/><path opacity=".51" d="M157.577 424.465s2.497 2.466 2.535 2.246c.038-.22.501-1.897.501-1.973 0-.083-1.769-1.866-1.769-1.866l-1.267 1.593z" fill="#1D79DE"/><path d="M157.896 422.62c-.744.873-1.632 1.594-2.671 2.095-.918.447-1.958.66-2.246 1.79-.243.949.129 2.042.485 2.914.395.972.934 1.86 1.586 2.679 2.937 3.673 7.718 4.955 12.233 5.107.857.03.85-1.298 0-1.328-3.984-.129-8.143-1.176-10.897-4.242a9.372 9.372 0 01-1.457-2.162c-.326-.661-.903-1.86-.668-2.611.144-.47.66-.577 1.07-.744a9.044 9.044 0 001.351-.69 9.353 9.353 0 002.155-1.867c.546-.645-.387-1.586-.941-.941z" fill="#fff"/><path d="M159.861 424.617c-.903 2.914-.341 6.442 2.512 8.043 1.321.744 2.831 1.002 4.181 1.655.319.152.63.326.911.531.167.121.789.569.736.842-.038.213-.683.22-.918.19-.842-.114-.835 1.214 0 1.328 1.252.167 2.724-.782 2.087-2.178-.668-1.472-2.611-2.11-4.015-2.588-1.548-.523-3.149-1.054-3.976-2.58-.812-1.487-.728-3.323-.243-4.894.258-.812-1.017-1.161-1.275-.349zM161.295 337.426c.865-1.115 1.806-2.307 2.285-3.65.508-1.434 0-2.815-.562-4.143-.137-.326-.63-.402-.911-.235-.341.197-.379.576-.235.91.448 1.048.835 2.125.387 3.241-.425 1.062-1.206 2.048-1.905 2.952-.22.28-.273.66 0 .94.228.213.721.266.941-.015zM168.254 333.116c-.44 1.009-.668 2.139-.789 3.232-.053.478-.068 1.009.068 1.472.137.448.471.782.714 1.161a.673.673 0 00.91.236c.304-.175.433-.607.235-.911a7.898 7.898 0 00-.409-.584 2.657 2.657 0 01-.129-.19c-.016-.023-.023-.061-.046-.083.076.091.03.098.008.007-.008-.045-.046-.265-.031-.129a3.597 3.597 0 01-.022-.402c0-.197.015-.395.03-.584.008-.053.015-.107.015-.16-.015.129.015-.083.015-.091.015-.114.038-.227.061-.349.046-.258.099-.523.167-.781.061-.243.121-.486.197-.729l.091-.288c.015-.053.038-.107.053-.152a.575.575 0 00.008-.023c.144-.326.099-.713-.235-.91-.281-.145-.767-.076-.911.258z" fill="#fff"/><path d="M271.987 319.266a4.69 4.69 0 10.001-9.379 4.69 4.69 0 00-.001 9.379z" fill="#4BA7FA"/><path d="M271.987 320.155a5.586 5.586 0 01-5.577-5.578 5.586 5.586 0 015.577-5.577 5.586 5.586 0 015.578 5.577 5.582 5.582 0 01-5.578 5.578zm0-9.387a3.811 3.811 0 00-3.809 3.809 3.812 3.812 0 003.809 3.81 3.813 3.813 0 003.81-3.81 3.812 3.812 0 00-3.81-3.809z" fill="#fff"/><path d="M266.357 335.089c5.88 0 10.646-4.766 10.646-10.646 0-5.88-4.766-10.647-10.646-10.647-5.88 0-10.647 4.767-10.647 10.647s4.767 10.646 10.647 10.646z" fill="#4BA7FA"/><path d="M266.349 335.977c-6.359 0-11.534-5.175-11.534-11.534 0-6.36 5.175-11.535 11.534-11.535 6.359 0 11.534 5.175 11.534 11.535 0 6.359-5.175 11.534-11.534 11.534zm0-21.293c-5.38 0-9.759 4.378-9.759 9.759 0 5.38 4.379 9.766 9.759 9.766 5.38 0 9.759-4.379 9.759-9.766.007-5.381-4.371-9.759-9.759-9.759z" fill="#fff"/><path d="M267.556 331.606c-1.564 3.119-3.256 4.842-5.752 5.054-1.298.106-4.432-4.045-4.189-8.59.212-3.9.766-6.579 3.316-7.308.425-.121 1.434.494 1.897.516.653.038 1.29-.728 1.799-.508 1.54.66 2.269 1.965 2.686 4.508l.099.796s2.64-.28 2.587 1.746c-.053 2.026-2.398 3.574-2.398 3.574l-.045.212z" fill="#1E7ADD"/><path d="M261.75 337.327c-.516 0-1.085-.303-1.7-.895-1.677-1.624-3.278-5.031-3.096-8.393.19-3.506.638-7.004 3.802-7.907.463-.129.979.076 1.525.288.198.076.494.198.592.205.107-.007.357-.121.547-.22.387-.205.918-.478 1.472-.235 1.722.736 2.618 2.185 3.081 5.008l.03.228c.577.03 1.404.182 1.996.721.455.425.69 1.017.675 1.707-.053 1.981-1.867 3.506-2.489 3.969a.528.528 0 01-.038.099c-1.768 3.528-3.703 5.198-6.283 5.418-.038 0-.076.007-.114.007zm-.683-15.92c-2.049.592-2.58 2.906-2.785 6.693-.159 2.906 1.192 5.752 2.504 7.178.539.585.888.714.972.721 2.079-.174 3.635-1.563 5.183-4.636l.045-.152a.677.677 0 01.266-.364c.023-.015 2.056-1.389 2.102-3.043.007-.41-.137-.6-.243-.698-.417-.395-1.328-.395-1.616-.372a.667.667 0 01-.729-.577l-.099-.797c-.387-2.344-1.009-3.437-2.291-3.984-.008.023-.205.122-.342.19-.334.175-.759.387-1.237.364-.303-.015-.645-.151-1.001-.296-.228-.075-.607-.227-.729-.227z" fill="#fff"/><path d="M239.714 360.691c-3.893 1.29-8.393.554-11.671-1.912-.676-.509-1.328-1.131-1.541-1.943-.212-.819.22-1.836 1.047-1.995.418-.076.85.068 1.245.235a13.69 13.69 0 012.792 1.586c.539.394 1.389.804 1.768.25.615-.888-1.525-1.829-1.054-2.8.265-.554 1.077-.448 1.639-.212a13.158 13.158 0 014.932 3.513l.843 3.278z" fill="#1E7ADD"/><path d="M239.569 360.161a12.612 12.612 0 01-8.476-.296c-1.244-.494-2.64-1.23-3.536-2.254-.432-.493-.751-1.184-.402-1.814.44-.789 1.396-.243 1.988.046.691.334 1.351.728 1.981 1.168.485.349 1.024.714 1.646.729 1.055.023 1.51-1.055 1.025-1.905-.213-.364-.531-.652-.774-.986-.069-.091-.251-.289-.236-.41.038-.288.524-.159.706-.106 1.351.356 2.717 1.335 3.756 2.246.357.311 1.025.865 1.124 1.108.136.334.189.728.28 1.077.175.691.357 1.381.531 2.072.175.69 1.245.395 1.063-.296-.19-.728-.38-1.465-.562-2.193-.083-.326-.144-.668-.25-.987-.197-.569-.797-1.032-1.237-1.426-1.191-1.078-2.595-2.004-4.105-2.573-1.01-.379-2.687-.129-2.376 1.328.099.463.441.843.737 1.192.098.114.462.44.447.607-.03.318-.554 0-.736-.106-.698-.41-1.32-.919-2.041-1.29-.698-.365-1.533-.835-2.352-.828-1.45.023-2.148 1.67-1.738 2.899.478 1.45 2.049 2.413 3.316 3.096a13.647 13.647 0 0010.517.964c.668-.213.38-1.282-.296-1.062zM270.431 343.952c-1.502 3.005-2.01 6.329-1.381 9.637.668 3.521 2.649 6.678 4.295 9.812 1.753 3.331 3.005 6.784 3.605 10.51.599 3.68.607 7.452.349 11.162-.296 4.31-.971 8.583-1.669 12.84-.137.835 1.138 1.191 1.282.349 1.169-7.126 2.33-14.395 1.7-21.635-.304-3.475-1.025-6.928-2.353-10.168-1.366-3.324-3.369-6.336-4.788-9.637-1.715-3.984-1.859-8.264.106-12.195.38-.766-.758-1.442-1.146-.675z" fill="#fff"/><path d="M197.238 359.675l-2.686.193.375 5.237 2.687-.192-.376-5.238z" fill="#1E7ADD"/><path d="M197.241 359.69l.38 5.236-2.687.19-.379-5.236 2.686-.19zm0-1.328h-.098l-2.687.19a1.34 1.34 0 00-.91.455 1.319 1.319 0 00-.319.964l.379 5.236c.054.698.63 1.229 1.321 1.229h.098l2.687-.189c.349-.023.675-.19.91-.456.228-.265.349-.614.319-.963l-.379-5.236a1.326 1.326 0 00-1.321-1.23z" fill="#fff"/><path d="M209.102 354.387a1.479 1.479 0 01-1.942-.789l-9-21.247a1.48 1.48 0 01.789-1.943 1.48 1.48 0 011.943.789l8.999 21.248a1.485 1.485 0 01-.789 1.942z" fill="#4BA7FA"/><path d="M199.526 330.285c.576 0 1.123.342 1.366.904l8.999 21.247a1.48 1.48 0 01-.789 1.943 1.44 1.44 0 01-.577.121 1.49 1.49 0 01-1.365-.903l-9-21.247a1.48 1.48 0 01.789-1.943c.182-.084.379-.122.577-.122zm0-1.327c-.38 0-.744.075-1.093.22a2.815 2.815 0 00-1.495 3.68l9 21.247a2.807 2.807 0 003.68 1.495 2.807 2.807 0 001.495-3.68l-9-21.247a2.807 2.807 0 00-2.587-1.715z" fill="#fff"/><path d="M194.851 332.136l-1.396 2.337c-4.591 7.664-4.925 17.188-.774 25.095.471.895.82 1.427.971 1.358l9.919-1.07a3.258 3.258 0 001.115-.334c.053-.03.114-.06.167-.091.008 0 .008 0 .008-.007.06-.038.121-.076.174-.114.129-.084.243-.167.349-.273l.137-.137a2.57 2.57 0 00.136-.144c.008-.008.015-.015.015-.023.046-.045.084-.098.122-.152.007-.007.008-.015.015-.022.099-.137.197-.281.281-.433l1.647-3.172-10.154-23.979-2.732 1.161zm6.762 22.666c.151.349.098.767-.198 1.017a1.732 1.732 0 01-.978.402l-5.859.501c-.083.038-.303-.303-.599-.872-2.595-5.024-2.557-10.981.023-15.701l.789-1.442 6.822 16.095z" fill="#1E7ADD"/><path d="M197.575 330.984l10.154 23.979-1.647 3.172a2.863 2.863 0 01-.281.432c-.007.008-.007.016-.015.023a2.298 2.298 0 01-.121.152c-.008.008-.008.015-.016.023-.045.045-.091.098-.136.144l-.137.137a4.104 4.104 0 01-.349.273c-.053.038-.114.076-.174.114l-.008.007a.712.712 0 01-.167.091 3.258 3.258 0 01-1.115.334l-9.918 1.07c-.008 0-.016.008-.023.008-.16 0-.501-.516-.941-1.366-4.151-7.915-3.81-17.431.774-25.095l1.396-2.337 2.724-1.161zm-3.005 25.74h.015l5.859-.501a1.75 1.75 0 00.979-.402c.296-.251.341-.668.197-1.017l-6.814-16.095-.79 1.441c-2.58 4.72-2.618 10.677-.022 15.701.265.539.478.873.576.873zm3.005-27.068c-.174 0-.349.038-.516.106l-2.732 1.153a1.306 1.306 0 00-.622.539l-1.396 2.337c-4.819 8.052-5.13 18.167-.812 26.393.653 1.252 1.153 2.079 2.117 2.079.068 0 .144-.008.213-.015l9.872-1.07a4.568 4.568 0 001.783-.584c.023-.016.053-.031.076-.046.069-.045.137-.083.198-.129a4.03 4.03 0 00.508-.395c.068-.06.129-.121.19-.182.053-.053.121-.129.189-.197.023-.023.038-.045.054-.068.045-.046.091-.114.144-.182.022-.031.053-.069.076-.107.136-.189.25-.371.349-.554l1.646-3.164a1.34 1.34 0 00.046-1.131l-10.153-23.979a1.33 1.33 0 00-.721-.713 1.462 1.462 0 00-.509-.091zm-2.367 25.679l-.046-.091c-2.185-4.227-2.352-9.273-.493-13.439l5.547 13.105-5.008.425z" fill="#fff"/><path d="M205.771 357.831a1.43 1.43 0 01-.167-.296l-10.753-25.39-1.396 2.337c-4.591 7.664-4.925 17.187-.774 25.095.471.895.82 1.426.971 1.358l9.919-1.07a3.28 3.28 0 001.115-.334l.167-.091c.008 0 .008 0 .008-.008.06-.038.121-.075.174-.113.129-.084.243-.167.349-.274l.137-.136c.045-.046.098-.099.136-.144.008-.008.015-.016.015-.023.046-.046.084-.099.122-.152.174-.228.144-.531-.023-.759zm-4.158-3.028c.151.35.098.767-.198 1.017a1.732 1.732 0 01-.978.402l-5.859.501c-.083.038-.303-.303-.599-.872-2.595-5.024-2.557-10.981.023-15.701l.789-1.442 6.822 16.095z" fill="#1E7ADD"/><path d="M194.851 332.137l10.753 25.391c.045.106.098.205.167.296.167.228.197.539.022.766a1.642 1.642 0 01-.121.152c-.008.008-.008.015-.015.023-.046.045-.091.099-.137.144l-.136.137a4.269 4.269 0 01-.349.273c-.053.038-.114.076-.175.114l-.007.007a.716.716 0 01-.167.091 3.263 3.263 0 01-1.116.334l-9.918 1.07c-.008 0-.015.008-.023.008-.159 0-.501-.516-.941-1.366-4.15-7.915-3.809-17.431.774-25.095l1.389-2.345zm-.281 24.587h.015l5.859-.501a1.75 1.75 0 00.979-.402c.296-.251.341-.668.197-1.017l-6.814-16.095-.79 1.442c-2.58 4.72-2.618 10.676-.022 15.7.265.539.478.873.576.873zm.273-25.915c-.462 0-.895.243-1.138.645l-1.396 2.338c-4.819 8.051-5.13 18.166-.812 26.392.653 1.252 1.153 2.079 2.117 2.079.068 0 .144-.007.213-.015l9.872-1.07a4.589 4.589 0 001.578-.47c.061-.031.129-.069.205-.114l.076-.046c.069-.045.137-.083.198-.129a4.114 4.114 0 00.698-.577c.053-.053.121-.128.189-.197.023-.023.038-.045.054-.068.045-.046.091-.114.144-.182.531-.698.523-1.639-.008-2.36 0 0-.007-.015-.015-.023l-10.753-25.391a1.312 1.312 0 00-1.13-.804c-.023 0-.054-.008-.092-.008zm.365 24.526l-.046-.091c-2.185-4.227-2.352-9.273-.493-13.439l5.547 13.105-5.008.425zM191.413 374.935c-.44 0-.91-.053-1.419-.182-5.061-1.229-6.321-9.986-6.852-13.72l1.313-.189c.455 3.171 1.669 11.602 5.858 12.619 1.495.364 2.724.015 3.658-1.032 1.419-1.609 1.897-4.705 1.062-6.913l1.245-.47c.88 2.337.637 6.063-1.306 8.263-.721.797-1.866 1.624-3.559 1.624z" fill="#fff"/><path d="M189.812 357.55c-.554 2.535 6.299.016 8.378-1.525 1.548-1.153.66-2.891-.106-4.75a1.563 1.563 0 00-2.414-.623c-1.206.964-1.806 1.609-3.763 2.983-.873-.843 1.335-2.58.341-3.271-.478-.334-1.093.137-1.48.562-.963 1.062-1.92 2.124-2.883 3.194 0-.007 2.648.137 1.927 3.43z" fill="#1E7ADD"/><path d="M189.274 357.406c-.66 3.369 5.479.971 6.693.448 1.305-.562 3.232-1.328 3.566-2.884.22-1.024-.182-2.064-.569-2.997-.387-.941-.743-1.905-1.851-2.155-1.123-.258-1.897.478-2.687 1.145a38.743 38.743 0 01-2.807 2.194c.22.03.447.06.667.083-.25-.266.387-1.169.509-1.434.265-.592.432-1.29-.091-1.791-.789-.759-1.814-.046-2.398.584-.949 1.032-1.874 2.079-2.815 3.119a.56.56 0 00.394.941c.053 0 .16.03-.03-.008.091.016.174.031.258.054.258.068.41.121.637.295.736.562.691 1.594.524 2.406-.144.698.918.994 1.062.296.251-1.214.22-2.61-.804-3.468a2.88 2.88 0 00-1.654-.668c.129.311.258.63.394.941l2.337-2.587c.312-.342.645-.85 1.078-1.055.22-.106.266-.106.258.091-.023.486-.486 1.024-.66 1.472-.213.562-.198 1.138.227 1.594.152.167.478.22.668.083 1.321-.926 2.489-2.018 3.779-2.982.729-.547 1.404-.144 1.723.599.326.774.736 1.609.804 2.451.106 1.351-1.434 1.951-2.459 2.436-1.191.562-2.451 1.025-3.741 1.305-.508.107-1.108.22-1.601.137-.22-.038-.265-.053-.356-.144.038.045-.008.023-.008-.046 0 .008 0-.106.015-.167.144-.69-.926-.994-1.062-.288z" fill="#fff"/><path d="M176.89 315.124c-.038.121-.258.865-.812 1.798-1.085 1.814-3.415 4.341-7.976 4.272 0 0-7.353-.334-7.353 1.829 0 0-3.05-6.124 2.884-7.808.061-.016.121-.038.182-.046v-.008c5.729-1.585 4.424.532 5.304.539.85 0 3.028.949 4.379-.235-.334.334-.964.979-1.108 1.29-.182.41 2.929.888 4.5-1.631z" fill="#4BA7FA"/><path opacity=".51" d="M176.078 316.914c-1.085 1.813-3.415 4.34-7.976 4.272 0 0-7.353-.334-7.353 1.829 0 0-3.05-6.124 2.884-7.809.061-.015.121-.038.182-.045-.63 1.206-1.7 3.786.182 4.242 2.398.584 7.778 1.222 11.588-2.102.182-.144.341-.281.493-.387z" fill="#1D79DE"/><path d="M161.394 324.413c.266-1.844 2.231-2.626 3.901-2.694 2.14-.084 4.28.493 6.397-.076 3.187-.85 5.759-3.703 5.873-7.057.031-.858-1.297-.85-1.328 0-.06 1.722-.926 3.263-2.223 4.363-1.472 1.252-3.256 1.692-5.16 1.616-1.988-.083-4.007-.478-5.912.289-1.388.561-2.61 1.646-2.838 3.194-.114.843 1.169 1.207 1.29.365z" fill="#fff"/><path d="M173.141 315.359c-.053.076-.106.159-.159.235a1.047 1.047 0 01-.031.038.927.927 0 01-.083.099 3.648 3.648 0 01-.418.425c-.068.061-.144.121-.212.182.068-.061-.008.008-.038.03-.03.023-.068.046-.106.076a4.917 4.917 0 01-.509.304 2.782 2.782 0 01-.258.121c-.098.046.084-.03-.015.008-.045.023-.099.038-.144.053a6.079 6.079 0 01-.539.159 3.641 3.641 0 01-.319.061c-.053.008-.106.008-.159.015a5.316 5.316 0 01-.592.008c-.349-.015-.675.318-.66.66a.67.67 0 00.66.66c1.882.091 3.718-.895 4.72-2.474.19-.296.068-.743-.235-.91a.695.695 0 00-.903.25zM170.151 313.962c-.265.319-.508.653-.956.668-.425.015-.903-.159-1.313-.265-.774-.19-1.555-.319-2.352-.251a8.419 8.419 0 00-4.052 1.472c-1.199.835-2.292 2.034-2.588 3.506-.311 1.541.25 3.043.463 4.553.053.357.501.546.819.463.387-.099.516-.463.463-.82-.189-1.35-.789-2.807-.387-4.166.387-1.305 1.548-2.276 2.717-2.891 1.153-.607 2.534-.971 3.832-.751.797.137 1.586.463 2.406.47.819.008 1.388-.462 1.889-1.054.546-.645-.387-1.586-.941-.934z" fill="#fff"/><path d="M224.476 377.204c-1.373 2.52-4.037 4.234-7.095 4.234-3.688 0-6.799-2.488-7.763-5.873h.516a.902.902 0 00.782-.463.888.888 0 00-.046-.91l-1.737-2.618a.91.91 0 00-.744-.395.865.865 0 00-.736.41l-1.677 2.618a.89.89 0 00.744 1.366h1.07c1.001 4.371 4.917 7.641 9.591 7.641a9.843 9.843 0 009.061-6.002h-1.966v-.008z" fill="#FFD86C"/><path d="M208.397 371.186c.265 0 .569.152.736.395l1.738 2.618a.88.88 0 01-.737 1.373h-.516c.964 3.385 4.075 5.874 7.763 5.874 3.059 0 5.722-1.715 7.096-4.235h1.965a9.835 9.835 0 01-9.061 6.003c-4.674 0-8.59-3.263-9.591-7.642h-1.07a.866.866 0 01-.774-.462.896.896 0 01.03-.903l1.677-2.618a.898.898 0 01.736-.41l.008.007zm0-1.775h-.023a2.631 2.631 0 00-2.208 1.221l-1.677 2.611a2.646 2.646 0 00-.091 2.709 2.65 2.65 0 002.071 1.366c1.639 4.568 5.95 7.649 10.912 7.649a11.58 11.58 0 0010.685-7.088 1.792 1.792 0 00-.152-1.669 1.765 1.765 0 00-1.472-.789h-1.965a1.78 1.78 0 00-1.556.925 6.313 6.313 0 01-5.54 3.317 6.334 6.334 0 01-5.41-3.074c.197-.189.364-.41.493-.66a2.644 2.644 0 00-.129-2.724l-1.738-2.618a2.657 2.657 0 00-2.2-1.176z" fill="#fff"/><path d="M228.809 324.502a.893.893 0 00-.774-.463h-1.07c-1.001-4.37-4.909-7.649-9.584-7.649-3.969 0-7.391 2.36-8.954 5.737h1.996a8.09 8.09 0 016.95-3.969c3.681 0 6.8 2.497 7.756 5.881h-.516a.906.906 0 00-.782.463.892.892 0 00.046.911l1.737 2.618c.167.25.441.395.737.395h.007a.865.865 0 00.736-.41l1.677-2.618a.847.847 0 00.038-.896z" fill="#59E659"/><path d="M217.381 316.398c4.667 0 8.583 3.278 9.584 7.649h1.07c.327 0 .623.175.774.463a.896.896 0 01-.03.903l-1.677 2.618a.903.903 0 01-.736.41h-.008a.888.888 0 01-.736-.395l-1.738-2.618a.89.89 0 01-.045-.91.878.878 0 01.781-.463h.517c-.957-3.385-4.075-5.881-7.756-5.881a8.092 8.092 0 00-6.951 3.968h-1.996c1.556-3.384 4.978-5.744 8.947-5.744zm0-1.768a11.646 11.646 0 00-10.555 6.769 1.785 1.785 0 00.114 1.692c.326.508.887.812 1.487.812h1.996c.622 0 1.199-.326 1.517-.865a6.36 6.36 0 015.434-3.104c2.238 0 4.279 1.214 5.403 3.081-.198.19-.365.41-.501.66a2.642 2.642 0 00.129 2.724l1.73 2.618a2.642 2.642 0 002.208 1.184 2.655 2.655 0 002.239-1.221l1.677-2.611a2.65 2.65 0 00.091-2.709 2.663 2.663 0 00-2.08-1.366c-1.631-4.523-6.009-7.664-10.889-7.664z" fill="#fff"/><path opacity=".51" d="M156.211 346.539s4.364 15.799 13.31 18.979c0 0 .797.857 4.424.508 3.628-.357 7.93-1.996 7.93-1.996l-.607-2.701s-8.476 3.771-11.747 1.085c-3.27-2.686-13.188-12.437-11.815-20.732 0-.007-1.996.418-1.495 4.857z" fill="#1D79DE"/><path d="M159.998 336.758c-2.55 2.109-3.286 5.577-2.816 8.734.562 3.756 2.641 7.095 4.69 10.214 1.738 2.641 3.657 5.297 6.275 7.125 2.99 2.087 6.352 2.209 9.744 1.063 4.363-1.472 8.59-3.529 12.619-5.737.752-.41.084-1.556-.667-1.146a92.114 92.114 0 01-9.971 4.72c-3.21 1.283-6.58 2.406-9.858.691-2.557-1.343-4.462-3.696-6.086-6.018-1.851-2.656-3.733-5.486-4.803-8.56-1.184-3.414-1.214-7.649 1.798-10.138.668-.554-.273-1.487-.925-.948z" fill="#fff"/><path d="M297.385 398.96c.213-.038-5.205-1.586-5.167-1.798.167-.82.804-2.808 3.027-2.208 0 0 5.578 1.737 7.915 8.476 2.33 6.738.577 7.057-3.619 3.589-3.802-3.134-9.357-7.649-2.512-6.344.349.076-.069-1.631.356-1.715z" fill="#FFD86C"/><path d="M298.478 399.704c1.389 1.973 1.692 4.159.683 4.872-1.017.713-2.959-.311-4.348-2.284-1.389-1.973 1.358-1.708 2.375-2.421 1.002-.721-.098-2.147 1.29-.167z" fill="#EBC642"/><path d="M276.328 399.09c3.68-.979 7.451-1.503 11.261-1.51 1.829 0 3.657.106 5.471.333 1.138.145 3.976.296 3.938 1.951-.022.857 1.306.857 1.328 0 .031-1.457-1.138-2.315-2.405-2.755-1.943-.675-4.265-.721-6.299-.812-4.598-.205-9.204.326-13.643 1.51-.828.22-.479 1.503.349 1.283z" fill="#fff"/><path d="M292.726 400.933c1.662 1.905 3.225 3.931 5.138 5.593a17.018 17.018 0 002.944 2.079c.911.501 2.428 1.503 3.453.842 1.047-.683.766-2.261.561-3.278-.273-1.366-.842-2.679-1.517-3.9-.699-1.268-1.526-2.459-2.36-3.635-.721-1.009-1.48-2.011-2.414-2.823-.978-.842-2.147-1.487-3.46-1.525-1.419-.046-2.792.675-3.475 1.927-.41.751.736 1.419 1.146.668 1.168-2.148 3.779-1.169 5.152.144 1.533 1.465 2.762 3.377 3.847 5.183.607 1.002 1.146 2.056 1.503 3.172.167.524.303 1.062.379 1.601.038.258.076.539.061.797-.015.296-.015.516-.304.539-.44.022-1.138-.456-1.525-.653-.47-.243-.926-.508-1.366-.789-.789-.509-1.51-1.1-2.2-1.738-1.685-1.578-3.112-3.399-4.629-5.137-.562-.645-1.495.296-.934.933z" fill="#fff"/><path d="M258.799 426.317c.099.152-.554 3.415 1.055 2.049 1.608-1.373 2.914-3.491 3.369-3.217.455.273 4.705 5.623.622 7.679-4.082 2.056-17.764 2.701-15.655.417 2.11-2.291 5.563-1.123 8.287-3.832 2.716-2.716 2.322-3.096 2.322-3.096z" fill="#FFD86C"/><path d="M258.351 426.673c-1.814 6.207 4.014-2.003 4.803-1.047.789.956-.083 2.974-1.95 4.515-1.867 1.533-4.014 2.003-4.803 1.047-.79-.964 2.625-6.837 1.95-4.515z" fill="#EBC642"/><path d="M258.882 358.453c1.313 2.505 1.04 5.062.303 7.695-.751 2.702-1.601 5.327-2.033 8.104-.843 5.358-.843 10.844-.66 16.255.318 9.189 1.525 18.326 1.836 27.523.121 3.544.357 7.512-.842 10.912-.281.804.994 1.153 1.282.349 1.055-2.99.987-6.405.933-9.523-.075-4.531-.447-9.061-.812-13.576-.387-4.796-.804-9.592-1.016-14.403-.251-5.699-.334-11.527.561-17.18.493-3.142 1.571-6.071 2.307-9.144.637-2.663.584-5.213-.706-7.679-.402-.759-1.548-.091-1.153.667z" fill="#fff"/><path d="M265.347 398.057c-1.775 6.124-1.229 12.574-1.639 18.865-.281 4.28-.933 10.093-5.759 11.55-.812.242-.471 1.525.349 1.282 4.871-1.472 6.146-6.617 6.594-11.125.668-6.723-.175-13.651 1.73-20.215.243-.827-1.04-1.176-1.275-.357z" fill="#fff"/><path d="M258.154 425.815c-.455 1.101-1.017 2.148-1.927 2.937-.888.767-1.989 1.298-3.059 1.738-2.064.842-4.219 1.442-6.108 2.664a.68.68 0 00-.236.91c.509.987 1.549 1.283 2.581 1.389 1.57.159 3.187.144 4.765.068 2.732-.121 5.714-.357 8.302-1.305 1.829-.668 3.779-2.003 3.862-4.159.091-2.261-2.193-3.627-2.656-5.706-.182-.835-1.464-.478-1.282.349.387 1.753 1.859 2.853 2.466 4.477.729 1.973-1.419 3.309-2.982 3.84-2.224.759-4.69.994-7.012 1.138a42.047 42.047 0 01-3.657.061c-.934-.023-2.732.174-3.248-.827-.076.303-.16.607-.235.91 2.162-1.403 4.697-1.957 6.996-3.058 2.322-1.108 3.741-2.716 4.705-5.069.334-.797-.949-1.138-1.275-.357z" fill="#fff"/><path opacity=".51" d="M159.376 374.898s13.576 2.823 18.827.409l-.349-2.58s-14.631.972-17.545-.326l-.933 2.497z" fill="#1D79DE"/><path d="M177.762 373.614c-.152.038-.015 5.487-.023 5.965-.023 2.117-.053 4.234-.083 6.359-.069 4.09-.152 8.18-.258 12.27-.22 8.325-.524 16.657-.919 24.974.16-.213.327-.425.486-.638-1.472.471-3.195.213-4.674-.091-.835-.174-1.192 1.108-.349 1.283 1.715.356 3.68.629 5.38.091a.683.683 0 00.485-.638c.433-9.197.759-18.402.987-27.606a1162.734 1162.734 0 00.319-20.603c.007-1.062-.107-3.05-1.7-2.641-.827.213-.478 1.488.349 1.275zM159.231 372.143c-2.99 14.934-3.916 30.262-2.663 45.447.235 2.807.796 7.489 4.704 7.133.843-.076.85-1.404 0-1.328-2.587.235-3.103-2.816-3.285-4.743a137.716 137.716 0 01-.441-6.39 160.17 160.17 0 01-.113-13.241 161.633 161.633 0 013.08-26.529c.167-.827-1.115-1.184-1.282-.349z" fill="#fff"/><path d="M159.58 336.78c-2.838 1.48-3.862 4.584-4.181 7.581-.448 4.136.053 8.476.471 12.597.462 4.568 1.153 9.129 2.124 13.613.16.744.304 1.548.956 2.034.714.531 1.784.539 2.626.66a62.34 62.34 0 006.617.585c5.069.159 10.146-.357 15.093-1.465.38-.084.516-.478.463-.82-.516-3.225-1.024-6.442-1.54-9.667-.137-.843-1.412-.486-1.283.349.516 3.225 1.025 6.442 1.541 9.667.152-.273.311-.546.463-.819a58.896 58.896 0 01-12.028 1.442 57.6 57.6 0 01-5.835-.205 63.12 63.12 0 01-3.142-.349c-.478-.069-.964-.129-1.442-.228-.652-.129-.91-.463-1.115-1.123-.6-1.874-.812-3.999-1.139-5.942a123.509 123.509 0 01-.872-6.237c-.44-3.908-.789-7.877-.751-11.815.03-3.18.523-7.088 3.65-8.72.751-.387.083-1.532-.676-1.138z" fill="#fff"/><path opacity=".51" d="M172.056 385.847s.144 15.837-2.322 25.019l-1.624-8.005 3.946-17.014z" fill="#1D79DE"/><path d="M167.442 402.861c.266 3.377.797 6.7 1.632 9.986.834 3.316 1.722 6.602 2.344 9.964.152.835 1.435.485 1.283-.349-.607-3.278-1.457-6.488-2.284-9.721a58.814 58.814 0 01-1.647-9.88c-.068-.842-1.396-.85-1.328 0z" fill="#fff"/><path d="M172.033 373.485c-.38 17.233-5.646 33.799-10.852 50.076-.258.812 1.017 1.161 1.283.349 5.251-16.391 10.525-33.07 10.904-50.425.016-.858-1.312-.858-1.335 0z" fill="#fff"/><path opacity=".51" d="M263.761 374.276c.448.637-1.024 17.332-1.024 17.332l3.21-2.057-2.186-15.275z" fill="#1D79DE"/><path d="M256.856 388.716c1.092 1.176 2.473 2.087 4.029 2.512 1.563.425 3.218.349 4.758-.114.812-.243.47-1.525-.349-1.282-1.328.394-2.709.485-4.052.113-1.351-.364-2.504-1.153-3.445-2.17-.585-.63-1.526.311-.941.941z" fill="#fff"/><path d="M263.124 372.872a102.754 102.754 0 012.269 21.816c-.008 2.231-.212 4.462-.19 6.693.015 1.73.342 3.559 1.647 4.811 1.153 1.101 2.8 1.541 4.363 1.503 1.92-.053 3.703-.85 5.373-1.738 2.049-1.085 4.06-2.178 6.245-2.975 4.758-1.73 9.804-2.352 14.843-1.874.85.084.842-1.244 0-1.328a34.686 34.686 0 00-12.02.933 36.42 36.42 0 00-5.699 2.019c-1.859.835-3.582 1.95-5.441 2.777-1.806.805-3.999 1.29-5.858.342-1.897-.964-2.163-3.081-2.117-5.001.099-4.432.258-8.818-.03-13.257a106.277 106.277 0 00-2.095-15.078c-.19-.835-1.472-.478-1.29.357z" fill="#fff"/></svg>