<svg width="335" height="450" fill="none" xmlns="http://www.w3.org/2000/svg"><path d="M333.141 213h-17.308a1.571 1.571 0 01-1.569-1.569c0-.871.697-1.568 1.569-1.568h17.308a1.57 1.57 0 011.568 1.568c0 .872-.697 1.569-1.568 1.569zM304.772 213H1.569A1.57 1.57 0 010 211.431c0-.871.697-1.568 1.569-1.568h303.19a1.57 1.57 0 011.568 1.568 1.56 1.56 0 01-1.555 1.569zM179.621 47.091h-21.839a1.571 1.571 0 01-1.569-1.568v-21.84a1.57 1.57 0 011.569-1.568h12.977v3.124H159.35v18.715h18.716v-9.88h3.124v11.449a1.58 1.58 0 01-1.569 1.568z" fill="#fff"/><path d="M168.119 38.929h-.094a1.538 1.538 0 01-1.193-.684l-4.894-7.213a1.569 1.569 0 01.416-2.172 1.57 1.57 0 012.172.416l3.753 5.524 13.984-16.102a1.553 1.553 0 012.198-.16c.657.563.724 1.555.161 2.198l-15.31 17.63a1.519 1.519 0 01-1.193.563z" fill="#FFD86C"/><path d="M122.616 190.394H52.339c-9.398 0-17.027-7.629-17.027-17.027V27.463c0-9.398 7.629-17.026 17.027-17.026h70.277c9.398 0 17.026 7.628 17.026 17.026v145.891c-.013 9.411-7.628 17.04-17.026 17.04z" fill="#1E7ADD"/><path d="M122.617 10.454c9.398 0 17.026 7.628 17.026 17.026v145.891c0 9.398-7.628 17.026-17.026 17.026H52.339c-9.398 0-17.026-7.628-17.026-17.026V27.467c0-9.398 7.628-17.027 17.026-17.027h70.278v.014zm0-3.137H52.339c-11.114 0-20.15 9.036-20.15 20.15v145.89c0 11.114 9.036 20.151 20.15 20.151h70.278c11.114 0 20.15-9.037 20.15-20.151V27.467c-.014-11.1-9.05-20.15-20.15-20.15z" fill="#fff"/><path opacity=".51" d="M133.569 30.857v137.901c0 10.832-6.73 13.701-15.029 13.701H57.567c-8.299 0-15.029-4.263-15.029-13.701v-137.9c0-7.562 6.73-13.702 15.029-13.702h6.837c1.958 0 3.54 1.408 3.54 3.15 0 1.743 1.582 3.151 3.539 3.151h30.956c1.957 0 3.539-1.408 3.539-3.15 0-1.743 1.582-3.151 3.539-3.151h9.01c8.312 0 15.042 6.127 15.042 13.701z" fill="#1D79DE"/><path d="M133.114 31.125v137.914c0 10.832-6.73 13.701-15.029 13.701H57.112c-8.299 0-15.029-4.263-15.029-13.701V31.125c0-7.561 6.73-13.702 15.029-13.702h6.837c1.957 0 3.54 1.408 3.54 3.15 0 1.744 1.581 3.151 3.539 3.151h30.956c1.957 0 3.539-1.407 3.539-3.15 0-1.743 1.582-3.15 3.539-3.15h9.01c8.312 0 15.042 6.14 15.042 13.7z" fill="#4BA7FA"/><path opacity=".51" d="M118.085 182.727H57.112c-8.299 0-15.029-4.264-15.029-13.702v-137.9c0-7.561 6.73-13.702 15.029-13.702h6.837c1.957 0 3.54 1.408 3.54 3.138 0 .87.402 1.648 1.032 2.225a3.811 3.811 0 002.507.925h30.956c1.957 0 3.539-1.408 3.539-3.15 0-.872.402-1.65 1.032-2.213.644-.576 1.529-.925 2.507-.925h9.01c8.312 0 15.028 6.14 15.028 13.702v137.914c0 5.349-1.635 8.754-4.29 10.832-2.708 2.118-6.515 2.856-10.725 2.856z" fill="#1D79DE"/><path d="M118.085 17.437c8.312 0 15.028 6.14 15.028 13.702v137.9c0 3.754-.804 6.556-2.212 8.607-2.641 3.875-7.387 5.095-12.816 5.095H57.111c-8.298 0-15.028-4.264-15.028-13.702V31.125c0-7.561 6.73-13.701 15.028-13.701h6.838c1.957 0 3.539 1.407 3.539 3.137 0 .429.094.845.281 1.233.175.376.443.71.751.992a3.811 3.811 0 002.507.925h30.956c1.958 0 3.54-1.407 3.54-3.15 0-.872.402-1.65 1.032-2.212.643-.577 1.528-.925 2.507-.925h9.023v.013zm0-3.124h-9.01c-1.716 0-3.351.604-4.585 1.716a6.065 6.065 0 00-2.078 4.451c-.053.054-.201.121-.415.121H71.041a.78.78 0 01-.43-.12c-.053-3.406-3.03-6.168-6.662-6.168H57.11c-10.014 0-18.152 7.548-18.152 16.826v137.9c0 10.216 7.119 16.825 18.152 16.825h60.974c7.4 0 12.441-2.118 15.404-6.462 1.823-2.668 2.761-6.153 2.761-10.363V31.125c-.013-9.277-8.151-16.812-18.165-16.812z" fill="#fff"/><path d="M117.147 181.251H57.192c-8.352 0-15.122-4.29-15.122-13.809V33.952c0-7.614 6.77-13.808 15.122-13.808h6.878c1.568 0 2.896.911 3.365 2.158.12.322.188.657.188 1.02 0 .87.402 1.662 1.045 2.251.644.577 1.542.925 2.52.925h31.144c1.971 0 3.553-1.42 3.553-3.177 0-.871.402-1.662 1.046-2.239.643-.576 1.541-.925 2.52-.925h9.076c8.353 0 11.503 6.194 11.503 13.809v139c0 1.179-.08 2.265-.228 3.257-2.601 3.821-7.293 5.028-12.655 5.028z" fill="#4BA7FA"/><path opacity=".51" d="M114.237 145.723c.388-.59.616-1.3.616-2.065V125.6a8.243 8.243 0 00-.844-3.607 2.247 2.247 0 00-.148-.308 8.177 8.177 0 00-7.146-4.25 3.8 3.8 0 00-3.794 3.794v6.1c-3.767-2.829-8.406-4.478-13.245-4.478-4.13 0-7.977 1.167-11.275 3.137-.228-1.327-.617-2.6-1.194-3.713a8.746 8.746 0 00-.576-1.006c-.027-.04-.054-.08-.094-.134-1.568-2.373-3.874-3.727-6.355-3.727-4.746 0-8.473 4.907-8.473 11.181 0 3.687 1.287 7.012 3.42 9.05l-1.047 29.588a3.817 3.817 0 001.06 2.775 3.812 3.812 0 002.734 1.167h4.572a3.772 3.772 0 002.722-1.153c.71-.738 1.099-1.73 1.072-2.762l-.16-5.095a21.736 21.736 0 0013.567 4.706c4.933 0 9.478-1.649 13.152-4.411l-.108 2.253a6.142 6.142 0 004.827 6.314c.429.094.871.148 1.327.148.429 0 .791-.054 1.019-.094a6.15 6.15 0 005.161-6.368l-.79-18.984z" fill="#1D79DE"/><path d="M105.67 143.979c0 10.068-8.165 18.206-18.206 18.206a18.117 18.117 0 01-13.045-5.51v-.013a18.055 18.055 0 01-5.161-12.683c0-10.068 8.151-18.206 18.206-18.206 7.24 0 13.5 4.236 16.437 10.35 1.152 2.373 1.769 5.054 1.769 7.856z" fill="#1E7ADD"/><path d="M87.464 125.774c7.24 0 13.5 4.237 16.436 10.35a18.14 18.14 0 011.77 7.856c0 10.069-8.165 18.206-18.206 18.206a18.113 18.113 0 01-13.045-5.51v-.013a18.055 18.055 0 01-5.161-12.683c0-10.055 8.151-18.206 18.206-18.206zm0-3.124c-11.758 0-21.33 9.573-21.33 21.33 0 5.175 1.823 10.055 5.162 13.903v.054l.884.925c4.05 4.156 9.479 6.448 15.284 6.448 11.758 0 21.33-9.572 21.33-21.33 0-3.204-.711-6.381-2.078-9.21-3.54-7.36-11.087-12.12-19.252-12.12z" fill="#fff"/><path d="M87.464 154.4c-5.738 0-10.417-4.679-10.417-10.417 0-5.738 4.68-10.417 10.417-10.417 5.738 0 10.417 4.679 10.417 10.417 0 5.751-4.679 10.417-10.417 10.417zm0-17.711c-4.022 0-7.293 3.272-7.293 7.294s3.271 7.293 7.293 7.293 7.293-3.271 7.293-7.293-3.27-7.294-7.293-7.294z" fill="#fff"/><path d="M69.231 134.822l.094 2.883.925 28.784h-4.572l1.1-31.331.013-.309a2.4 2.4 0 01-.322-.147c-1.837-.966-3.164-3.741-3.164-6.985 0-4.076 2.092-7.387 4.666-7.387 1.193 0 2.292.724 3.137 1.93.04.054.094.134.134.215l.013.013c.108.175.228.362.322.563.67 1.274 1.046 2.883 1.046 4.652.013 3.392-1.435 6.248-3.392 7.119z" fill="#1E7ADD"/><path d="M67.984 120.336c1.194 0 2.293.724 3.137 1.93.04.054.094.134.135.215l.013.013c.107.174.228.362.322.563.67 1.274 1.045 2.883 1.045 4.652 0 3.379-1.447 6.221-3.391 7.106l.093 2.882.925 28.784h-4.571l1.1-31.331.013-.308a2.404 2.404 0 01-.322-.148c-1.837-.965-3.178-3.74-3.178-6.985 0-4.062 2.092-7.373 4.68-7.373zm0-3.124c-4.37 0-7.789 4.612-7.789 10.511 0 3.633 1.3 6.877 3.432 8.768l-1.046 29.896a3.12 3.12 0 00.872 2.279 3.14 3.14 0 002.252.952h4.572a3.11 3.11 0 002.239-.952c.59-.603.911-1.434.884-2.279l-.925-28.784-.04-1.193c2.078-1.89 3.338-5.081 3.338-8.701 0-2.212-.469-4.29-1.367-6.033a9.441 9.441 0 00-.523-.925c-.013-.013-.027-.027-.027-.053-.04-.067-.08-.121-.12-.188-1.502-2.118-3.526-3.298-5.752-3.298z" fill="#fff"/><path d="M109.062 164.009a2.366 2.366 0 01-1.998 2.453c-.053.014-.107.014-.187.014-.054.013-.134.013-.215.013-.174 0-.335-.013-.496-.053a2.37 2.37 0 01-1.877-2.427l.992-21.249h-.777v-22.416c1.555 0 2.909.831 3.687 2.051.04.08.094.147.134.228v.013c.335.63.536 1.328.536 2.065v18.059h-.697l.898 21.249z" fill="#1E7ADD"/><path d="M104.517 120.331c1.556 0 2.91.831 3.687 2.051.04.081.094.148.134.228v.014c.335.63.537 1.327.537 2.064v18.059h-.698l.912 21.25a2.367 2.367 0 01-1.998 2.453c-.053.013-.107.013-.187.013-.054.014-.134.014-.215.014-.174 0-.335-.014-.496-.054a2.37 2.37 0 01-1.877-2.426l.992-21.25h-.777v-22.416h-.014zm0-3.123a3.118 3.118 0 00-3.123 3.123v22.416c0 .737.254 1.421.683 1.957l-.884 19.145a5.435 5.435 0 004.316 5.617c.376.094.778.135 1.18.135.108 0 .295 0 .523-.027.148-.014.322-.027.523-.081a5.487 5.487 0 004.464-5.657l-.831-19.239a3.107 3.107 0 00.617-1.863v-18.059c0-1.14-.268-2.293-.791-3.325a2.074 2.074 0 01-.081-.174 2.231 2.231 0 00-.201-.349c-.026-.053-.067-.107-.094-.161-1.394-2.145-3.753-3.458-6.301-3.458z" fill="#fff"/><path d="M69.231 134.823l.094 2.883.925 28.784h-2.332l1.059-29.83c-.684-.268-1.314-.791-1.824-1.502-.107-.147-.228-.281-.308-.455-.858-1.328-1.367-3.164-1.367-5.202 0-4.076 2.09-7.387 4.665-7.387.322 0 .644.053.952.147.04.054.094.134.134.215l.013.013c.108.174.228.362.322.563.67 1.274 1.046 2.883 1.046 4.652.027 3.392-1.421 6.248-3.379 7.119zM109.062 164.007a2.366 2.366 0 01-1.997 2.453c-.054.014-.108.014-.188.014-.121 0-.228-.014-.322-.04a2.377 2.377 0 01-.08-.631l.214-21.262v-22.416c.51 0 1.019.094 1.502.268.04.08.094.147.134.228v.013c.335.63.536 1.327.536 2.065v18.059h-.697l.898 21.249z" fill="#4BA7FA"/><path opacity=".51" d="M126.465 95.77h-10.659a6.362 6.362 0 01-5.738-3.565l-3.526-7.133c-.308-.63-.589-1.233-.871-1.796-2.078-4.37-3.754-7.87-9.452-8.285V59.533c0-.376-.08-.738-.187-1.073.067-.067.147-.107.187-.2a1.272 1.272 0 00-.04-1.274L84.49 38.833a1.243 1.243 0 00-1.046-.576h-.014c-.429 0-.83.227-1.045.603L71.296 57.012a1.248 1.248 0 00-.026 1.26c.067.108.174.188.268.269-.094.308-.161.643-.161.992v3.727h-6.033c-7.36 0-13.353 5.993-13.353 13.353v20.82c0 .925.75 1.663 1.662 1.663a1.67 1.67 0 001.663-1.663v-5.818h15.297c.281 0 .536-.08.764-.201v4.625a3.339 3.339 0 003.338 3.338h18.206a3.339 3.339 0 003.338-3.338V78.356c3.526.322 4.478 2.239 6.436 6.355.281.59.576 1.206.885 1.836l3.525 7.133a9.682 9.682 0 008.728 5.416h10.658c.925 0 1.663-.751 1.663-1.663-.027-.911-.778-1.662-1.689-1.662zM74.688 59.547v15.418-15.418zm-9.371 7.052h6.033v8.353h-15.9c.79-4.733 4.907-8.353 9.867-8.353zm5.269 21.692H55.289V78.289H71.35V88.49a1.62 1.62 0 00-.764-.201zm4.102 7.749v-17.75 17.75h18.206-18.206z" fill="#1D79DE"/><path d="M91.218 56.37H73.012v36.492h18.206V56.37z" fill="#1E7ADD"/><path d="M91.218 56.369V92.86H73.012V56.37h18.206zm0-3.124H73.012a3.118 3.118 0 00-3.124 3.124V92.86a3.118 3.118 0 003.124 3.124h18.206a3.118 3.118 0 003.124-3.124V56.37a3.127 3.127 0 00-3.124-3.124z" fill="#fff"/><path fill-rule="evenodd" clip-rule="evenodd" d="M93.444 54.507L81.767 36.354 70.68 54.507h22.764z" fill="#1E7ADD"/><path d="M81.767 36.353l11.691 18.152H70.68l11.087-18.152zm0-3.137h-.04a3.12 3.12 0 00-2.627 1.501L68.012 52.87a3.11 3.11 0 00-.053 3.164 3.106 3.106 0 002.721 1.595h22.778c1.14 0 2.199-.63 2.748-1.622a3.1 3.1 0 00-.12-3.19l-11.69-18.153a3.134 3.134 0 00-2.629-1.448zM124.788 95.84H114.13a9.57 9.57 0 01-8.634-5.363l-3.526-7.132a74.17 74.17 0 01-.884-1.837c-2.119-4.45-3.084-6.489-7.682-6.489H53.519v19.252a1.57 1.57 0 01-1.569 1.569 1.57 1.57 0 01-1.568-1.569v-20.82a1.57 1.57 0 011.568-1.569h41.44c6.556 0 8.299 3.647 10.498 8.259.268.576.563 1.18.871 1.796l3.526 7.133c1.099 2.238 3.338 3.62 5.832 3.62h10.658a1.57 1.57 0 011.569 1.568 1.554 1.554 0 01-1.556 1.582z" fill="#fff"/><path d="M68.923 88.346h-16.96a1.57 1.57 0 01-1.568-1.568c0-.872.697-1.569 1.569-1.569h16.96a1.57 1.57 0 011.568 1.569 1.57 1.57 0 01-1.569 1.568zM51.964 75.017a1.57 1.57 0 01-1.569-1.568c0-7.307 5.94-13.246 13.246-13.246h6.194a1.57 1.57 0 011.568 1.569c0 .871-.697 1.568-1.568 1.568H63.64c-5.577 0-10.122 4.545-10.122 10.122 0 .845-.697 1.555-1.555 1.555z" fill="#fff"/><path d="M86.513 69.764H77.84v-7.052c0-2.4 1.944-4.33 4.33-4.33 2.4 0 4.33 1.943 4.33 4.33v7.052h.014z" fill="#4BA7FA"/><path d="M82.185 59.935a2.78 2.78 0 012.775 2.775v5.483h-5.55V62.71a2.78 2.78 0 012.775-2.775zm0-1.569c-2.4 0-4.33 1.944-4.33 4.33v7.053h8.673v-7.052a4.349 4.349 0 00-4.343-4.33z" fill="#fff"/><path d="M86.513 89.082H77.84V82.03c0-2.4 1.944-4.33 4.33-4.33 2.4 0 4.33 1.944 4.33 4.33v7.052h.014z" fill="#4BA7FA"/><path d="M82.185 79.256a2.78 2.78 0 012.775 2.775v5.483h-5.55v-5.483a2.78 2.78 0 012.775-2.775zm0-1.555c-2.4 0-4.33 1.944-4.33 4.33v7.052h8.674V82.03a4.34 4.34 0 00-4.344-4.33zM178.79 135.991v20.191H158.6v-20.191h20.19zm0-3.123H158.6a3.118 3.118 0 00-3.124 3.123v20.191a3.118 3.118 0 003.124 3.123h20.19a3.118 3.118 0 003.124-3.123v-20.191a3.127 3.127 0 00-3.124-3.123z" fill="#fff"/><path d="M219.72 46.596s3.928 5.122 8.125 3.902c4.196-1.207 18.045-10.78 23.568-8.46 5.524 2.32 13.206-.831 16.236.242 2.762.965 9.921 18.661 12.441 22.321.268.39 5.403 13.997 5.671 14.386 7.95 11.838 15.297 17.683 14.452 20.686-.911 3.298-3.445 5.792-3.445 5.792l-19.332-25.486-12.603-21.571s-2.118 15.19 3.245 23.3c0 0 10.873 15.713 11.945 43.464l2.668 25.835 2.655 39.295s-4.518 2.694-6.141 0c-1.622-2.695-8.741-16.893-7.105-34.12 0 0 .885-9.264-7.173-24.534l-8.057-15.284s1.904 13.407-2.132 29.723c0 0-1.126 12.213.349 16.651 1.475 4.437-9.881 33.382-9.881 33.382s-6.086 1.756-5.108-6.502c.979-8.258 3.607-35.688 3.607-35.688l-4.344-30.889s-4.304-17.187 2.762-37.981c0 0 .871-17.67-1.783-24.333 0 0-1.676-1.421-3.312-1.113-1.635.309-13.983 5.765-23.046-6.596 0 0-1.877-1.89-.228-2.869 1.649-.965 5.966-3.553 5.966-3.553z" fill="#4BA7FA"/><path d="M253.679 3.227s-5.054-3.513-7.494 1.126c-2.44 4.652-3.875 8.728-4.478 19.614-.603 10.886-5.912 11.087.63 12.415 6.529 1.327 16.41 2.037 21.424 1.085 5.014-.951 8.178-.093 8.553-4.397.376-4.303 2.266-39.737-18.635-29.843z" fill="#FFD86C"/><path d="M241.694 31.485c.764 0 19.372-3.325 21.544-5.725 2.172-2.386 8.916-6.073 8.916-6.073l-.416 15.994s-14.761 5.952-30.983-1.086l.939-3.11z" fill="#EBC642"/><path d="M241.211 66.958s9.184 6.02 23.569.965l1.166 9.17s-15.953 5.135-22.59-1.461l-2.145-8.674z" fill="#1E7ADD"/><path d="M246.158 208.29c-8.138 3.473-34.67 3.097-30.299-1.059 4.343-4.183 10.872-1.501 16.476-6.422.416-.362.805-.697 1.153-1.032 3.928-3.62 3.768-4.505 3.714-4.639.054 0-.818-2.332 3.03-1.809 1.984.268 4.799-.51 5.657.053.228.161.926 1.006 1.663 2.279 2.091 3.513 4.598 10.082-1.394 12.629z" fill="#59E659"/><path d="M247.552 195.648c-.188.603-.778 1.287-1.998 2.172-3.78 2.762-10.135 4.759-11.543 2.829a4.398 4.398 0 01-.509-.872c3.928-3.62 3.767-4.505 3.713-4.639.054 0-.817-2.332 3.03-1.809 1.984.268 4.8-.51 5.658.053.214.148.912 1.006 1.649 2.266z" fill="#27AD28"/><path d="M238.825 191.399c-1.984 3.981-5.537 7.856-9.546 9.827-5.014 2.453-10.698 3.056-15.592 5.818-.603.335-.67 1.033-.415 1.609.858 1.971 2.949 2.614 4.933 2.896 2.856.415 5.765.603 8.648.67 5.349.121 11.141 0 16.329-1.475 3.62-1.032 7.414-3.284 8.017-7.333.617-4.169-3.298-7.038-3.901-10.94-.228-1.488-2.494-.858-2.266.617.51 3.231 3.231 5.483 3.821 8.607.737 3.955-3.633 6.087-6.757 6.904-4.33 1.127-9.049 1.287-13.5 1.274-2.44 0-4.88-.121-7.307-.349-1.864-.174-5.095-.053-5.979-2.091-.134.536-.282 1.073-.416 1.609 5.202-2.936 11.382-3.419 16.597-6.355 3.875-2.172 7.401-6.194 9.372-10.135.657-1.314-1.368-2.507-2.038-1.153z" fill="#fff"/><path d="M279.729 207.623s-1.582-15.311 1.528-15.807c3.097-.496 4.223-1.179 7.655 2.695 3.432 3.875 5.805 6.261 7.95 6.998 2.145.751 8.5 2.762 4.773 8.205h-20.807l-1.099-2.091z" fill="#59E659"/><path d="M280.023 198.882l10.323-2.668-5.001-5.912-5.322 1.206v7.374z" fill="#27AD28"/><path d="M278.361 192.594c-.496 5.859-.831 12.267.818 17.965a1.19 1.19 0 001.126.858l14.64.161c3.392.04 8.567.643 9.036-3.982.375-3.633-2.976-6.033-6.073-6.998-3.044-.966-6.462-.738-9.425.415-3.365 1.314-6.261 3.741-7.83 7.039-.643 1.354 1.381 2.547 2.025 1.18 2.212-4.666 7.481-7.414 12.589-6.811 2.346.281 6.033 1.555 6.381 4.29.215 1.622-.885 2.453-2.4 2.547-1.877.121-3.794-.013-5.671-.04-4.424-.04-8.848-.094-13.259-.134.376.282.751.577 1.126.858-1.595-5.51-1.22-11.704-.737-17.348.121-1.502-2.225-1.502-2.346 0z" fill="#fff"/><path d="M284.93 191.909c3.164 3.258 6.006 6.824 9.17 10.082 1.059 1.086 2.708-.576 1.662-1.662-3.164-3.258-6.006-6.824-9.17-10.082-1.059-1.073-2.708.59-1.662 1.662z" fill="#fff"/><path d="M260.169 29.018s-1.167 8.54 1.568 10.51c2.735 1.972-8.795 7.214-10.31 1.931 0 0 1.033-7.092-.174-11.167-.013 0 4.143 3.82 8.916-1.274z" fill="#1E7ADD"/><path d="M255.101 44.92h-.175c-2.386-.054-4.075-1.194-4.638-3.138-.041-.16-.054-.322-.041-.496.014-.067.993-6.891-.134-10.658a1.166 1.166 0 01.51-1.328 1.175 1.175 0 011.421.135c.335.295 3.445 2.882 7.266-1.207a1.148 1.148 0 011.354-.255c.456.215.724.71.657 1.22-.442 3.258-.388 8.326 1.1 9.412.791.576 1.086 1.448.791 2.346-.738 2.172-5.028 3.968-8.111 3.968zm-2.481-3.567c.175.442.671 1.193 2.373 1.233 2.521.08 5.296-1.447 5.886-2.225-2.024-1.676-2.252-5.752-2.132-8.634-2.306 1.421-4.397 1.274-5.899.764.403 3.58-.08 7.75-.228 8.862z" fill="#fff"/><path d="M263.238 25.771c-2.56 5.122-5.349 7.95-9.438 8.286-2.131.174-7.28-6.637-6.877-14.104.348-6.408 1.26-10.792 5.443-11.999.697-.201 2.359.818 3.11.858 1.073.054 2.118-1.193 2.963-.831 2.534 1.086 3.727 3.217 4.411 7.4l.161 1.3s4.343-.455 4.249 2.87c-.08 3.325-3.928 5.872-3.928 5.872l-.094.348z" fill="#1E7ADD"/><path d="M253.706 35.24c-.872 0-1.823-.51-2.842-1.502-2.762-2.681-5.417-8.299-5.108-13.849.308-5.778 1.045-11.556 6.301-13.058.777-.228 1.649.12 2.56.483.309.12.778.308.939.335.134 0 .563-.201.858-.349.643-.335 1.528-.804 2.494-.388 2.855 1.22 4.343 3.633 5.107 8.285l.041.308c.952.054 2.292.322 3.258 1.207.764.71 1.166 1.702 1.126 2.869-.081 3.271-3.044 5.778-4.103 6.569a.482.482 0 01-.067.148c-2.909 5.818-6.113 8.58-10.39 8.928-.04.014-.107.014-.174.014zM252.58 9.11c-3.298.952-4.156 4.733-4.492 10.913-.375 6.998 4.344 12.79 5.618 12.87 3.378-.281 5.899-2.547 8.419-7.56l.067-.242c.081-.268.241-.496.469-.644.041-.026 3.339-2.265 3.406-4.933.013-.644-.201-.925-.376-1.086-.67-.617-2.131-.63-2.587-.59a1.17 1.17 0 01-1.287-1.019l-.161-1.3c-.724-4.371-1.957-5.725-3.714-6.476.041.04-.281.201-.482.309-.563.294-1.274.643-2.078.616-.51-.027-1.073-.255-1.676-.496-.322-.12-.925-.362-1.126-.362z" fill="#fff"/><path d="M300.977 101.198c5.537 2.843 8.835 8.165 9.667 14.332.174 1.274.214 2.95-.443 4.049-.657 1.099-1.542 1.729-2.587 1.005-.536-.375-.831-.992-1.073-1.595a20.468 20.468 0 01-1.26-4.719c-.147-1.006-.617-2.36-1.622-2.172-1.609.295-.349 3.593-1.904 4.129-.871.309-1.622-.683-1.984-1.541a20.012 20.012 0 01-1.448-9.077l2.654-4.411z" fill="#1E7ADD"/><path d="M300.481 102.031c3.486 1.823 6.167 4.719 7.749 8.326.778 1.796 1.327 3.78 1.502 5.724.093.979.12 2.105-.376 2.99-.187.348-.523.871-.978.804-.55-.067-.858-1.072-1.019-1.488a19.398 19.398 0 01-.952-3.352c-.188-.951-.255-1.944-.764-2.802-.791-1.327-2.682-1.582-3.5-.134-.268.483-.388 3.151-.777 3.151-.644 0-1.207-2.4-1.341-2.869a18.896 18.896 0 01-.71-3.942c-.041-.657-.054-1.3-.041-1.957 0-.107.054-.858-.08-.402.013-.04.054-.081.067-.121.214-.496.576-.965.858-1.421.577-.952 1.14-1.904 1.716-2.856.644-1.085-1.046-2.064-1.689-.992a567.043 567.043 0 01-1.81 3.003c-.255.416-.523.832-.764 1.274-.469.858-.282 2.159-.228 3.11.067 1.395.281 2.789.617 4.13.308 1.22.67 2.587 1.367 3.646 1.126 1.716 3.539 1.85 4.156-.348.188-.671.134-1.368.268-2.038.027-.148.161-.429.067-.443.309.054.456 1.033.496 1.261.255 1.34.483 2.654.925 3.955.362 1.072.765 2.279 1.676 3.003 2.159 1.702 4.304-.671 4.693-2.789.402-2.212-.148-4.679-.818-6.797-1.529-4.853-4.786-8.956-9.318-11.329-1.126-.563-2.105 1.127-.992 1.703z" fill="#fff"/><path opacity=".51" d="M242.9 82.299s11.007 3.646 24.749-1.502l-1.609-4.357s-14.895 6.14-22.764.282l-.376 5.577zM263.963 58.3l-4.129 9.625 4.585-2.131.844-5.671-1.3-1.824zM222.053 48.648l-6.489 5.416-2.48-2.708 5.832-4.665 3.137 1.957zM293.806 103.868l4.88-6.904 3.097 1.984-4.438 6.006-3.539-1.086z" fill="#1D79DE"/><path d="M226.557 51.943a212.405 212.405 0 0123.22-10.15c-.375-.093-.764-.2-1.139-.294 3.66 4.424 10.792 2.373 14.975.188 1.341-.698.148-2.722-1.18-2.025-3.271 1.703-9.197 3.74-12.146.188-.241-.295-.778-.43-1.14-.295a218.813 218.813 0 00-23.77 10.377c-1.354.67-.174 2.694 1.18 2.01zM269.526 86.868c5.055 11.798 7.441 24.668 9.197 37.324 1.998 14.386 3.003 28.878 4.036 43.357.563 7.856 1.112 15.699 1.836 23.542.282-.375.577-.751.858-1.126-1.796.295-3.593.59-5.402.871-1.489.242-.859 2.494.616 2.266 1.797-.295 3.593-.59 5.403-.871.469-.081.898-.657.858-1.126-2.614-28.449-2.842-57.434-9.116-85.414-1.529-6.824-3.5-13.554-6.261-19.99-.604-1.393-2.615-.2-2.025 1.167z" fill="#fff"/><path d="M253.612 104.084c.979 5.778 2.695 11.355 4.947 16.758 2.199 5.256 4.974 10.243 7.28 15.445 2.4 5.429 4.612 11.342 5.001 17.321.415 6.355-.269 12.589.938 18.903 1.341 7.039 3.995 13.742 6.623 20.378.549 1.381 2.815.778 2.265-.616-2.319-5.859-4.665-11.758-6.1-17.898-.75-3.204-1.233-6.449-1.327-9.747-.094-3.298.134-6.596.014-9.881-.443-11.636-6.704-21.732-11.342-32.055-2.776-6.167-4.88-12.548-6.02-19.225-.268-1.488-2.534-.858-2.279.617zM239.629 57.251c-.643 4.357.161 8.54.979 12.803.979 5.041 1.18 9.827.348 14.908-1.421 8.688-4.022 16.96-3.968 25.862.054 7.105 1.515 14.05 2.829 21.008 1.703 8.982 3.124 18.045 2.534 27.215-.711 11.141-2.454 22.282-3.767 33.369-.041.376.254.845.576 1.006 1.864.938 3.66 1.796 5.711 2.212 1.475.308 2.105-1.957.617-2.266-1.85-.375-3.486-1.126-5.162-1.971.188.336.389.671.577 1.006 1.153-9.733 2.467-19.453 3.432-29.213.925-9.438.027-18.461-1.528-27.779-1.167-7.038-2.936-13.996-3.379-21.128a61.273 61.273 0 01.375-11.624c.604-4.786 1.891-9.425 2.843-14.13 1.005-4.934 1.582-9.908.898-14.935-.711-5.215-2.48-10.417-1.703-15.726.268-1.462-1.984-2.105-2.212-.617z" fill="#fff"/><path d="M254.336 107.969c1.623 7.374 2.078 14.908 1.609 22.443-.241 3.834-.724 7.642-1.394 11.422-.59 3.352-1.287 6.704-1.327 10.109-.041 3.62.75 7.186.71 10.806-.04 3.727-.992 7.36-2.172 10.859-2.306 6.851-4.813 13.675-7.333 20.432-.523 1.421 1.743 2.024 2.266.616 2.6-6.985 5.255-14.036 7.561-21.115 1.059-3.271 1.89-6.65 2.024-10.095.148-3.861-.737-7.669-.697-11.517.04-3.941.992-7.789 1.609-11.663.563-3.513.965-7.052 1.153-10.605.416-7.481-.121-15.002-1.73-22.322-.348-1.475-2.6-.845-2.279.63zM209.839 37.185c3.888 6.194 9.358 11.302 15.82 14.72 1.327.711 2.52-1.313 1.18-2.024a39.48 39.48 0 01-14.989-13.889c-.791-1.26-2.815-.08-2.011 1.193z" fill="#fff"/><path d="M203.914 41.272c3.741 6.395 8.513 13.125 14.56 17.536 2.855 2.078 6.1 3.137 9.626 3.097 4.102-.053 8.111-1.22 12.24-1.032 1.501.067 1.501-2.28 0-2.346-3.606-.161-7.106.683-10.685.965-3.714.281-6.985-.496-10.001-2.708-5.712-4.197-10.19-10.645-13.729-16.691-.751-1.314-2.775-.135-2.011 1.18z" fill="#fff"/><path d="M205.482 40.532l5.148-1.93c.577-.215 1.033-.805.818-1.448-.188-.563-.831-1.046-1.448-.818l-5.148 1.93c-.576.215-1.032.805-.818 1.449.188.55.831 1.045 1.448.817z" fill="#fff"/><path d="M191.137 19.851c8.902 2.614 13.688 11.476 19.037 18.314.926 1.18 2.575-.483 1.663-1.663-5.671-7.24-10.658-16.141-20.07-18.903-1.461-.443-2.078 1.823-.63 2.252z" fill="#fff"/><path d="M189.475 17.677c-2.185 2.025.738 4.746 2.186 6.127 1.85 1.756 3.955 3.204 6.086 4.612V26.39c-1.166.845-2.024 2.025-3.016 3.044-1.113 1.153-2.226 2.695-1.622 4.384.603 1.649 2.56 2.654 3.941 3.552a50.883 50.883 0 005.805 3.178c1.354.63 2.547-1.395 1.18-2.025a52.757 52.757 0 01-4.317-2.252c-1.314-.777-2.815-1.582-3.928-2.628-1.113-1.045.08-2.037.898-2.869.751-.75 1.368-1.742 2.226-2.36.724-.522.777-1.514 0-2.024-.872-.563-8.809-6.126-7.803-7.065 1.126-1.019-.536-2.668-1.636-1.649z" fill="#fff"/><path d="M206.998 30.4c-.979-.362-2.052-.51-3.071-.63-.978-.121-2.131-.242-3.083.093-.885.295-1.649.98-1.636 1.985.014.871.617 1.595 1.261 2.104 1.166.925 2.466 1.636 3.82 2.28 1.489.697 3.004 1.327 4.438 2.104.563.295 1.274.134 1.609-.415.308-.536.134-1.3-.416-1.609-2.172-1.18-4.531-1.998-6.663-3.271-.456-.268-.979-.603-1.34-.912-.094-.08-.228-.214-.295-.281-.108-.108 0-.094-.054-.027a1.972 1.972 0 00-.134.335s.08-.04.107-.04c.067-.027.134-.04.201-.054.148-.027.188-.013.014 0 .201 0 .415-.027.616-.027.47 0 .925.027 1.395.08.08.014.362.04.308.04-.121-.013.067.014.08.014l.282.04c.255.04.509.094.751.135.402.08.818.187 1.206.335.59.228 1.287-.255 1.448-.818.161-.684-.241-1.247-.844-1.461zM241.881 75.516c2.051 3.687 6.69 4.786 10.618 4.746 4.76-.04 9.733-1.1 14.037-3.177 1.354-.657.174-2.682-1.18-2.025-3.673 1.783-7.963 2.681-12.025 2.842-3.299.134-7.629-.362-9.412-3.566-.737-1.314-2.762-.134-2.038 1.18zM240.38 66.623c6.503 5.966 18.26 6.261 25.098.724 1.179-.951-.496-2.6-1.663-1.662-5.818 4.692-16.289 4.303-21.785-.724-1.1-1.019-2.762.63-1.65 1.662zM213.231 51.638c1.381-.51 2.668-1.22 3.741-2.24 1.072-1.031 1.81-2.292 2.373-3.646.107-.254.013-.67-.121-.898-.147-.241-.415-.47-.697-.536-.295-.067-.63-.054-.898.12-.268.175-.416.403-.537.698.121-.295.027-.054-.013.013l-.121.241c-.067.134-.134.282-.201.416-.147.268-.308.536-.469.79a3.24 3.24 0 01-.255.35c-.04.067-.214.227.014-.014a1.359 1.359 0 00-.134.16 6.824 6.824 0 01-.604.645c-.107.093-.201.187-.308.281-.054.04-.107.094-.161.134-.214.188.174-.12-.013.014a8.2 8.2 0 01-1.488.898c-.094.04-.322.2-.416.187.161-.067.188-.08.067-.026-.04.013-.067.026-.107.04-.081.04-.175.067-.255.094-.576.214-1.019.804-.818 1.448.161.576.805 1.059 1.421.83z" fill="#fff"/><path d="M264.673 59.8c-.992 3.969-1.341 8.03-.791 12.093.724 5.363 2.869 10.363 5.631 14.975.777 1.287 2.802.121 2.024-1.18-2.601-4.316-4.665-9.022-5.349-14.063-.51-3.754-.174-7.534.737-11.194.376-1.462-1.89-2.092-2.252-.63zM262.42 41.689c1.81 1.18 3.807 2.078 5.51 3.432 2.829 2.266 4.719 5.483 6.314 8.674 2.574 5.148 4.438 10.658 6.744 15.94 2.292 5.283 4.799 10.484 7.722 15.458 3.231 5.51 6.985 10.726 11.436 15.324 1.046 1.086 2.708-.576 1.662-1.662-8.205-8.46-13.835-18.998-18.528-29.71-2.359-5.389-4.263-10.993-6.864-16.275-1.609-3.244-3.539-6.529-6.274-8.956-1.971-1.742-4.33-2.828-6.516-4.25-1.287-.83-2.453 1.194-1.206 2.025z" fill="#fff"/><path d="M264.27 59.41c5.537 11.02 12.026 21.585 19.279 31.56 3.432 4.719 7.038 9.317 10.873 13.715 1.085 1.246 2.654 3.231 4.33 1.662 1.515-1.421 2.038-3.727 3.459-5.229 1.032-1.099-.617-2.761-1.663-1.662-1.193 1.26-1.957 2.869-2.882 4.317-.107.201-.228.389-.349.59-.174.255-.174.268.014.04-.349-.134-1.006-1.113-1.234-1.381a188.542 188.542 0 01-2.614-3.057 199.914 199.914 0 01-10.162-13.353c-6.341-9.036-12.066-18.514-17.013-28.381-.697-1.354-2.708-.161-2.038 1.18zM239.361 35.066c1.729 1.247 3.579 2.292 5.604 2.976 2.024.684 4.156.938 6.287.992 1.515.04 1.502-2.306 0-2.346-1.93-.054-3.82-.295-5.657-.912-1.823-.616-3.486-1.622-5.041-2.748-.51-.375-1.301-.094-1.609.416-.362.616-.107 1.26.416 1.622z" fill="#fff"/><path d="M240.3 33.94c3.646-4.652 2.869-10.47 2.989-16.008.067-3.499.751-7.025 2.226-10.215 1.153-2.494 4.41-6.476 7.333-3.66.456.442 1.207.455 1.663 0 3.7-3.674 8.969-.912 11.838 2.36 2.802 3.203 4.29 7.386 4.96 11.542.764 4.853.349 9.827-.121 14.68-.053.496.041 1.314-.174 1.77-.322.657-.469.55-1.126.67a80.25 80.25 0 00-2.588.577c-2.024.47-4.062 1.005-6.14 1.046-1.501.026-1.515 2.36 0 2.346 2.48-.04 4.907-.697 7.32-1.26 1.837-.43 4.264-.39 4.786-2.615.684-2.909.671-6.314.765-9.304.107-3.15-.027-6.314-.604-9.411-.952-5.081-3.258-10.203-7.306-13.568-3.794-3.15-9.439-4.29-13.246-.51h1.662c-1.997-1.93-5.081-1.984-7.36-.469-2.896 1.918-4.303 5.604-5.188 8.809-.992 3.592-1.019 7.212-.992 10.9.027 3.646.053 7.64-2.306 10.657-.966 1.18.683 2.856 1.609 1.663zM157.172 450H2.875a.876.876 0 010-1.75h154.297a.876.876 0 010 1.75zM171.612 449.955h-8.802a.876.876 0 010-1.75h8.802a.876.876 0 010 1.75z" fill="#fff"/><path opacity=".51" d="M139.673 348.551a2.16 2.16 0 00.351-1.189v-10.38c0-.718-.172-1.428-.486-2.071-.03-.06-.052-.12-.09-.18a4.702 4.702 0 00-4.105-2.445 2.186 2.186 0 00-2.184 2.183v3.508a12.675 12.675 0 00-7.62-2.573c-2.371 0-4.584.666-6.484 1.81-.134-.763-.351-1.496-.68-2.139a4.64 4.64 0 00-.329-.576c-.015-.022-.03-.052-.053-.074-.897-1.369-2.228-2.147-3.656-2.147-2.73 0-4.869 2.827-4.869 6.432 0 2.116.741 4.03 1.967 5.204l-.598 17.013a2.185 2.185 0 002.183 2.259h2.633a2.185 2.185 0 002.183-2.259l-.097-2.931a12.508 12.508 0 007.8 2.707c2.834 0 5.451-.95 7.56-2.535l-.06 1.293a3.524 3.524 0 002.782 3.627c.247.06.501.09.771.09.246 0 .456-.03.59-.052a3.543 3.543 0 002.969-3.665l-.478-10.91z" fill="#1D79DE"/><path d="M160.282 403.187v-56.714c0-7.583-6.147-13.73-13.729-13.73H28.906c-7.582 0-13.73 6.147-13.73 13.73v56.714c0 7.583 6.147 13.73 13.73 13.73h117.647c7.582.008 13.729-6.139 13.729-13.73z" fill="#1E7ADD"/><path d="M146.553 332.742c7.582 0 13.729 6.147 13.729 13.73v56.715c0 7.582-6.147 13.729-13.729 13.729H28.906c-7.582 0-13.73-6.147-13.73-13.729v-56.715c0-7.583 6.147-13.73 13.73-13.73h117.647zm0-1.742H28.906c-8.532 0-15.472 6.94-15.472 15.472v56.715c0 8.532 6.94 15.472 15.472 15.472h117.647c8.532 0 15.472-6.94 15.472-15.472v-56.715c0-8.532-6.94-15.472-15.472-15.472z" fill="#fff"/><path opacity=".51" d="M31.629 410.366h111.207c8.735 0 11.045-5.25 11.045-11.733v-47.599c0-6.483-3.44-11.733-11.045-11.733H31.629c-6.102 0-11.046 5.25-11.046 11.733v5.34c0 1.525 1.137 2.767 2.536 2.767 1.398 0 2.535 1.241 2.535 2.767v24.162c0 1.525-1.137 2.767-2.535 2.767-1.399 0-2.535 1.241-2.535 2.766v7.037c0 6.476 4.95 11.726 11.045 11.726z" fill="#1D79DE"/><path d="M31.853 410.006h107.715c8.734 0 14.537-12.736 14.537-19.219v-40.113c0-6.483-3.44-11.733-11.045-11.733H31.853c-6.103 0-11.046 5.25-11.046 11.733v5.34c0 1.525 1.137 2.766 2.536 2.766 1.398 0 2.535 1.242 2.535 2.767v24.162c0 1.526-1.137 2.767-2.535 2.767-1.399 0-2.536 1.242-2.536 2.767v7.037c0 6.476 4.95 11.726 11.046 11.726z" fill="#4BA7FA"/><path opacity=".51" d="M154.105 378.763v-28.088c0-6.476-3.432-11.726-11.045-11.726H31.853c-6.095 0-11.046 5.25-11.046 11.726v5.339c0 1.526 1.137 2.76 2.536 2.76.702 0 1.33.306 1.794.807.456.501.748 1.197.748 1.959v24.162c0 1.526-1.137 2.76-2.543 2.76-.695 0-1.33.306-1.787.807a2.897 2.897 0 00-.748 1.96v7.037c0 6.483 4.95 11.733 11.046 11.733h104.97c9.438 0 17.11-7.62 17.178-17.058l.104-14.178z" fill="#1D79DE"/><path d="M143.06 339.301c7.613 0 11.045 5.249 11.045 11.725v41.205c0 10.013-8.114 18.127-18.127 18.127H31.86c-6.095 0-11.045-5.25-11.045-11.733v-7.037c0-.763.284-1.459.748-1.96a2.401 2.401 0 011.787-.807c1.406 0 2.542-1.234 2.542-2.76v-24.162c0-.762-.284-1.458-.747-1.959a2.599 2.599 0 00-.8-.591 2.356 2.356 0 00-.995-.216c-1.399 0-2.535-1.234-2.535-2.76v-5.339c0-6.476 4.95-11.726 11.045-11.726h111.2v-.007zm0-1.743H31.853c-7.052 0-12.788 6.042-12.788 13.476v5.339c0 2.483 1.914 4.502 4.277 4.502.09 0 .18.022.27.06a.85.85 0 01.239.187c.18.202.284.486.284.785v24.162c0 .553-.366 1.017-.793 1.017-1.159 0-2.28.501-3.08 1.383a4.611 4.611 0 00-1.197 3.134v7.037c0 7.433 5.736 13.483 12.788 13.483H135.97a19.735 19.735 0 0014.051-5.818 19.735 19.735 0 005.818-14.052v-41.204c.008-8.331-4.89-13.491-12.78-13.491z" fill="#fff"/><path d="M151.189 380.909v-30.16c0-6.52-3.418-11.8-10.986-11.8H33.991c-6.065 0-10.993 5.28-10.993 11.8v5.37c0 1.219.718 2.266 1.713 2.632.254.097.523.142.807.142.696 0 1.324.314 1.788.823.463.501.74 1.204.74 1.974v24.311c0 1.533-1.13 2.775-2.528 2.775-.695 0-1.323.314-1.78.815a2.912 2.912 0 00-.74 1.974v7.082c0 6.528 4.928 8.974 10.993 8.974h100.447c8.951 0 16.272-7.142 16.489-16.093l.262-10.619z" fill="#4BA7FA"/><path d="M72.407 406.007a4.088 4.088 0 01-4.083-4.083 4.088 4.088 0 014.083-4.083 4.088 4.088 0 014.083 4.083 4.088 4.088 0 01-4.083 4.083zm0-6.431a2.339 2.339 0 00-2.34 2.34 2.34 2.34 0 102.34-2.34zM101.781 406.007a4.088 4.088 0 01-4.083-4.083 4.088 4.088 0 014.083-4.083 4.088 4.088 0 014.083 4.083 4.088 4.088 0 01-4.083 4.083zm0-6.431a2.339 2.339 0 00-2.34 2.34 2.345 2.345 0 002.34 2.341 2.345 2.345 0 002.341-2.341 2.344 2.344 0 00-2.341-2.34z" fill="#fff"/><path d="M86.742 405.13a3.215 3.215 0 10.001-6.43 3.215 3.215 0 000 6.43z" fill="#4BA7FA"/><path d="M86.743 406.007a4.088 4.088 0 01-4.084-4.083 4.088 4.088 0 014.084-4.083 4.088 4.088 0 014.083 4.083 4.079 4.079 0 01-4.083 4.083zm0-6.431a2.34 2.34 0 102.34 2.34 2.339 2.339 0 00-2.34-2.34z" fill="#1E7ADD"/><path opacity=".51" d="M136.659 376.998a1.717 1.717 0 00-.314-.195v-5.406c0-.045-.008-.083-.015-.128-.008-.097-.015-.194-.03-.291a.811.811 0 00-.045-.187c-.022-.082-.045-.172-.075-.254-.022-.06-.045-.127-.075-.187a3.055 3.055 0 00-.119-.225c-.03-.059-.068-.112-.105-.164a2.41 2.41 0 00-.164-.21c-.038-.044-.083-.097-.12-.134-.067-.067-.135-.12-.21-.18a2.275 2.275 0 00-.142-.112c-.074-.052-.157-.09-.231-.134-.06-.03-.113-.068-.172-.09-.008 0-.015-.008-.023-.015l-8.742-3.747a2.524 2.524 0 00-.994-.202 2.2 2.2 0 00-.314.023l-1.937.247a7.777 7.777 0 00.957-2.446c.822-4.045-1.66-7.695-1.944-8.099a2.534 2.534 0 00-1.653-1.032 2.547 2.547 0 00-1.892.457c-2.266 1.66-3.261 3.821-3.545 5.967-1.765-1.002-3.851-1.436-5.81-1.436-.344 0-.546.015-.546.015a2.56 2.56 0 00-1.735.875 2.511 2.511 0 00-.598 1.847c.209 2.476 1.271 4.308 2.677 5.639l-5.033.636c-.03 0-.052.014-.082.014-.082.015-.157.03-.232.053-.082.022-.157.045-.232.067-.067.023-.134.06-.202.09-.075.037-.157.075-.232.12-.059.037-.119.074-.172.119-.067.053-.142.105-.202.165-.022.022-.052.037-.074.06-.03.029-.045.059-.075.089a1.74 1.74 0 00-.18.217c-.044.052-.082.112-.119.165a1.998 1.998 0 00-.135.246c-.03.06-.06.12-.082.187-.037.09-.06.18-.082.27-.015.067-.038.127-.045.194-.015.09-.023.187-.03.284 0 .053-.015.105-.015.157v7.105c-3.747 1.577-6.2 3.821-6.2 6.76 0 6.678 12.601 9.721 24.312 9.721s24.311-3.043 24.311-9.721c.015-3.231-2.931-5.601-7.283-7.194zm-2.827-.883v-2.206 2.206zm-19.002-12.653c-.037-.037-.067-.074-.105-.112l.105.105v.007zm-4.3-2.011c.127.022.254.037.389.067l-.389-.067zm.651.119c.134.03.269.06.411.098-.142-.038-.277-.068-.411-.098zm1.151 5.078zm-.478-4.913c.149.045.291.09.441.142-.15-.045-.292-.097-.441-.142zm.688.239c.179.067.351.15.531.232a4.692 4.692 0 00-.531-.232zm.695.299c.225.112.449.247.666.389a10.44 10.44 0 00-.666-.389zm.815.509zm13.371 5.863l-2.333-1.002 2.333 1.002zm-8.398-2.76c1.07-.807 1.735-1.712 2.079-2.647-.344.927-1.009 1.832-2.079 2.647zm.771-9.579zm-10.5 5.033c-.142-.008-.261-.008-.366-.008h.022c.105 0 .217 0 .344.008zm1.01.082c-.135-.015-.254-.03-.374-.038.12.008.247.023.374.038zm-.546-.06a4.665 4.665 0 00-.434-.022c.127 0 .277.014.434.022zm-1.025-.03h-.059.059z" fill="#1D79DE"/><path d="M118.188 389.148c11.321 0 20.498-3.034 20.498-6.776 0-3.741-9.177-6.775-20.498-6.775-11.32 0-20.498 3.034-20.498 6.775 0 3.742 9.178 6.776 20.498 6.776z" fill="#4BA7FA"/><path d="M118.188 375.6c11.322 0 20.497 3.036 20.497 6.775 0 3.739-9.175 6.775-20.497 6.775s-20.498-3.036-20.498-6.775c0-3.739 9.176-6.775 20.498-6.775zm0-1.743c-11.053 0-22.24 2.924-22.24 8.518 0 5.593 11.187 8.517 22.24 8.517 11.052 0 22.24-2.924 22.24-8.517 0-5.594-11.188-8.518-22.24-8.518z" fill="#fff"/><path opacity=".51" d="M138.685 382.376c0 .434-.127.867-.366 1.279-1.802-3.134-10.126-5.497-20.124-5.497s-18.329 2.363-20.131 5.497a2.542 2.542 0 01-.366-1.279c0-3.747 9.175-6.768 20.505-6.768 11.307 0 20.482 3.029 20.482 6.768z" fill="#1D79DE"/><path opacity=".51" d="M101.34 381.94v-5.534c0-1.159 1.069-2.094 2.355-2.064l29.113.785c1.234.03 2.221.95 2.221 2.064v6.252c0 1.181-1.107 2.124-2.416 2.056l-29.112-1.503c-1.212-.06-2.161-.964-2.161-2.056z" fill="#1D79DE"/><path d="M103.516 379.989v-10.656l28.021 1.01v11.576l-28.021-1.93z" fill="#1E7ADD"/><path d="M103.516 369.332l28.013 1.01v11.576l-28.013-1.93v-10.656zm0-1.742c-.449 0-.883.172-1.212.486a1.722 1.722 0 00-.531 1.256v10.649c0 .92.711 1.675 1.623 1.742l28.013 1.93c.038 0 .083.007.12.007.441 0 .867-.164 1.189-.471.351-.329.553-.793.553-1.271v-11.576c0-.935-.74-1.705-1.682-1.743l-28.013-1.009h-.06z" fill="#fff"/><path d="M103.516 369.335l19.795-2.513 8.226 3.522-28.021-1.009z" fill="#4BA7FA"/><path d="M123.311 366.821l8.218 3.522-28.013-1.01 19.795-2.512zm0-1.743c-.075 0-.15.008-.217.015l-19.795 2.513a1.741 1.741 0 00-1.518 1.809c.037.905.77 1.631 1.675 1.661l28.013 1.009h.06c.815 0 1.518-.561 1.698-1.361a1.732 1.732 0 00-1.017-1.982l-8.219-3.522a1.61 1.61 0 00-.68-.142z" fill="#fff"/><path d="M116.992 365.601s-3.246-6.079 1.338-9.445c.008 0 4.263 6.005-1.338 9.445z" fill="#1E7ADD"/><path d="M118.337 356.156s4.255 6.005-1.338 9.445c-.008 0-3.246-6.08 1.338-9.445zm0-1.742c-.366 0-.732.119-1.032.336-4.591 3.365-3.215 9.108-1.847 11.673a1.738 1.738 0 001.541.92c.321 0 .635-.089.912-.261 1.967-1.212 3.171-2.827 3.575-4.809.733-3.604-1.623-6.992-1.728-7.134a1.73 1.73 0 00-1.144-.71 3.37 3.37 0 00-.277-.015z" fill="#fff"/><path d="M115.152 366.956s-6.88-.404-7.359-6.072c0 .007 7.337-.494 7.359 6.072z" fill="#59E659"/><path d="M108.145 360.882c1.465 0 6.992.374 7.007 6.08 0 0-6.88-.404-7.359-6.072 0 0 .127-.008.352-.008zm0-1.742c-.299 0-.471.015-.471.015a1.788 1.788 0 00-1.204.605c-.3.352-.457.815-.419 1.279.478 5.676 6.095 7.493 8.996 7.665h.105a1.744 1.744 0 001.742-1.75c-.015-5.773-4.726-7.814-8.749-7.814z" fill="#fff"/><path opacity=".51" d="M113.2 388.17a3.911 3.911 0 100-7.822 3.911 3.911 0 000 7.822z" fill="#1D79DE"/><path opacity=".51" d="M119.347 388.468a3.911 3.911 0 100-7.822 3.911 3.911 0 000 7.822z" fill="#1D79DE"/><path d="M112.736 384.617a2.99 2.99 0 100-5.982 2.99 2.99 0 000 5.982z" fill="#4BA7FA"/><path d="M112.736 378.635a2.99 2.99 0 012.991 2.991 2.99 2.99 0 11-5.982 0 2.985 2.985 0 012.991-2.991zm0-1.75a4.747 4.747 0 00-4.741 4.741 4.743 4.743 0 004.741 4.741 4.747 4.747 0 004.741-4.741 4.747 4.747 0 00-4.741-4.741z" fill="#fff"/><path d="M117.881 385.202a1.788 1.788 0 100-3.576 1.788 1.788 0 000 3.576z" fill="#FFD86C"/><path d="M117.881 381.627a1.788 1.788 0 110 3.576 1.788 1.788 0 010-3.576zm0-1.742a3.535 3.535 0 00-3.529 3.529 3.536 3.536 0 003.529 3.53 3.536 3.536 0 003.53-3.53 3.536 3.536 0 00-3.53-3.529zM102.831 374.749l-.082 1.741 29.185 1.37.082-1.74-29.185-1.371z" fill="#fff"/><path opacity=".51" d="M77.126 352.372H68.39c-.374 0-.733.187-.95.493l-3.918 5.564c-2.042-.284-4.285-.389-6.386-.389-.74 0-1.496.015-2.259.037l.584-6.67a1.167 1.167 0 00-1.055-1.256 6.932 6.932 0 00-5.077 1.6 6.938 6.938 0 00-2.46 4.726 7.01 7.01 0 00.306 2.737c-2.154.733-3.612 1.877-3.612 3.649 0 .217.03.419.075.614-.12.179-.21.389-.21.628 0 .942.097 1.884.292 2.797 1.054 5.092 4.92 9.056 9.751 10.409a2.162 2.162 0 00-.082.584v6.954c-4.51.352-8.645 1.473-8.645 4.427 0 3.769 6.738 4.562 12.392 4.562 5.653 0 12.39-.793 12.39-4.562 0-2.954-4.135-4.075-8.644-4.427v-6.954c0-.202-.037-.404-.082-.591 5.78-1.608 10.043-6.91 10.043-13.199 0-.239-.09-.441-.21-.628.038-.195.076-.397.076-.614 0-2.049-1.952-3.26-4.69-3.963l2.97-4.218h8.128c.643 0 1.16-.516 1.16-1.159a1.143 1.143 0 00-1.152-1.151zm-19.99 7.986zm-8.846.965c-1.503.426-2.4.965-2.4 1.548 0 .03.014.052.014.082-.007-.03-.015-.052-.015-.082 0-.583.898-1.122 2.401-1.548zm3.216 29.815c-2.678-.403-4.442-1.084-4.442-1.862 0-.777 1.764-1.458 4.442-1.862-2.678.404-4.442 1.085-4.442 1.862 0 .778 1.764 1.459 4.442 1.862 1.607.24 3.544.382 5.63.382-2.086.007-4.023-.135-5.63-.382zm7.066-6.401v-6.835 6.835zm7.254-23.466a17.977 17.977 0 00-1.264-.285c.45.09.875.187 1.264.285z" fill="#1D79DE"/><path d="M68.451 363.572c0 6.506-5.272 11.778-11.778 11.778-5.676 0-10.41-4.023-11.516-9.378a11.507 11.507 0 01-.247-2.4h23.541z" fill="#4BA7FA"/><path d="M56.673 376.218c-5.96 0-11.157-4.233-12.369-10.066-.18-.837-.27-1.712-.27-2.58 0-.478.39-.875.876-.875H68.45c.479 0 .875.389.875.875-.007 6.97-5.683 12.646-12.653 12.646zM45.807 364.44c.038.456.105.905.195 1.353 1.04 5.033 5.526 8.682 10.663 8.682 5.721 0 10.425-4.427 10.874-10.035H45.807z" fill="#fff"/><path opacity=".51" d="M67.397 363.477c0 5.93-4.809 10.746-10.746 10.746-5.175 0-9.49-3.672-10.507-8.547a10.728 10.728 0 009.288 5.346c4.823 0 8.899-3.17 10.26-7.537h1.705v-.008z" fill="#1D79DE"/><path d="M53.076 362.405a5.445 5.445 0 01-4.95-5.893 5.445 5.445 0 015.893-4.95l-.943 10.843z" fill="#FFD86C"/><path d="M53.076 363.281h-.075a6.269 6.269 0 01-4.284-2.228 6.29 6.29 0 01-1.459-4.607 6.263 6.263 0 012.229-4.285 6.292 6.292 0 014.606-1.458.87.87 0 01.793.942l-.942 10.843a.87.87 0 01-.868.793zm-.007-10.843a4.494 4.494 0 00-2.46 1.047 4.53 4.53 0 00-1.616 3.103 4.54 4.54 0 001.055 3.335 4.523 4.523 0 002.243 1.459l.778-8.944z" fill="#fff"/><path d="M67.793 362.409c0 1.301-5.287 2.355-11.12 2.355-5.833 0-11.165-1.054-11.165-2.355 0-1.302 5.332-2.356 11.165-2.356 5.833.007 11.12 1.062 11.12 2.356z" fill="#1E7ADD"/><path d="M56.673 360.058c5.833 0 11.12 1.055 11.12 2.356s-5.287 2.356-11.12 2.356c-5.833 0-11.165-1.055-11.165-2.356s5.34-2.356 11.165-2.356zm0-1.742c-2.931 0-5.885.262-8.121.725-2.229.464-4.786 1.257-4.786 3.373 0 2.116 2.557 2.909 4.786 3.373 2.228.463 5.19.725 8.12.725 2.925 0 5.879-.262 8.1-.725 2.213-.464 4.763-1.257 4.763-3.373 0-2.116-2.542-2.909-4.763-3.373-2.214-.463-5.168-.725-8.1-.725z" fill="#fff"/><path d="M56.673 389.29c5.22 0 9.452-.944 9.452-2.109 0-1.164-4.232-2.108-9.452-2.108s-9.453.944-9.453 2.108c0 1.165 4.232 2.109 9.453 2.109z" fill="#4BA7FA"/><path d="M56.673 385.081c5.22 0 9.452.942 9.452 2.109 0 1.166-4.232 2.109-9.452 2.109s-9.453-.943-9.453-2.109c.008-1.167 4.233-2.109 9.453-2.109zm0-1.75c-4.18 0-11.195.501-11.195 3.851 0 3.351 7.015 3.852 11.195 3.852 4.18 0 11.195-.501 11.195-3.852 0-3.35-7.015-3.851-11.195-3.851zM59.066 366.122a.866.866 0 01-.71-1.369l8.166-11.606a.864.864 0 01.71-.366h8.189a.875.875 0 010 1.749h-7.74l-7.904 11.233a.881.881 0 01-.71.359z" fill="#fff"/><path d="M58.02 376.509h-2.685v9.655h2.684v-9.655z" fill="#4BA7FA"/><path d="M58.02 376.51v9.654h-2.686v-9.654h2.685zm0-1.742h-2.686c-.964 0-1.742.777-1.742 1.742v9.654a1.74 1.74 0 001.742 1.743h2.685a1.74 1.74 0 001.742-1.743v-9.654c0-.965-.777-1.742-1.742-1.742z" fill="#fff"/><path opacity=".51" d="M58.019 376.51h-2.685v9.654h2.685v-9.654z" fill="#1D79DE"/><path d="M57.129 376.509v8.099c0 .299-.36.538-.793.538h-1.002v-8.644h1.795v.007z" fill="#4BA7FA"/><path d="M87.73 392.134a.876.876 0 01-.876-.875v-44.966a.876.876 0 011.75 0v44.966a.876.876 0 01-.875.875z" fill="#fff"/><path opacity=".51" d="M154.106 394.789v1.705c0 7.665-6.215 13.865-13.88 13.865h-6.558c.673-.838 2.647-2.505 2.707-5.93.142-7.486 7.276-7.157 10.38-7.209 3.103-.06 4.778-2.042 4.778-2.042l2.573-.389z" fill="#1D79DE"/><path d="M154.105 395.948v.546c0 7.665-6.214 13.864-13.879 13.864h-.882c.673-.837 1.368-2.527 1.428-5.952.142-7.486 6.319-7.127 9.415-7.179a6.86 6.86 0 003.918-1.279z" fill="#4BA7FA"/><path d="M154.105 395.947v.546c0 7.665-6.214 13.864-13.879 13.864h-.883c.673-.837 1.369-2.527 1.429-5.952.142-7.486 6.319-7.127 9.415-7.179a6.863 6.863 0 003.918-1.279zm1.743-3.388l-2.76 1.967a5.232 5.232 0 01-2.931.957l-.494.008c-3.133.03-10.462.097-10.626 8.884-.06 3.313-.748 4.524-1.047 4.898l-2.273 2.834h4.516c8.615 0 15.622-6.999 15.622-15.614v-3.934h-.007z" fill="#fff"/></svg>