<svg width="142" height="42" fill="none" xmlns="http://www.w3.org/2000/svg"><path d="M.84 5.813A5.812 5.812 0 016.651 0h129.535A5.812 5.812 0 01142 5.813v29.892a5.812 5.812 0 01-5.813 5.813H6.652a5.813 5.813 0 01-5.813-5.813V5.813z" fill="#000"/><path d="M47.198 9.964h2.64c.631 0 1.188.122 1.67.366.487.238.863.575 1.129 1.013.271.437.407.946.407 1.527 0 .582-.136 1.091-.407 1.528a2.698 2.698 0 01-1.13 1.022c-.481.238-1.038.357-1.669.357h-2.64V9.964zm2.574 4.708c.581 0 1.044-.16 1.387-.481.348-.327.523-.767.523-1.32 0-.554-.175-.991-.523-1.312-.343-.327-.806-.49-1.387-.49h-1.229v3.603h1.229zM56.092 15.843c-.47 0-.894-.097-1.27-.29-.37-.2-.662-.474-.872-.823a2.253 2.253 0 01-.315-1.187c0-.443.105-.838.315-1.187.21-.349.501-.62.872-.814.376-.2.8-.299 1.27-.299.471 0 .892.1 1.263.299.37.194.661.465.871.814.21.348.316.744.316 1.187 0 .443-.105.839-.316 1.188-.21.348-.5.622-.871.822-.371.193-.792.29-1.263.29zm0-1.063c.333 0 .604-.11.814-.332.216-.227.324-.528.324-.905 0-.376-.108-.675-.324-.897a1.06 1.06 0 00-.814-.34c-.332 0-.606.113-.822.34-.216.222-.324.52-.324.897s.108.678.324.905a1.1 1.1 0 00.822.332zM66.46 11.31l-1.619 4.467h-1.245l-1.005-2.774-1.038 2.774h-1.245l-1.611-4.467h1.22l1.055 3.022 1.096-3.023h1.096l1.063 3.023 1.088-3.023h1.145zM69.778 11.243c.553 0 1 .166 1.337.498.343.332.515.825.515 1.478v2.558h-1.296v-2.358c0-.355-.077-.618-.232-.79-.155-.176-.38-.265-.673-.265-.326 0-.587.102-.78.307-.194.2-.291.498-.291.897v2.209h-1.295V11.31H68.3v.523c.172-.189.385-.332.64-.432.254-.105.534-.158.838-.158zM72.804 9.616h1.295v6.16h-1.295v-6.16zM77.427 15.843c-.47 0-.894-.097-1.27-.29-.371-.2-.662-.474-.872-.823a2.253 2.253 0 01-.316-1.187c0-.443.105-.838.316-1.187.21-.349.5-.62.872-.814.376-.2.8-.299 1.27-.299s.891.1 1.262.299c.371.194.662.465.872.814.21.348.316.744.316 1.187 0 .443-.105.839-.316 1.188-.21.348-.5.622-.872.822-.37.193-.791.29-1.262.29zm0-1.063c.332 0 .603-.11.814-.332.216-.227.324-.528.324-.905 0-.376-.108-.675-.324-.897a1.06 1.06 0 00-.814-.34c-.332 0-.606.113-.822.34-.216.222-.324.52-.324.897s.108.678.324.905a1.1 1.1 0 00.822.332zM82.471 11.243c.692 0 1.224.166 1.595.498.37.327.556.822.556 1.487v2.549H83.41v-.556c-.244.415-.698.622-1.362.622-.343 0-.642-.058-.897-.174a1.253 1.253 0 01-.772-1.18c0-.414.155-.741.465-.98.315-.237.8-.356 1.453-.356h1.03c0-.283-.086-.498-.258-.648-.171-.155-.429-.232-.772-.232-.238 0-.473.038-.706.116a1.8 1.8 0 00-.581.299l-.465-.905a2.81 2.81 0 01.872-.399 3.97 3.97 0 011.054-.141zm-.1 3.728c.222 0 .419-.05.59-.15a.86.86 0 00.366-.456v-.457h-.889c-.531 0-.797.175-.797.524a.48.48 0 00.191.398c.133.094.313.141.54.141zM90.393 9.616v6.16h-1.237v-.514c-.32.387-.786.581-1.395.581-.42 0-.802-.094-1.146-.282a2.03 2.03 0 01-.797-.806 2.456 2.456 0 01-.29-1.212c0-.46.096-.863.29-1.212a2.03 2.03 0 01.797-.806 2.342 2.342 0 011.146-.282c.57 0 1.016.18 1.337.54V9.616h1.295zm-2.408 5.164c.327 0 .598-.11.814-.332.216-.227.324-.528.324-.905 0-.376-.108-.675-.324-.897a1.076 1.076 0 00-.814-.34c-.332 0-.606.113-.822.34-.216.222-.324.52-.324.897s.108.678.324.905a1.1 1.1 0 00.822.332zM96.07 15.843c-.471 0-.894-.097-1.27-.29-.372-.2-.662-.474-.873-.823a2.253 2.253 0 01-.315-1.187c0-.443.105-.838.315-1.187.21-.349.501-.62.872-.814.377-.2.8-.299 1.27-.299.471 0 .892.1 1.263.299.37.194.661.465.872.814.21.348.315.744.315 1.187 0 .443-.105.839-.315 1.188-.21.348-.501.622-.872.822-.371.193-.792.29-1.262.29zm0-1.063c.332 0 .603-.11.813-.332.216-.227.324-.528.324-.905 0-.376-.108-.675-.324-.897a1.06 1.06 0 00-.813-.34c-.333 0-.607.113-.822.34-.216.222-.324.52-.324.897s.108.678.323.905a1.1 1.1 0 00.823.332zM102.1 11.243c.554 0 .999.166 1.337.498.343.332.515.825.515 1.478v2.558h-1.295v-2.358c0-.355-.078-.618-.233-.79-.155-.176-.379-.265-.673-.265-.326 0-.586.102-.78.307-.194.2-.291.498-.291.897v2.209h-1.295V11.31h1.237v.523a1.68 1.68 0 01.64-.432c.254-.105.534-.158.838-.158zM110.359 15.56a1.382 1.382 0 01-.473.217 2.464 2.464 0 01-.581.066c-.532 0-.944-.135-1.238-.407-.288-.27-.432-.67-.432-1.195v-1.835h-.689v-.997h.689v-1.088h1.296v1.088h1.113v.996h-1.113v1.819c0 .188.047.335.141.44.1.1.238.15.415.15a.832.832 0 00.523-.166l.349.913zM113.801 11.243c.554 0 1 .166 1.337.498.344.332.515.825.515 1.478v2.558h-1.295v-2.358c0-.355-.078-.618-.233-.79-.155-.176-.379-.265-.672-.265-.327 0-.587.102-.781.307-.194.2-.29.498-.29.897v2.209h-1.296V9.616h1.296v2.159c.171-.172.379-.302.622-.39.244-.095.51-.142.797-.142zM121.252 13.56c0 .016-.008.133-.025.348h-3.379c.06.277.204.496.431.657.227.16.51.24.847.24.233 0 .438-.033.615-.1.182-.071.351-.182.506-.332l.689.748c-.42.481-1.035.722-1.843.722-.504 0-.949-.097-1.337-.29a2.196 2.196 0 01-.897-.823 2.256 2.256 0 01-.315-1.187c0-.437.102-.83.307-1.179.21-.354.496-.628.855-.822.366-.2.773-.299 1.221-.299.437 0 .833.094 1.187.282.355.189.631.46.831.814.205.349.307.756.307 1.22zm-2.317-1.337c-.293 0-.539.083-.739.249a1.06 1.06 0 00-.365.68h2.2a1.053 1.053 0 00-.365-.672 1.081 1.081 0 00-.731-.257zM54.956 29.224h-5.047l-.962 2.33h-2.578l4.845-10.87h2.484l4.86 10.87h-2.64l-.962-2.33zm-.792-1.91l-1.724-4.16-1.723 4.16h3.447zM64.453 23.076c.776 0 1.48.18 2.112.543a3.766 3.766 0 011.506 1.506c.362.642.543 1.392.543 2.252 0 .859-.18 1.614-.543 2.267a3.901 3.901 0 01-1.506 1.506 4.264 4.264 0 01-2.112.528c-1.066 0-1.905-.337-2.516-1.01v3.898h-2.422V23.2h2.314v.962c.6-.724 1.475-1.086 2.624-1.086zm-.42 6.614c.622 0 1.129-.207 1.522-.62.404-.425.606-.99.606-1.693 0-.704-.202-1.263-.606-1.677-.393-.425-.9-.637-1.521-.637-.622 0-1.134.212-1.538.637-.393.414-.59.973-.59 1.677 0 .704.197 1.268.59 1.692.404.414.916.621 1.538.621zM75.174 23.076c.776 0 1.48.18 2.111.543a3.766 3.766 0 011.507 1.506c.362.642.543 1.392.543 2.252 0 .859-.181 1.614-.543 2.267a3.9 3.9 0 01-1.507 1.506 4.264 4.264 0 01-2.111.528c-1.067 0-1.905-.337-2.516-1.01v3.898h-2.422V23.2h2.313v.962c.6-.724 1.475-1.086 2.625-1.086zm-.42 6.614c.621 0 1.129-.207 1.522-.62.404-.425.606-.99.606-1.693 0-.704-.202-1.263-.606-1.677-.393-.425-.9-.637-1.522-.637-.62 0-1.133.212-1.537.637-.393.414-.59.973-.59 1.677 0 .704.197 1.268.59 1.692.404.414.916.621 1.537.621zM84.699 31.74c-.86 0-1.693-.114-2.5-.342-.797-.238-1.44-.543-1.926-.916l.854-1.894c.466.341 1.02.616 1.662.823.642.207 1.283.31 1.925.31.715 0 1.243-.103 1.584-.31.342-.218.513-.502.513-.854a.78.78 0 00-.311-.637 2.128 2.128 0 00-.776-.42c-.311-.103-.735-.216-1.274-.34a17.683 17.683 0 01-2.034-.59 3.363 3.363 0 01-1.366-.948c-.373-.435-.56-1.014-.56-1.74 0-.63.172-1.2.513-1.707.342-.518.854-.927 1.537-1.227.694-.3 1.538-.45 2.531-.45.694 0 1.372.083 2.035.248a6.007 6.007 0 011.739.715l-.777 1.91c-1.004-.57-2.008-.854-3.012-.854-.704 0-1.227.113-1.568.341-.332.228-.497.528-.497.9 0 .373.191.653.574.84.394.175.989.351 1.786.527.828.197 1.506.393 2.034.59.528.197.978.507 1.35.932.384.424.576.999.576 1.723 0 .621-.177 1.19-.529 1.708-.341.508-.859.911-1.552 1.212-.694.3-1.538.45-2.531.45zM96.247 31.15a2.59 2.59 0 01-.885.404 4.601 4.601 0 01-1.087.124c-.994 0-1.765-.254-2.314-.761-.538-.507-.808-1.253-.808-2.236v-3.432h-1.288v-1.863h1.288v-2.034h2.423v2.034h2.08v1.863h-2.08v3.4c0 .353.088.627.264.824.186.186.445.28.776.28.383 0 .71-.104.978-.311l.653 1.708zM101.324 31.678c-.88 0-1.672-.181-2.376-.544a4.166 4.166 0 01-1.63-1.537c-.394-.652-.59-1.392-.59-2.22 0-.828.196-1.569.59-2.22a4.057 4.057 0 011.63-1.523c.704-.372 1.496-.558 2.376-.558.88 0 1.666.186 2.36.558.693.363 1.237.87 1.63 1.522.394.652.59 1.393.59 2.22 0 .829-.196 1.569-.59 2.221a4.166 4.166 0 01-1.63 1.537c-.694.363-1.48.544-2.36.544zm0-1.988c.621 0 1.128-.207 1.521-.62.404-.425.606-.99.606-1.693 0-.704-.202-1.263-.606-1.677-.393-.425-.9-.637-1.521-.637-.621 0-1.134.212-1.538.637-.403.414-.605.973-.605 1.677 0 .704.202 1.268.605 1.692.404.414.917.621 1.538.621zM109.837 24.302a2.7 2.7 0 011.165-.916c.497-.207 1.066-.31 1.708-.31v2.235a8.741 8.741 0 00-.544-.03c-.693 0-1.237.196-1.63.59-.394.383-.59.962-.59 1.739v3.944h-2.423V23.2h2.314v1.102zM122.257 27.408c0 .03-.015.248-.046.652h-6.32c.114.517.383.926.807 1.227.425.3.953.45 1.584.45a3.26 3.26 0 001.149-.186c.342-.135.658-.342.947-.622l1.289 1.398c-.787.9-1.936 1.35-3.447 1.35-.942 0-1.775-.18-2.5-.543-.725-.372-1.283-.885-1.677-1.537-.393-.652-.59-1.392-.59-2.22 0-.818.192-1.553.575-2.205a4.072 4.072 0 011.599-1.538c.683-.372 1.444-.558 2.283-.558.817 0 1.557.175 2.22.527a3.79 3.79 0 011.553 1.522c.383.652.574 1.413.574 2.283zm-4.332-2.5c-.549 0-1.009.155-1.382.466-.373.31-.6.735-.683 1.273h4.115c-.083-.528-.311-.947-.684-1.258-.372-.32-.828-.481-1.366-.481z" fill="#fff"/><path fill-rule="evenodd" clip-rule="evenodd" d="M29.956 13.628c-2.265-.16-4.192 1.213-5.267 1.213-1.09 0-2.772-1.182-4.546-1.144-2.334.031-4.491 1.306-5.696 3.31-2.427 4.038-.622 10.02 1.742 13.298 1.16 1.597 2.534 3.4 4.346 3.34 1.743-.07 2.403-1.083 4.515-1.083 2.103 0 2.702 1.082 4.545 1.052 1.881-.031 3.071-1.636 4.215-3.24 1.32-1.85 1.873-3.64 1.904-3.755-.053-.023-3.662-1.351-3.693-5.336-.03-3.34 2.849-4.944 2.98-5.021-1.628-2.311-4.155-2.572-5.045-2.634zM28.558 11.47c.96-1.113 1.613-2.671 1.436-4.214-1.39.053-3.063.883-4.054 1.996-.89.99-1.674 2.572-1.459 4.084 1.536.116 3.118-.752 4.077-1.865z" fill="#fff"/></svg>